<?xml version="1.0" encoding="UTF-8"?>
<?xml-stylesheet type="text/css" href="../../css/style.css" ?>
<svg enable-background="new 0 0 512 512" version="1.1" viewBox="0 0 512 512" xml:space="preserve" xmlns="http://www.w3.org/2000/svg">
		<path d="m384.59 48.097h-0.08c-4.142 0-7.46 3.358-7.46 7.5s3.398 7.5 7.54 7.5 7.5-3.358 7.5-7.5-3.358-7.5-7.5-7.5z"/>
		<path d="m256.26 224.45h-36.077c-46.695 0-84.685-37.99-84.685-84.686s37.99-84.686 84.685-84.686h36.073c4.142 0 7.5-3.358 7.5-7.5s-3.358-7.5-7.5-7.5h-36.073c-39.351 0-73.446 22.922-89.644 56.113h-35.112c-7.004 0-13.593 3.086-18.078 8.468l-30.746 36.895c-5.732-3.438-12.204-5.281-18.807-5.281-9.163 0-18.079 3.546-25.107 9.986-3.054 2.798-3.261 7.542-0.463 10.597 1.479 1.614 3.502 2.433 5.532 2.433 1.81 0 3.625-0.651 5.065-1.97 3.01-2.758 8.051-6.045 14.974-6.045s11.963 3.287 14.973 6.045c1.383 1.268 3.191 1.971 5.067 1.971h24.048c4.142 0 7.5-3.357 7.5-7.5 0-4.142-3.358-7.5-7.5-7.5h-8.035l14.265-17.118 42.443 9.337c-0.035 1.082-0.059 2.166-0.059 3.256 0 54.967 44.719 99.686 99.685 99.686h36.076v-1e-3c4.142 0 7.5-3.358 7.5-7.5s-3.358-7.5-7.5-7.5zm-134.08-102.94l-33.245-7.313c1.625-1.906 3.983-3.001 6.491-3.001h29.252c-1.009 3.368-1.846 6.809-2.498 10.314z"/>
		<path d="m509.31 322.62c-7.028-6.44-15.944-9.987-25.107-9.987-6.602 0-13.075 1.843-18.807 5.281l-30.746-36.895c-4.484-5.381-11.074-8.467-18.078-8.467h-18.204c-9.307-54.542-56.908-96.194-114.06-96.194h-60.121c-17.965 0-32.581-14.615-32.581-32.58 0-2.613 0.318-5.151 0.901-7.587l40.975-9.015 14.265 17.118h-8.035c-4.142 0-7.5 3.358-7.5 7.5 0 4.143 3.358 7.5 7.5 7.5h24.048c1.876 0 3.684-0.703 5.067-1.971 3.01-2.758 8.05-6.045 14.973-6.045s11.964 3.287 14.974 6.045c1.439 1.319 3.255 1.971 5.065 1.971 2.029 0 4.052-0.818 5.531-2.433 2.799-3.054 2.592-7.798-0.462-10.597-7.027-6.44-15.944-9.986-25.107-9.986-6.602 0-13.075 1.843-18.807 5.281l-25.301-30.362h102.33c7.763 5.214 16.892 8.017 26.453 8.017h72.145c4.142 0 7.5-3.358 7.5-7.5 0-4.143-3.358-7.5-7.5-7.5h-48.613v-8.532c0-4.705 3.828-8.532 8.532-8.532h40.597v0.516c0 4.143 3.358 7.5 7.5 7.5s7.5-3.357 7.5-7.5v-0.516h0.516c4.142 0 7.5-3.358 7.5-7.5v-21.798c0-4.812-2.175-9.269-5.967-12.23s-8.646-3.99-13.312-2.823l-17.701 4.425c-0.175 0.044-0.363-8e-3 -0.491-0.136l-19.462-19.464c-7.473-7.473-17.409-11.588-27.977-11.588h-47.753c-10.471-10.337-24.321-16.032-39.049-16.032h-76.271c-4.142 0-7.5 3.358-7.5 7.5s3.358 7.5 7.5 7.5h36.974l23.797 23.797c10.5 10.5 24.461 16.284 39.312 16.284h36.191c3.034 0 5.768-1.828 6.929-4.63s0.519-6.029-1.626-8.173l-11.245-11.245h32.741c6.562 0 12.73 2.555 17.37 7.195l19.464 19.464c3.831 3.831 9.476 5.395 14.734 4.081l17.701-4.426c0.073-0.018 0.244-0.061 0.443 0.094 0.198 0.155 0.198 0.332 0.198 0.407v14.298h-48.613c-12.976 0-23.532 10.556-23.532 23.532v8.532h-8.532c-8.703 0-16.884-3.389-23.038-9.543l-21.298-21.298c-5.958-5.958-13.881-9.24-22.308-9.24h-5.501c-4.142 0-7.5 3.358-7.5 7.5 0 4.143 3.358 7.5 7.5 7.5h5.501c4.42 0 8.576 1.722 11.702 4.847l12.218 12.218h-50.979v-14.044c0-4.143-3.358-7.5-7.5-7.5s-7.5 3.357-7.5 7.5v14.043h-35.587c-4.963 0-9.75 0.767-14.251 2.183l-5.86-10.921c-1.958-3.649-6.504-5.021-10.155-3.062-3.65 1.959-5.021 6.505-3.062 10.155l5.663 10.553c-12.045 8.642-19.914 22.751-19.914 38.674 0 0.638 0.023 1.271 0.048 1.903l-11.774 2.444c-4.056 0.842-6.661 4.812-5.82 8.867 0.735 3.542 3.856 5.978 7.336 5.978 0.505 0 1.018-0.051 1.532-0.158l11.676-2.423c5.243 14.025 16.924 24.926 31.429 29.106l-1.511 9.178c-0.673 4.087 2.095 7.946 6.182 8.619 0.413 0.068 0.822 0.101 1.228 0.101 3.606 0 6.786-2.608 7.391-6.283l1.605-9.751h56.558v8.533c0 4.142 3.358 7.5 7.5 7.5s7.5-3.358 7.5-7.5v-7.67c21.874 2.871 41.557 12.788 56.696 27.391l-3.033 3.033c-2.929 2.929-2.928 7.678 0 10.606 1.465 1.464 3.384 2.196 5.303 2.196s3.839-0.732 5.304-2.197l2.436-2.437c12.394 16.124 20.023 36.086 20.766 57.771h-3.455c-4.142 0-7.5 3.358-7.5 7.5s3.358 7.5 7.5 7.5h2.861c-2.123 18.581-9.321 35.639-20.171 49.754l-0.266-0.266c-2.93-2.929-7.677-2.929-10.607 0-2.929 2.929-2.928 7.678 0 10.606l0.861 0.862c-15.524 14.974-35.83 25.018-58.374 27.592-0.078-4.075-3.399-7.355-7.493-7.355-4.142 0-7.5 3.357-7.5 7.5v0.516h-0.516c-39.496 0-71.629 32.133-71.629 71.629v8.016c0 10.931-7.176 20.217-17.064 23.394v-31.41c0-53.325 43.384-96.709 96.709-96.709 39.497 0 71.629-32.133 71.629-71.629s-32.133-71.629-71.629-71.629c-4.142 0-7.5 3.358-7.5 7.5s3.358 7.5 7.5 7.5c22.831 0 42.536 13.589 51.488 33.097h-51.995c-7.005 0-13.594 3.086-18.078 8.467l-30.745 36.895c-5.732-3.438-12.204-5.281-18.806-5.281-9.164 0-18.081 3.547-25.108 9.987-3.054 2.798-3.26 7.542-0.462 10.596 1.479 1.614 3.502 2.433 5.531 2.433 1.81 0 3.625-0.651 5.065-1.971 3.009-2.758 8.05-6.046 14.973-6.046s11.963 3.288 14.973 6.046c1.383 1.268 3.191 1.971 5.067 1.971h24.048c4.142 0 7.5-3.358 7.5-7.5 0-4.143-3.358-7.5-7.5-7.5h-8.036l14.265-17.119 69.652 15.324c-8.784 19.916-28.705 33.859-51.833 33.859-61.597 0-111.71 50.112-111.71 111.71v40.08c0 4.142 3.358 7.5 7.5 7.5 21.816 0 39.564-17.749 39.564-39.564v-8.016c0-31.225 25.404-56.629 56.629-56.629h4.008c57.246 0 104.91-41.787 114.11-96.459l35.472-7.804 14.265 17.119h-8.036c-4.142 0-7.5 3.357-7.5 7.5 0 4.142 3.358 7.5 7.5 7.5h24.048c1.876 0 3.684-0.703 5.067-1.971 3.009-2.758 8.05-6.046 14.973-6.046s11.964 3.288 14.974 6.046c1.439 1.319 3.255 1.971 5.065 1.971 2.029 0 4.052-0.819 5.531-2.434 2.801-3.055 2.594-7.799-0.461-10.597zm-193.06-282.54c-10.844 0-21.039-4.223-28.706-11.89l-13.19-13.191h18.083c10.844 0 21.039 4.223 28.707 11.891l13.19 13.19h-18.084zm-95.893 71.345l2.306 2.768-18.791 4.133c4.634-3.706 10.296-6.173 16.485-6.901zm60.957 179.12c1.624-1.907 3.983-3.001 6.49-3.001h56.493c0.422 2.784 0.643 5.633 0.643 8.533 0 2.83-0.215 5.61-0.618 8.331l-63.008-13.863zm118.68 5.074c-7e-3 -0.119-0.01-0.239-0.023-0.356 0.029-1.062 0.046-2.126 0.046-3.194 0-1.516-0.039-3.022-0.097-4.524h16.645v-1e-3c2.508 0 4.866 1.095 6.491 3.001l-23.062 5.074z"/>
</svg>
