<?xml version="1.0" encoding="UTF-8"?>
<?xml-stylesheet type="text/css" href="../../css/style.css" ?>
<svg enable-background="new 0 0 511.998 511.998" version="1.1" viewBox="0 0 511.998 511.998" xml:space="preserve" xmlns="http://www.w3.org/2000/svg">
		<path d="m488.47 112.22h-12.925l-4.444-4.444c-7.42-7.42-17.483-11.588-27.976-11.588h-66.566c-4.107 0-7.688 3.164-7.811 7.269-0.128 4.247 3.278 7.731 7.497 7.731h66.88c6.515 0 12.764 2.588 17.371 7.196l6.64 6.64c1.407 1.407 3.314 2.197 5.303 2.197h16.032c4.712 0 8.532 3.82 8.532 8.532v8.532h-40.597c-12.996 0-23.532 10.536-23.532 23.532v5.444c-14.661-6.087-25.014-20.524-25.08-37.346-0.016-4.013-3.164-7.485-7.174-7.655-4.291-0.182-7.826 3.243-7.826 7.493 0 0.173 0.011 0.344 0.013 0.516h-4.538c-31.542 0-58.104 21.709-65.541 50.969l-27.133-16.033c-9.615-5.681-16.81-14.871-19.455-25.721-2.671-10.958-0.764-22.222 5.355-31.679l53.858-83.236c3.05-4.713 8.28-7.559 13.894-7.559h18.667c4.107 0 7.688-3.164 7.811-7.269 0.128-4.247-3.278-7.731-7.497-7.731h-18.982c-10.701 0-20.673 5.425-26.487 14.41l-6.632 10.249c-14.222 1.663-65.215 10.039-117.48 48.026-35.347 25.693-63.84 59.652-84.689 100.93-25.887 51.258-39.955 113.97-41.812 186.4-0.106 4.141 3.165 7.583 7.305 7.69 0.066 2e-3 0.131 2e-3 0.196 2e-3 4.052 0 7.389-3.233 7.494-7.308 0.517-20.144 2.005-39.491 4.444-58.01 2.047-9.167 11.921-31.046 25.843-53.648 18.896-30.676 30.351-38.89 33.625-39.684 0.54 0.857 1.782 3.554 2.219 10.528-6.573 20.82-8.774 34.493-8.892 35.248-0.643 4.09 2.15 7.925 6.24 8.571 0.396 0.062 0.79 0.093 1.178 0.093 3.625 0 6.814-2.636 7.399-6.329 0.025-0.16 0.501-3.03 1.626-8.028 2.638-4.105 11.216-17.188 21.296-29.766 21.849-27.266 29.708-26.086 29.785-26.071 0.399 0.078 2.072 1.625 3.198 7.628-5.486 22.87-6.604 37.651-6.665 38.5-0.295 4.13 2.812 7.714 6.941 8.012 0.184 0.013 0.366 0.02 0.547 0.02 3.895 0 7.186-3.012 7.473-6.958 0.015-0.2 1.151-14.899 6.643-37.454 1.927-1.856 6.368-5.227 14.26-6.597 14.639-2.54 41.607 1.616 86.931 35.791 6.198 9.719 14.894 17.869 25.515 23.473 1.117 0.589 2.313 0.868 3.494 0.868 2.917 0 5.729-1.707 6.949-4.66 1.504-3.642-0.272-7.774-3.745-9.635-14.925-7.997-24.917-22.471-27.266-38.914 2.812-0.01 5.541-1.601 6.823-4.426 1.598-3.519 0.093-7.687-3.234-9.653l-3.412-2.016c4.116-24.94 25.82-44.026 51.908-44.026h6.744c1.806 6.202 4.662 11.959 8.368 17.064h-18.449c-17.167 0-31.696 13.434-32.206 30.593-0.53 17.83 13.821 32.504 31.534 32.504h7.157c31.076 0 57.008 24.677 57.482 55.75 0.482 31.626-25.104 57.508-56.622 57.508h-57.948l1.165-6.993c0.675-4.049-1.857-8.1-5.885-8.896-4.169-0.824-8.167 1.961-8.86 6.123l-13.531 81.189c-0.842 5.051-5.161 8.72-10.298 8.738-5.154 0.018-9.369-4.419-9.369-9.573v-63.089c0-22.421 18.176-40.597 40.597-40.597h59.503c14.998 0 27.711-11.732 28.147-26.723 0.448-15.386-11.797-28.075-27.019-28.353-3.982-0.073-7.571 2.755-7.971 6.717-0.453 4.492 3.062 8.279 7.461 8.279 7.314 0 13.185 6.293 12.484 13.749-0.612 6.497-6.324 11.331-12.851 11.331h-172.93c-39.454 0-70.602 32.292-70.682 71.745-0.063 31.185-25.463 56.533-56.667 56.513-31.412-0.021-56.591-26.144-56.591-57.557v-128.84c0-2.764 0.818-5.466 2.351-7.766l12.421-18.632c1.284-1.926 1.607-4.336 0.875-6.532l-15.942-47.826c-0.923-2.768-3.267-4.927-6.158-5.327-3.641-0.503-7.033 1.665-8.163 5.056l-16.032 48.097c-0.732 2.196-0.409 4.606 0.875 6.532l12.421 18.632c1.533 2.3 2.351 5.002 2.351 7.766v140.69c0 50.756 40.78 92.7 91.535 92.773 50.577 0.073 91.752-41.027 91.803-91.575 0.011-11.39 9.166-20.65 20.556-20.65h27.742c4.107 0 7.688-3.164 7.811-7.269 0.128-4.247-3.278-7.731-7.497-7.731h-28.057c-19.579 0-35.594 15.827-35.556 35.406 0.082 42.345-34.343 76.82-76.669 76.82-24.536 0-46.401-11.599-60.444-29.587 11.51 7.893 25.424 12.522 40.403 12.522 39.614 0 71.82-32.324 71.629-71.982-0.151-31.172 25.668-56.277 56.841-56.277h74.085c-10.861 10.154-17.668 24.592-17.668 40.597v56.738l-9.551 7.901c-9.694 8.02-11.375 22.186-3.826 32.251l29.925 39.9h-8.734c-4.107 0-7.688 3.164-7.811 7.269-0.128 4.247 3.278 7.731 7.497 7.731h24.046 9e-3 6e-3 5.332c1.401 0 2.774-0.389 3.963-1.132 7.099-4.439 16.131-6.884 25.43-6.884 9.294 0 18.321 2.442 25.418 6.876 1.236 0.772 2.609 1.141 3.967 1.141 2.554 0 5.051-1.304 6.458-3.675 2.13-3.587 0.725-8.22-2.829-10.404-9.516-5.848-20.922-8.938-33.014-8.938-11.303 0-22.004 2.704-31.125 7.832l-36.537-48.716c-2.737-3.649-2.128-8.786 1.387-11.694l2.518-2.083c3.984 8.02 12.264 13.548 21.824 13.548 12.495 0 23.055-8.946 25.11-21.271l9.815-58.89h59.534c39.435 0 72.157-31.489 72.539-70.922 0.386-39.819-31.894-72.336-71.625-72.336h-7.578c-9.256 0-17.139-7.574-16.984-16.829 0.15-8.996 7.515-16.268 16.546-16.268h35.399c8.39 5.085 18.224 8.016 28.73 8.016h39.766c4.107 0 7.688-3.164 7.811-7.269 0.128-4.247-3.278-7.731-7.497-7.731h-40.583l-0.013-0.013v-8.519c0-4.712 3.82-8.532 8.532-8.532h32.581v0.202c0 4.107 3.164 7.688 7.269 7.811 4.247 0.128 7.731-3.278 7.731-7.497v-0.516h0.516c4.142 0 7.5-3.358 7.5-7.5v-16.032c2e-3 -12.998-10.534-23.534-23.53-23.534zm-264.63 66.252c-1.195 3.586-2.297 7.076-3.318 10.465-1.705-1.145-3.613-1.927-5.724-2.341-6.766-1.327-18.23 0.188-40.632 26.851 12.436-32.78 34.236-75.754 71.098-112.46 2.935-2.923 2.945-7.671 0.022-10.607s-7.672-2.945-10.606-0.023c-38.717 38.553-61.186 83.312-73.217 114.07-0.164 0.419-0.32 0.831-0.481 1.248-2.798-2.643-6.009-3.56-8.939-3.663-7.148-0.259-14.942 4.574-24.49 15.194-6.934 7.712-14.761 18.524-22.635 31.269-0.449 0.726-0.899 1.469-1.35 2.211 6.159-22.209 14.009-42.85 23.544-61.814 19.662-39.104 46.49-71.265 79.739-95.589 34.77-25.437 69.519-36.96 91.379-42.084-41.021 44.33-63.018 93.159-74.39 127.27zm17.902 11.216c-2.24 0.389-4.309 0.897-6.218 1.488 0.844-2.748 1.739-5.555 2.701-8.428 4.958-14.805 12.021-32.515 21.914-51.393-0.454 5.701-0.028 11.506 1.326 17.254 3.504 14.871 12.678 27.342 25.832 35.115l33.364 19.715c-1e-3 0.151-0.011 0.299-0.011 0.45 0 3.807 0.322 7.562 0.937 11.236-31.614-20.602-58.412-29.156-79.845-25.437zm-225.96 17.101l7.757-23.271 7.757 23.271-7.757 11.636-7.757-11.636z"/>
		<path d="m448.47 120.24h-0.08c-4.142 0-7.46 3.358-7.46 7.5s3.398 7.5 7.54 7.5 7.5-3.358 7.5-7.5-3.358-7.5-7.5-7.5z"/>
</svg>
