<?xml version="1.0" encoding="UTF-8"?>
<?xml-stylesheet type="text/css" href="../../css/style.css" ?>
<svg enable-background="new 0 0 512.001 512.001" version="1.1" viewBox="0 0 512.001 512.001" xml:space="preserve" xmlns="http://www.w3.org/2000/svg">
		<path d="m381.53 48.097h-0.08c-4.142 0-7.46 3.358-7.46 7.5s3.398 7.5 7.54 7.5 7.5-3.358 7.5-7.5-3.358-7.5-7.5-7.5z"/>
		<path d="m293.27 40.081h-76.153c-40.955 0-75.719 26.998-87.44 64.129h-10.816c-8.427 0-16.35 3.281-22.308 9.24l-12.403 12.403c-5.862-3.647-12.531-5.611-19.339-5.611-9.163 0-18.08 3.546-25.107 9.986-3.054 2.799-3.26 7.543-0.462 10.597 1.479 1.614 3.502 2.433 5.531 2.433 1.81 0 3.625-0.651 5.065-1.971 3.009-2.758 8.05-6.045 14.973-6.045s11.964 3.287 14.973 6.045c1.383 1.268 3.191 1.971 5.067 1.971h16.032c4.142 0 7.5-3.357 7.5-7.5 0-3.506-2.41-6.442-5.662-7.263l4.438-4.438c3.125-3.126 7.281-4.847 11.702-4.847h7.448c-0.563 4.102-0.861 8.286-0.861 12.54 0 50.547 41.123 91.669 91.669 91.669h36.071c4.142 0 7.5-3.358 7.5-7.5s-3.358-7.5-7.5-7.5h-36.071c-42.276 0-76.669-34.394-76.669-76.669s34.394-76.669 76.669-76.669h76.153c4.142 0 7.5-3.358 7.5-7.5s-3.357-7.5-7.5-7.5z"/>
		<path d="m472.1 258.25c-6.987-6.292-15.799-9.753-24.85-9.753-6.808 0-13.477 1.963-19.339 5.611l-12.403-12.403c-5.917-5.917-13.941-9.241-22.308-9.241h-5.624c-7.346-40.962-43.243-72.146-86.286-72.146h-80.162c-12.392 0-22.665-9.225-24.324-21.168 3.009-2.078 7.129-3.912 12.3-3.912 6.923 0 11.964 3.287 14.974 6.045 1.439 1.319 3.255 1.97 5.065 1.97 2.111 0 4.215-0.886 5.707-2.631 2.668-3.122 2.156-7.883-0.895-10.631-6.988-6.292-15.799-9.753-24.85-9.753-2.59 0-5.157 0.296-7.67 0.85 4.483-6.004 11.642-9.899 19.694-9.899h110.39c7.763 5.214 16.892 8.017 26.453 8.017h79.277c4.107 0 7.688-3.165 7.811-7.27 0.127-4.247-3.278-7.73-7.497-7.73h-48.613v-8.532c0-4.712 3.82-8.532 8.532-8.532h40.597v0.201c0 4.107 3.164 7.688 7.269 7.811 4.247 0.128 7.731-3.277 7.731-7.497v-0.516h0.516c4.142 0 7.5-3.358 7.5-7.5v-16.031c0-12.996-10.536-23.532-23.532-23.532h-20.942l-12.46-12.46c-7.42-7.42-17.483-11.588-27.977-11.588h-63.773l-6.792-6.792c-5.915-5.917-13.939-9.241-22.306-9.241h-20.761c-6.589 0-13.15 0.739-19.499 2.197-18.054 4.146-63.238 13.769-93.755 13.835-4.099 9e-3 -7.672 3.143-7.811 7.239-0.145 4.261 3.267 7.761 7.496 7.761 32.054 0 78.812-9.941 97.428-14.216 5.25-1.205 10.68-1.816 16.142-1.816h20.76c4.389 0 8.598 1.743 11.701 4.847l25.021 25.021c1.464 1.464 3.384 2.197 5.303 2.197 1.862 0 3.723-0.689 5.169-2.066 3.062-2.916 2.896-7.974-0.093-10.964l-3.002-3.002h48.773c6.515 0 12.763 2.588 17.37 7.195l14.657 14.657c1.406 1.406 3.314 2.197 5.303 2.197h24.048c4.712 0 8.532 3.82 8.532 8.532v8.533h-48.613c-12.996 0-23.532 10.536-23.532 23.532v8.532h-15.979c-8.641 0-16.928-3.433-23.038-9.542l-20.104-20.104c-2.904-2.904-7.674-3.198-10.663-0.382-3.093 2.914-3.148 7.784-0.165 10.767l11.245 11.245h-93.378c-21.606 0-39.785 17.013-40.295 38.612-0.525 22.25 17.421 40.517 39.553 40.517h79.235c40.004 0 73.197 31.943 73.585 71.945 0.391 40.393-32.354 73.378-72.658 73.378h-56.113c-22.024 0-41.757 9.989-54.907 25.677 6.208-24.534 28.471-42.742 54.907-42.742h55.314c26.054 0 47.876-20.612 48.37-46.662 0.505-26.655-21.03-48.499-47.572-48.499h-15.715c-4.107 0-7.688 3.164-7.811 7.269-0.128 4.247 3.278 7.731 7.497 7.731h16.03c8.72 0 16.644 3.45 22.497 9.048h-12.536c-8.367 0-16.391 3.324-22.307 9.24l-12.404 12.404c-5.862-3.647-12.531-5.611-19.339-5.611-9.052 0-17.863 3.461-24.85 9.753-3.051 2.748-3.563 7.508-0.896 10.63 1.492 1.746 3.597 2.633 5.708 2.633 1.81 0 3.625-0.651 5.065-1.971 3.009-2.758 8.05-6.045 14.973-6.045 6.894 0 11.921 3.26 14.935 6.011 1.4 1.278 3.21 2.005 5.105 2.005h15.75c4.088 0 7.637-3.15 7.778-7.236 0.125-3.623-2.325-6.686-5.658-7.528l4.438-4.438c3.103-3.103 7.312-4.847 11.701-4.847h21.479c1.075 3.956 1.436 8.203 0.887 12.605-2.05 16.416-16.428 28.508-32.971 28.508h-55.468c-39.56 0-71.629 32.07-71.629 71.629v66.834c0 2.329-0.542 4.625-1.584 6.708l-13.657 27.313c-0.958 1.916-1.051 4.15-0.255 6.139l16.032 40.081c1.139 2.847 3.896 4.715 6.963 4.715s5.825-1.867 6.963-4.715l16.032-40.081c0.796-1.989 0.703-4.223-0.255-6.139l-13.657-27.313c-1.041-2.083-1.584-4.38-1.584-6.708v-34.77c0-31.275 25.354-56.629 56.629-56.629h56.113c48.336 0 87.661-39.325 87.661-87.662 0-0.172-6e-3 -0.344-7e-3 -0.516h4.256c4.389 0 8.599 1.744 11.702 4.847l4.437 4.437c-3.333 0.841-5.782 3.905-5.658 7.528 0.14 4.086 3.689 7.236 7.778 7.236h15.75c1.896 0 3.705-0.727 5.105-2.005 3.014-2.751 8.041-6.011 14.935-6.011 6.923 0 11.963 3.288 14.973 6.045 1.44 1.32 3.255 1.971 5.065 1.971 2.111 0 4.216-0.886 5.708-2.633 2.672-3.121 2.16-7.882-0.891-10.63zm-283.24 206.51l-7.818 19.545-7.818-19.545 7.818-15.635 7.818 15.635z"/>
</svg>
