<?xml version="1.0" encoding="UTF-8"?>
<?xml-stylesheet type="text/css" href="../../css/style.css" ?>
<svg style="fill:inherit" enable-background="new 0 0 512 512" version="1.1" viewBox="0 0 512 512" xml:space="preserve" xmlns="http://www.w3.org/2000/svg">
		<path d="m384.59 48.097h-0.08c-4.142 0-7.46 3.358-7.46 7.5s3.398 7.5 7.54 7.5 7.5-3.358 7.5-7.5-3.358-7.5-7.5-7.5z"/>
		<path d="m240.22 224.45h-16.548v-4.023c0-4.143-3.358-7.5-7.5-7.5s-7.5 3.357-7.5 7.5v3.22c-14.178-1.936-27.246-7.386-38.299-15.453l3.006-3.005c2.929-2.929 2.929-7.678 0-10.607s-7.678-2.929-10.606 0l-3.71 3.71c-12.071-12.6-20.291-28.902-22.765-47.02h7.729c4.142 0 7.5-3.358 7.5-7.5 0-4.143-3.358-7.5-7.5-7.5h-8.444c0.705-17.265 6.6-33.207 16.167-46.315l7.406 7.406c1.464 1.464 3.384 2.196 5.303 2.196s3.839-0.732 5.303-2.196c2.929-2.929 2.929-7.678 0-10.606l-8.11-8.111c12.6-12.071 28.902-20.291 47.02-22.765v12.76c0 4.142 3.358 7.5 7.5 7.5s7.5-3.358 7.5-7.5v-13.562h16.548c4.142 0 7.5-3.358 7.5-7.5s-3.358-7.5-7.5-7.5h-20.041c-39.351 0-73.446 22.922-89.644 56.113h-35.112c-7.004 0-13.593 3.086-18.078 8.468l-30.745 36.895c-5.732-3.438-12.204-5.281-18.807-5.281-9.163 0-18.079 3.546-25.107 9.986-3.054 2.798-3.261 7.542-0.463 10.597 1.479 1.614 3.502 2.433 5.532 2.433 1.81 0 3.625-0.651 5.065-1.97 3.01-2.758 8.051-6.045 14.974-6.045s11.963 3.287 14.973 6.045c1.383 1.268 3.191 1.971 5.067 1.971h24.048c4.142 0 7.5-3.357 7.5-7.5 0-4.142-3.358-7.5-7.5-7.5h-8.036l14.265-17.118 42.443 9.337c-0.035 1.082-0.059 2.166-0.059 3.256 0 54.967 44.719 99.686 99.685 99.686h20.04v-2e-3c4.142 0 7.5-3.358 7.5-7.5s-3.358-7.5-7.5-7.5zm-118.04-102.94l-33.244-7.313c1.625-1.906 3.983-3.001 6.491-3.001h29.251c-1.009 3.368-1.846 6.809-2.498 10.314z"/>
		<path d="m509.31 322.62c-7.028-6.44-15.944-9.987-25.107-9.987-6.602 0-13.075 1.843-18.807 5.281l-30.746-36.895c-4.484-5.381-11.074-8.467-18.078-8.467h-18.204c-9.307-54.542-56.908-96.194-114.06-96.194h-60.121c-17.965 0-32.581-14.615-32.581-32.58 0-2.613 0.318-5.151 0.901-7.587l40.975-9.015 14.265 17.118h-8.035c-4.142 0-7.5 3.358-7.5 7.5 0 4.143 3.358 7.5 7.5 7.5h24.048c1.876 0 3.684-0.703 5.067-1.971 3.01-2.758 8.05-6.045 14.973-6.045s11.964 3.287 14.974 6.045c1.439 1.319 3.255 1.971 5.065 1.971 2.029 0 4.052-0.818 5.531-2.433 2.799-3.054 2.592-7.798-0.462-10.597-7.027-6.44-15.944-9.986-25.107-9.986-6.602 0-13.075 1.843-18.807 5.281l-25.301-30.362h94.885c7.763 5.214 16.892 8.017 26.453 8.017h79.592c4.142 0 7.5-3.358 7.5-7.5 0-4.143-3.358-7.5-7.5-7.5h-48.613v-8.532c0-4.705 3.828-8.532 8.532-8.532h40.597v0.516c0 4.143 3.358 7.5 7.5 7.5s7.5-3.357 7.5-7.5v-0.516h0.516c4.142 0 7.5-3.358 7.5-7.5v-16.033c0-12.976-10.557-23.532-23.532-23.532h-20.942l-12.46-12.46c-7.473-7.473-17.409-11.588-27.977-11.588h-47.753c-10.47-10.338-24.32-16.033-39.048-16.033h-68.255c-4.142 0-7.5 3.358-7.5 7.5s3.358 7.5 7.5 7.5h20.942l25.325 25.331c-2.263 0.571-4.179 2.159-5.1 4.38-1.161 2.802-0.519 6.028 1.626 8.173l20.325 20.325c5.661 5.662 12.5 9.717 19.961 11.945l11.039 11.039h-94.119c-26.236 0-47.581 21.345-47.581 47.581s21.345 47.58 47.581 47.58h60.121c55.536 0 100.72 45.182 100.72 100.72s-45.182 100.72-100.72 100.72h-4.008c-39.496 0-71.629 32.133-71.629 71.629v8.016c0 10.931-7.176 20.217-17.064 23.394v-31.41c0-6.19 0.592-12.244 1.709-18.114 0.268 0.029 0.537 0.063 0.805 0.063 2.28 0 4.532-1.036 6.006-3 2.485-3.313 1.814-8.015-1.5-10.5l-1.368-1.026c5.235-14.589 13.882-27.564 24.974-37.962 1.415 1.252 3.185 1.886 4.96 1.886 1.919 0 3.839-0.732 5.303-2.197 2.424-2.424 2.836-6.092 1.247-8.946 13.604-9.334 29.702-15.286 47.073-16.625v0.227c0 4.143 3.358 7.5 7.5 7.5s7.5-3.357 7.5-7.5v-0.91c16.119-1.685 30.652-8.749 41.8-19.345l7e-3 7e-3c1.465 1.465 3.384 2.197 5.304 2.197 1.919 0 3.839-0.732 5.303-2.197 2.929-2.929 2.929-7.677 0-10.606l-0.84-0.84c6.576-9.574 10.893-20.814 12.161-32.951h0.91c4.142 0 7.5-3.358 7.5-7.5s-3.358-7.5-7.5-7.5h-0.91c-1.478-14.135-7.088-27.053-15.591-37.538l0.428-0.428c2.929-2.929 2.928-7.678 0-10.606-2.93-2.929-7.678-2.929-10.607 0l-0.427 0.428c-12.314-9.986-27.986-15.985-45.038-15.985h-0.516v-0.516c0-4.142-3.358-7.5-7.5-7.5s-7.5 3.358-7.5 7.5v0.516h-0.519c-4.142 0-7.5 3.358-7.5 7.5s3.358 7.5 7.5 7.5h16.035c22.831 0 42.536 13.589 51.488 33.097h-51.995c-7.005 0-13.594 3.086-18.078 8.467l-30.745 36.895c-5.732-3.438-12.204-5.281-18.806-5.281-9.164 0-18.081 3.547-25.108 9.987-3.054 2.798-3.26 7.542-0.462 10.596 1.479 1.614 3.502 2.433 5.531 2.433 1.81 0 3.625-0.651 5.065-1.971 3.009-2.758 8.05-6.046 14.973-6.046s11.963 3.288 14.973 6.046c1.383 1.268 3.191 1.971 5.067 1.971h24.048c4.142 0 7.5-3.358 7.5-7.5 0-4.143-3.358-7.5-7.5-7.5h-8.036l14.265-17.119 69.652 15.324c-8.783 19.916-28.705 33.859-51.833 33.859-61.597 0-111.71 50.112-111.71 111.71v40.083c0 4.142 3.358 7.5 7.5 7.5 21.816 0 39.564-17.749 39.564-39.564v-8.016c0-31.225 25.404-56.629 56.629-56.629h4.008c57.246 0 104.91-41.787 114.11-96.459l35.472-7.804 14.265 17.119h-8.036c-4.142 0-7.5 3.357-7.5 7.5 0 4.142 3.358 7.5 7.5 7.5h24.048c1.876 0 3.684-0.703 5.067-1.971 3.009-2.758 8.05-6.046 14.973-6.046s11.964 3.288 14.974 6.046c1.439 1.319 3.255 1.971 5.065 1.971 2.029 0 4.052-0.819 5.531-2.434 2.802-3.055 2.595-7.799-0.46-10.597zm-151.56-280.34l-11.245-11.245h32.741c6.562 0 12.73 2.555 17.37 7.195l14.657 14.657c1.406 1.406 3.314 2.197 5.303 2.197h24.048c4.705 0 8.532 3.828 8.532 8.532v8.533h-0.511-5e-3s-3e-3 0-5e-3 0h-48.092c-12.976 0-23.532 10.556-23.532 23.532v8.532h-15.979c-8.703 0-16.884-3.39-23.038-9.543l-7.522-7.521h29.99c3.034 0 5.768-1.828 6.929-4.63 1.161-2.803 0.519-6.028-1.626-8.174l-19.261-19.261h5.942c3.034 0 5.768-1.828 6.929-4.63 1.162-2.803 0.52-6.029-1.625-8.174zm-78.216-14.087l-13.19-13.19h26.1c10.844 0 21.039 4.223 28.707 11.891l13.19 13.19h-26.1c-10.845 0-21.039-4.223-28.707-11.891zm18.38 34.413l-7.522-7.522h21.405c8.703 0 16.884 3.389 23.038 9.542l7.522 7.522h-21.405c-8.703 1e-3 -16.884-3.389-23.038-9.542zm-77.551 48.823l2.306 2.768-18.791 4.134c4.634-3.707 10.296-6.174 16.485-6.902zm60.957 179.12c1.624-1.907 3.983-3.001 6.49-3.001h56.493c0.423 2.784 0.644 5.633 0.644 8.533 0 2.83-0.215 5.61-0.618 8.331l-63.009-13.863zm118.65 5.082c0.036-1.183 0.06-2.368 0.06-3.559 0-1.516-0.039-3.022-0.097-4.524h16.645c2.508 0 4.866 1.095 6.491 3.001l-23.099 5.082z"/>
</svg>
