<?xml version="1.0" encoding="UTF-8"?>
<?xml-stylesheet type="text/css" href="../../css/style.css" ?>
<svg enable-background="new 0 0 511.998 511.998" version="1.1" viewBox="0 0 511.998 511.998" xml:space="preserve" xmlns="http://www.w3.org/2000/svg">
		<path d="m448.47 168.34h-0.08c-4.142 0-7.46 3.358-7.46 7.5s3.398 7.5 7.54 7.5 7.5-3.358 7.5-7.5-3.358-7.5-7.5-7.5z"/>
		<path d="m393.87 306.35l-65.42-54.517c-5.617-4.681-8.839-11.559-8.839-18.871 0-46.965-29.856-88.734-74.292-103.94l-235.39-80.531c-3.04-1.041-6.408-0.027-8.37 2.52-1.961 2.547-2.082 6.061-0.298 8.736l34.286 51.429c9.88 14.82 23.844 26.151 40.382 32.766l33.513 13.405 26.469 38.528c12.266 17.854 28.85 32.684 47.96 42.886l93.301 49.809h-69.269c-39.496 0-71.629 32.133-71.629 71.629v12.024c0 15.755-12.818 28.573-28.573 28.573s-28.573-12.818-28.573-28.573v-87.726c0-25.556-9.952-49.583-28.023-67.654l-16.914-16.915-0.088-0.088-21.298-21.298c-2.929-2.929-7.678-2.929-10.606 0-2.929 2.929-2.929 7.677 0 10.606l21.368 21.368c10.651 10.688 16.516 24.879 16.516 39.972v125.74c0 39.496 32.133 71.629 71.629 71.629s71.629-32.133 71.629-71.629v-8.016c0-11.301 7.673-20.838 18.082-23.69l-8.958 62.71c-0.215 1.51 0.034 3.05 0.717 4.415l18.621 37.243h-7.906c-4.142 0-7.5 3.358-7.5 7.5s3.358 7.5 7.5 7.5h20.025c7e-3 0 0.014 1e-3 0.021 1e-3 9e-3 0 0.017-1e-3 0.026-1e-3h3.976c1.876 0 3.684-0.703 5.067-1.971 3.01-2.758 8.05-6.045 14.974-6.045s11.964 3.288 14.974 6.045c1.439 1.319 3.255 1.971 5.065 1.971 2.029 0 4.052-0.819 5.531-2.433 2.799-3.054 2.592-7.798-0.462-10.596-7.027-6.44-15.944-9.987-25.107-9.987-7.185 0-14.218 2.182-20.308 6.228l-17.975-35.95 20.114-12.068c10.392-6.235 18.75-15.26 24.168-26.099l3.814-7.628 11.125 4.998c0.998 0.448 2.042 0.66 3.069 0.66 2.863 0 5.597-1.648 6.846-4.429 1.696-3.779 9e-3 -8.218-3.77-9.915l-10.558-4.743 6.213-12.426c1.853-3.705 0.351-8.21-3.354-10.062s-8.209-0.351-10.062 3.354l-16.741 33.482c-4.142 8.283-10.528 15.18-18.47 19.945l-12.557 7.534 8.888-62.214c2.278-15.947 16.144-27.973 32.253-27.973h54.588l43.392 23.165c1.125 0.601 2.334 0.885 3.526 0.885 2.68 0 5.272-1.44 6.623-3.969 1.951-3.654 0.57-8.198-3.084-10.148l-164.79-87.974c-16.999-9.075-31.75-22.266-42.661-38.148l-13.737-19.995 116.8 46.719c3.848 1.538 8.211-0.333 9.749-4.178 1.539-3.846-0.332-8.211-4.178-9.749l-175.41-70.164c-13.708-5.483-25.283-14.875-33.473-27.159l-22.003-33.005 214.44 73.362c38.369 13.126 64.148 49.191 64.148 89.744 0 11.777 5.189 22.855 14.236 30.395l65.42 54.517c1.402 1.168 3.104 1.739 4.797 1.739 2.148 0 4.282-0.919 5.766-2.699 2.652-3.182 2.222-7.911-0.96-10.563zm-190.2 22.536c-19.834 2.12-35.332 18.949-35.332 39.334v8.016c0 31.225-25.404 56.629-56.629 56.629s-56.629-25.404-56.629-56.629v-125.74c0-1.119-0.025-2.235-0.076-3.345 5.964 11.391 9.125 24.13 9.125 37.355v87.726c0 24.026 19.547 43.573 43.573 43.573s43.573-19.547 43.573-43.573v-12.024c0-31.225 25.404-56.629 56.629-56.629h8.212c-6.449 6.819-10.936 15.548-12.446 25.31z"/>
		<path d="m488.47 160.32h-12.926l-4.444-4.444c-7.473-7.473-17.409-11.588-27.977-11.588h-26.799c-4.705 0-8.532-3.828-8.532-8.532s3.828-8.532 8.532-8.532h8.016c4.142 0 7.5-3.358 7.5-7.5s-3.358-7.5-7.5-7.5h-8.016c-12.976 0-23.532 10.557-23.532 23.532 0 5.72 2.054 10.969 5.46 15.052-17.54 9.362-29.509 27.845-29.509 49.077v64.129c0 4.142 3.358 7.5 7.5 7.5s7.5-3.358 7.5-7.5v-64.129c0-22.385 18.212-40.597 40.597-40.597h18.783c6.562 0 12.73 2.555 17.37 7.195l6.641 6.641c1.406 1.406 3.314 2.197 5.303 2.197h16.032c4.705 0 8.532 3.828 8.532 8.532v8.532h-40.597c-12.976 0-23.532 10.556-23.532 23.532v8.532h-0.516c-9.125 0-16.548-7.424-16.548-16.548 0-4.142-3.358-7.5-7.5-7.5s-7.5 3.358-7.5 7.5c0 12.776 7.638 23.794 18.583 28.75-3.378 6.14-3.869 13.49-1.236 20.07l20.606 51.515c9.72 24.302 1.634 51.899-19.664 67.113l-3.289 2.349v-17.49c0-4.142-3.358-7.5-7.5-7.5s-7.5 3.358-7.5 7.5v38.007l-9.87-9.87c-4.64-4.64-7.195-10.809-7.195-17.37v-10.767c0-4.142-3.358-7.5-7.5-7.5s-7.5 3.358-7.5 7.5v10.767c0 4.787 0.853 9.44 2.471 13.798h-18.04c-10.232 0-20.161-2.107-29.483-6.25l-20.364-9.147c-3.779-1.698-8.218-0.01-9.915 3.768-1.697 3.779-0.01 8.218 3.768 9.915l20.391 9.159c11.28 5.013 23.258 7.555 35.603 7.555h27.979l12.46 12.46c4.64 4.64 7.195 10.809 7.195 17.37v19.299h-12.541c-4.142 0-7.5 3.358-7.5 7.5s3.358 7.5 7.5 7.5h24.048c1.876 0 3.684-0.703 5.067-1.971 3.009-2.758 8.049-6.045 14.973-6.045 6.923 0 11.963 3.288 14.973 6.045 1.44 1.319 3.255 1.971 5.065 1.971 2.029 0 4.052-0.819 5.531-2.433 2.798-3.054 2.592-7.798-0.462-10.597-7.027-6.44-15.944-9.987-25.107-9.987-5.749 0-11.399 1.402-16.548 4.032v-48.786l12.008-8.577c26.94-19.243 37.167-54.151 24.872-84.889l-20.606-51.515c-1.068-2.671-0.756-5.57 0.857-7.952 1.613-2.383 4.188-3.749 7.065-3.749h48.465c4.142 0 7.5-3.358 7.5-7.5s-3.358-7.5-7.5-7.5h-40.597v-8.532c0-4.705 3.828-8.532 8.532-8.532h32.581v0.516c0 4.142 3.358 7.5 7.5 7.5s7.5-3.358 7.5-7.5v-0.516h0.516c4.142 0 7.5-3.358 7.5-7.5v-16.032c2e-3 -12.976-10.555-23.533-23.53-23.533z"/>
</svg>
