<?xml version="1.0" encoding="UTF-8"?>
<?xml-stylesheet type="text/css" href="../../css/style.css" ?>
<svg enable-background="new 0 0 512 512" version="1.1" viewBox="0 0 512 512" xml:space="preserve" xmlns="http://www.w3.org/2000/svg">
		<path d="m344.18 48.097h-0.08c-4.142 0-7.46 3.358-7.46 7.5s3.398 7.5 7.54 7.5 7.5-3.358 7.5-7.5-3.358-7.5-7.5-7.5z"/>
		<path d="m380.25 160.32h-180.36c-13.545 0-24.564-11.02-24.564-24.565s11.02-24.564 24.564-24.564h103.44c6.711 5.081 15.03 8.016 23.884 8.016h57.051c4.142 0 7.5-3.358 7.5-7.5s-3.358-7.5-7.5-7.5h-40.597v-8.532c0-4.705 3.828-8.532 8.532-8.532h48.613v8.532c0 4.142 3.358 7.5 7.5 7.5s7.5-3.358 7.5-7.5v-28.967c0-14.777-10.056-27.418-24.455-30.741l-85.569-19.747c-4.035-0.93-8.063 1.585-8.995 5.622-0.931 4.036 1.585 8.063 5.622 8.995l85.569 19.747c7.553 1.743 12.828 8.374 12.828 16.125v5.434h-48.613c-12.976 0-23.532 10.557-23.532 23.532v8.532h-1.454c-10.59 0-19.955-6.75-23.304-16.796l-3.384-10.151c-1.31-3.93-5.559-6.054-9.487-4.744-3.93 1.31-6.053 5.558-4.744 9.487l3.384 10.151c0.462 1.387 1.001 2.732 1.601 4.037h-91.387c-21.816 0-39.564 17.749-39.564 39.565s17.749 39.564 39.564 39.564h180.36c46.696 0 84.686 37.99 84.686 84.686 0 46.695-37.99 84.685-84.686 84.685h-180.36c-74.857 0-135.76 60.901-135.76 135.76 0 9.125-7.423 16.548-16.548 16.548h-0.516v-24.564c0-84.267 68.556-152.82 152.82-152.82h176.36c30.656 0 55.597-24.94 55.597-55.597s-24.94-55.597-55.597-55.597h-16.036c-4.142 0-7.5 3.358-7.5 7.5s3.358 7.5 7.5 7.5h16.036c22.385 0 40.597 18.211 40.597 40.597s-18.211 40.597-40.597 40.597h-176.36c-92.538 0-167.82 75.285-167.82 167.82v32.064c0 4.142 3.358 7.5 7.5 7.5h8.016c17.396 0 31.548-14.152 31.548-31.548 0-66.586 54.172-120.76 120.76-120.76h180.36c54.967 0 99.686-44.719 99.686-99.686s-44.719-99.685-99.686-99.685z"/>
		<path d="m328.14 208.42h-132.27c-42.276 0-76.669-34.394-76.669-76.669s34.394-76.669 76.669-76.669h100.2c4.142 0 7.5-3.358 7.5-7.5s-3.358-7.5-7.5-7.5h-21.645l-54.157-38.684c-1.272-0.909-2.797-1.397-4.36-1.397h-16.032c-70.437 0-127.74 57.305-127.74 127.74v8.017c0 4.141 3.358 7.499 7.5 7.499h25.285c5.678 45.135 44.299 80.161 90.949 80.161h132.27c4.142 0 7.5-3.358 7.5-7.5s-3.358-7.5-7.5-7.5zm-128.26-193.42h13.629l35.113 25.081h-52.75c-0.632 0-1.261 0.011-1.89 0.024l-31.312-18.787c11.656-4.087 24.177-6.318 37.21-6.318zm-53.947 13.769l24.73 14.838c-17.482 5.007-32.84 15.088-44.378 28.539h-24.455c10.376-18.229 25.686-33.299 44.103-43.377zm-41.658 99.489h-17.137v-0.516c0-14.305 2.684-27.994 7.565-40.597h21.109c-6.855 12.255-10.976 26.235-11.537 41.113z"/>
</svg>
