<?xml version="1.0" encoding="UTF-8"?>
<?xml-stylesheet type="text/css" href="../../css/style.css" ?>
<svg enable-background="new 0 0 512.001 512.001" version="1.1" viewBox="0 0 512.001 512.001" xml:space="preserve" xmlns="http://www.w3.org/2000/svg">
		<path d="m488.47 104.21h-12.926l-4.444-4.444c-7.474-7.473-17.409-11.588-27.977-11.588h-98.944c-4.142 0-7.5 3.358-7.5 7.5s3.358 7.5 7.5 7.5h98.944c6.561 0 12.73 2.555 17.37 7.195l6.641 6.641c1.406 1.407 3.314 2.197 5.303 2.197h16.032c4.705 0 8.532 3.828 8.532 8.532v8.533h-40.597c-12.976 0-23.532 10.557-23.532 23.532v0.516h-0.516c-9.125 0-16.548-7.423-16.548-16.548 0-4.142-3.358-7.5-7.5-7.5s-7.5 3.358-7.5 7.5c0 5.489 1.412 10.653 3.887 15.153-7.599 5.882-12.229 15.001-12.229 24.928v171.84c0 11.873-3.647 23.254-10.548 32.915l-14.532 20.345v-40.725c0-4.142-3.358-7.5-7.5-7.5s-7.5 3.358-7.5 7.5v16.539c-8.561-0.097-16.595-3.469-22.659-9.533l-8.586-8.585c-8.987-8.987-20.936-13.937-33.645-13.937h-7.962v-16.548c0-4.142-3.358-7.5-7.5-7.5s-7.5 3.358-7.5 7.5v50.848c0 6.363-2.409 12.353-6.787 16.941l-27.923-43.878c-4.184-6.574-6.378-14.167-6.347-21.959l0.073-17.952c0.017-4.142-3.328-7.513-7.47-7.53h-0.031c-4.128 0-7.483 3.338-7.5 7.47l-0.067 16.577h-8.594c-30.656 0-55.597 24.941-55.597 55.597 0 35.646-29 64.645-64.646 64.645s-64.645-29-64.645-64.645v-75.761c5.91 10.819 9.048 23.008 9.048 35.68v40.081c0 26.236 21.345 47.581 47.581 47.581s47.581-21.345 47.581-47.581c0-57.746 46.98-104.73 104.73-104.73h80.161c2.962 0 5.647-1.744 6.852-4.451s0.703-5.869-1.28-8.069c-32.947-36.568-68.252-47.792-92.067-50.77-6.421-0.803-12.357-1.065-17.682-1.008l96.677-79.617v41.279c0 16.447 4.607 32.513 13.325 46.46l17.197 27.515c2.881 4.61 7.831 7.298 13.115 7.298 0.936 0 1.882-0.084 2.83-0.257 6.294-1.149 11.173-5.946 12.428-12.221l24.899-124.49c0.812-4.062-1.822-8.013-5.884-8.825-4.065-0.812-8.012 1.822-8.825 5.884l-24.899 124.49c-0.037 0.184-0.068 0.343-0.413 0.406-0.345 0.064-0.43-0.075-0.53-0.234l-17.197-27.515c-7.225-11.561-11.044-24.877-11.044-38.51v-52.11l6.161 2.053c3.928 1.311 8.176-0.814 9.487-4.744 1.31-3.93-0.814-8.177-4.744-9.487l-312.63-104.21c-3.583-1.194-7.495 0.462-9.131 3.866s-0.486 7.494 2.686 9.546c0.874 0.566 84.544 55.343 94.056 114.2l-2.665 0.307c-4.115 0.475-7.065 4.195-6.591 8.311 0.441 3.823 3.684 6.641 7.441 6.641 0.287 0 0.577-0.016 0.869-0.05l10.588-1.222c53.778 16.558 59.594 60.648 60.166 72.67l-4.236 3.489c-3.197 2.633-3.655 7.36-1.021 10.558 1.483 1.801 3.63 2.732 5.794 2.732 1.678 0 3.367-0.561 4.763-1.71l6.173-5.084c4.753-1.14 18.998-3.893 37.694-1.439 25.459 3.341 48.803 14.527 69.596 33.313h-62.118c-66.017 0-119.73 53.709-119.73 119.73 0 17.965-14.616 32.581-32.581 32.581s-32.581-14.616-32.581-32.581v-40.081c0-22.867-8.528-44.412-24.048-61.046v-11.099c0-4.142-3.358-7.5-7.5-7.5s-7.5 3.358-7.5 7.5v112.23c0 43.917 35.729 79.645 79.645 79.645s79.646-35.729 79.646-79.646c0-22.385 18.211-40.597 40.597-40.597h10.226c1.438 5.794 3.808 11.345 7.055 16.448l29.72 46.703-26.88 26.88c-7.473 7.473-11.588 17.408-11.588 27.977v11.283h-12.542c-4.142 0-7.5 3.358-7.5 7.5s3.358 7.5 7.5 7.5h24.048c1.876 0 3.684-0.703 5.067-1.97 3.01-2.758 8.051-6.046 14.974-6.046s11.964 3.288 14.974 6.046c1.44 1.319 3.255 1.97 5.065 1.97 2.029 0 4.053-0.819 5.532-2.433 2.798-3.054 2.591-7.798-0.463-10.597-7.028-6.44-15.945-9.986-25.107-9.986-5.749 0-11.399 1.401-16.548 4.032v-7.3c0-6.562 2.555-12.73 7.195-17.37l37.33-37.33c7.473-7.473 11.588-17.408 11.588-27.976v-19.299h7.962c8.702 0 16.884 3.389 23.038 9.543l8.586 8.585c8.897 8.897 20.698 13.829 33.266 13.927v81.203h-12.541c-4.142 0-7.5 3.358-7.5 7.5s3.358 7.5 7.5 7.5h24.048c1.876 0 3.684-0.703 5.067-1.97 3.01-2.758 8.051-6.046 14.974-6.046s11.963 3.288 14.973 6.045c1.439 1.319 3.255 1.971 5.065 1.971 2.029 0 4.052-0.819 5.531-2.433 2.799-3.054 2.592-7.798-0.462-10.596-7.027-6.44-15.944-9.987-25.107-9.987-5.749 0-11.399 1.401-16.548 4.032v-24.078c0-11.872 3.647-23.254 10.548-32.915l16.19-22.667c8.729-12.219 13.342-26.616 13.342-41.633v-171.83c0-5.641 2.848-10.787 7.442-13.812 5.001 3.333 11 5.28 17.448 5.28h48.097c0.285 0 0.516 0.231 0.516 0.516 0 4.142 3.358 7.5 7.5 7.5s7.5-3.358 7.5-7.5c0-8.556-6.96-15.516-15.516-15.516h-32.581v-0.516c0-4.705 3.828-8.532 8.532-8.532h48.097c4.142 0 7.5-3.358 7.5-7.5v-16.033c-1e-3 -12.976-10.558-23.532-23.533-23.532zm-314.56 91.976c-5.935-13.204-16.973-29.407-37.384-41.559l72.238-8.335c4.115-0.475 7.065-4.195 6.591-8.311-0.475-4.115-4.192-7.067-8.311-6.591l-94.665 10.923c-5.976-38.699-38.551-74.349-65.113-97.619l234.29 78.098-42.461 4.899c-4.115 0.475-7.065 4.195-6.591 8.311 0.441 3.823 3.684 6.641 7.441 6.641 0.287 0 0.577-0.016 0.869-0.05l38.893-4.488-98.704 81.286c-1.138-6.51-3.236-14.614-7.097-23.205z"/>
		<path d="m448.47 112.23h-0.08c-4.142 0-7.46 3.358-7.46 7.5s3.398 7.5 7.54 7.5 7.5-3.358 7.5-7.5-3.358-7.5-7.5-7.5z"/>
</svg>
