<?xml version="1.0" encoding="UTF-8"?>
<?xml-stylesheet type="text/css" href="../../css/style.css" ?>
<svg enable-background="new 0 0 512 512" version="1.1" viewBox="0 0 512 512" xml:space="preserve" xmlns="http://www.w3.org/2000/svg">
		<path d="m465.03 197.9l-3.32-3.32c-2.93-2.93-7.678-2.929-10.607 0s-2.929 7.677 0 10.607l3.321 3.32c1.611 1.611 2.499 3.754 2.499 6.033v1.375c0 21.419-16.677 39.005-37.728 40.484 2.935-4.79 4.631-10.418 4.631-16.436 0-4.142-3.358-7.5-7.5-7.5s-7.5 3.358-7.5 7.5c0 9.125-7.423 16.548-16.548 16.548h-190.05c-9.125 0-16.548-7.423-16.548-16.548s7.423-16.548 16.548-16.548h72.873c5.58 4.981 12.932 8.016 20.983 8.016h48.097c0.285 0 0.516 0.231 0.516 0.516 0 4.142 3.358 7.5 7.5 7.5s7.5-3.358 7.5-7.5c0-8.556-6.96-15.516-15.516-15.516h-24.564v-8.532c0-0.285 0.231-0.516 0.516-0.516h32.064c8.556 0 15.516-6.96 15.516-15.516v-73.521c0-6.286-2.448-12.195-6.893-16.641l-3.321-3.32c-2.929-2.929-7.678-2.928-10.606 1e-3s-2.928 7.678 1e-3 10.606l3.32 3.32c1.612 1.612 2.499 3.754 2.499 6.034v1.375c0 21.42-16.677 39.006-37.728 40.484 2.935-4.79 4.631-10.418 4.631-16.436 0-4.143-3.358-7.5-7.5-7.5s-7.5 3.357-7.5 7.5c0 9.125-7.423 16.548-16.548 16.548h-168.34c-9.125 0-16.548-7.423-16.548-16.548s7.423-16.549 16.548-16.549h51.163c5.58 4.981 12.932 8.017 20.983 8.017h48.097c0.285 0 0.516 0.231 0.516 0.516 0 4.143 3.358 7.5 7.5 7.5s7.5-3.357 7.5-7.5c0-8.556-6.96-15.516-15.516-15.516h-24.564v-8.532c0-0.285 0.231-0.517 0.516-0.517h32.064c8.556 0 15.516-6.96 15.516-15.516v-73.519c0-6.286-2.448-12.196-6.893-16.64l-3.32-3.32c-2.929-2.929-7.678-2.929-10.606 0-2.929 2.929-2.929 7.677 0 10.606l3.32 3.321c1.611 1.611 2.499 3.754 2.499 6.033v1.375c0 21.42-16.678 39.006-37.728 40.484 2.936-4.79 4.631-10.418 4.631-16.436 0-4.142-3.358-7.5-7.5-7.5s-7.5 3.358-7.5 7.5c0 9.125-7.423 16.548-16.548 16.548h-68.137c-41.707 0-75.637 33.931-75.637 75.637 0 36.717 26.198 68.033 62.293 74.462 0.445 0.08 0.887 0.118 1.324 0.118 3.565 0 6.728-2.553 7.375-6.186 0.727-4.078-1.991-7.973-6.068-8.699-28.928-5.152-49.924-30.258-49.924-59.695 0-33.435 27.202-60.637 60.637-60.637h4.524v33.097h-0.516c-17.396 0-31.548 14.153-31.548 31.549s14.152 31.548 31.548 31.548h33.33c-18.485 13.803-30.476 35.846-30.476 60.638 0 41.706 33.931 75.637 75.637 75.637h57.782c17.965 0 32.581 14.616 32.581 32.581s-14.616 32.58-32.581 32.58h-8.017c-4.142 0-7.5 3.358-7.5 7.5 0 4.143 3.358 7.5 7.5 7.5h8.017c26.236 0 47.581-21.344 47.581-47.58s-21.345-47.581-47.581-47.581h-57.783c-33.435 0-60.637-27.202-60.637-60.637 0-33.436 27.202-60.638 60.637-60.638h2.187v33.154c-16.551 0.947-29.727 14.708-29.727 31.492 0 17.396 14.152 31.548 31.548 31.548h57.783c37.855 0 68.653 30.798 68.653 68.653s-30.797 68.653-68.653 68.653h-132.27c-30.656 0-55.597 24.941-55.597 55.597v8.016c0 10.931-7.176 20.217-17.064 23.394v-31.41c0-40.066 32.596-72.662 72.661-72.662h88.178c4.142 0 7.5-3.357 7.5-7.5 0-4.142-3.358-7.5-7.5-7.5h-88.178c-48.336 0-87.661 39.325-87.661 87.662v40.081c0 4.142 3.358 7.5 7.5 7.5 21.816 0 39.564-17.749 39.564-39.564v-8.016c0-22.385 18.211-40.597 40.597-40.597h132.27c46.126 0 83.653-37.526 83.653-83.653 0-7.091-0.894-13.976-2.563-20.556h38.209c5.58 4.98 12.932 8.016 20.983 8.016h48.097c0.285 0 0.516 0.231 0.516 0.516 0 4.142 3.358 7.5 7.5 7.5s7.5-3.358 7.5-7.5c0-8.556-6.96-15.516-15.516-15.516h-24.564v-8.532c0-0.285 0.231-0.516 0.516-0.516h32.064c8.556 0 15.516-6.96 15.516-15.516v-73.521c-1e-3 -6.287-2.448-12.196-6.893-16.641zm-168.43-22.582v0.517c0 4.142 3.358 7.5 7.5 7.5s7.5-3.358 7.5-7.5v-0.517h0.516c16.005 0 30.443-6.807 40.597-17.668v34.217c0 0.285-0.231 0.516-0.516 0.516h-32.064c-8.556 0-15.516 6.96-15.516 15.516v8.532h-8.532c-9.125 0-16.548-7.424-16.548-16.548 0-4.142-3.358-7.5-7.5-7.5s-7.5 3.358-7.5 7.5c0 2.957 0.418 5.816 1.182 8.532h-18.246v-33.097h49.127zm-81.194 0h17.064v33.097h-17.064v-33.097zm-23.015-96.193v0.517c0 4.142 3.358 7.5 7.5 7.5s7.5-3.358 7.5-7.5v-0.517h0.516c16.005 0 30.443-6.807 40.597-17.668v34.217c0 0.284-0.231 0.516-0.516 0.516h-32.064c-8.556 0-15.516 6.961-15.516 15.517v8.532h-8.532c-9.125 0-16.548-7.424-16.548-16.549 0-4.142-3.358-7.5-7.5-7.5s-7.5 3.358-7.5 7.5c0 2.957 0.418 5.816 1.182 8.532h-26.263v-33.097h57.144zm144.29 225.48h-0.97c-6.288-13.333-15.995-24.739-27.985-33.097h28.955v33.097zm120.24-16.548c0 0.285-0.231 0.516-0.516 0.516h-32.064c-8.556 0-15.516 6.96-15.516 15.516v8.532h-8.532c-9.125 0-16.549-7.424-16.549-16.548 0-4.142-3.358-7.5-7.5-7.5s-7.5 3.358-7.5 7.5c0 2.957 0.418 5.816 1.182 8.533h-18.247v-33.097h49.129v0.516c0 4.142 3.358 7.5 7.5 7.5s7.5-3.358 7.5-7.5v-0.516h0.516c16.005 0 30.443-6.808 40.597-17.668v34.216z"/>
</svg>
