<?xml version="1.0" encoding="UTF-8"?>
<?xml-stylesheet type="text/css" href="../../css/style.css" ?>
<svg enable-background="new 0 0 512 512" version="1.1" viewBox="0 0 512 512" xml:space="preserve" xmlns="http://www.w3.org/2000/svg">
		<path d="m368.3 48.097h-0.081c-4.142 0-7.46 3.358-7.46 7.5s3.398 7.5 7.541 7.5 7.5-3.358 7.5-7.5-3.358-7.5-7.5-7.5z"/>
		<path d="m461.47 274.52c-7.028-6.44-15.945-9.987-25.107-9.987-6.808 0-13.477 1.964-19.338 5.611l-12.403-12.403c-5.779-5.778-13.405-9.029-21.545-9.222-5.716-49.574-47.939-88.196-99.019-88.196h-52.105c-9.905 0-18.453-5.896-22.336-14.36 3.215-1.766 6.732-2.705 10.311-2.705 6.923 0 11.964 3.288 14.973 6.045 1.44 1.32 3.255 1.971 5.065 1.971 2.029 0 4.052-0.819 5.531-2.433 2.798-3.054 2.592-7.798-0.462-10.596-7.027-6.44-15.944-9.987-25.108-9.987-4.081 0-8.094 0.715-11.925 2.058 2.484-10.934 12.275-19.123 23.949-19.123h94.359c7.763 5.214 16.892 8.016 26.453 8.016h71.576c4.142 0 7.5-3.358 7.5-7.5s-3.358-7.5-7.5-7.5h-48.613v-8.532c0-4.705 3.828-8.532 8.533-8.532h40.597v0.516c0 4.142 3.358 7.5 7.5 7.5s7.5-3.358 7.5-7.5v-0.516h0.516c4.142 0 7.5-3.358 7.5-7.5v-16.031c0-12.976-10.557-23.532-23.532-23.532h-20.942l-12.46-12.46c-7.472-7.473-17.408-11.588-27.976-11.588h-34.815c-4.142 0-7.5 3.358-7.5 7.5s3.358 7.5 7.5 7.5h34.815c6.562 0 12.73 2.555 17.37 7.195l14.657 14.657c1.407 1.406 3.314 2.197 5.303 2.197h24.048c4.705 0 8.532 3.828 8.532 8.532v8.532h-48.613c-12.976 0-23.533 10.556-23.533 23.532v8.532h-7.962c-8.703 0-16.884-3.389-23.038-9.543l-20.326-20.325c-2.929-2.929-7.678-2.929-10.606 0-2.929 2.929-2.929 7.678 0 10.606l11.245 11.245h-30.506v-41.112h30.233c7.558 5.059 16.637 8.016 26.396 8.016 4.142 0 7.5-3.358 7.5-7.5s-3.358-7.5-7.5-7.5c-17.965 0-32.581-14.615-32.581-32.581v-8.016c0-4.142-3.358-7.5-7.5-7.5s-7.5 3.358-7.5 7.5v8.016c0 8.982 2.504 17.389 6.847 24.564h-7.363c-9.125 0-16.548-7.424-16.548-16.548 0-4.142-3.358-7.5-7.5-7.5s-7.5 3.358-7.5 7.5c0 6.065 1.725 11.734 4.703 16.548h-33.276c-43.847 0-80.597 30.948-89.569 72.145h-8.687c-8.427 0-16.349 3.281-22.308 9.24l-12.403 12.403c-5.862-3.647-12.531-5.611-19.339-5.611-9.163 0-18.08 3.547-25.107 9.987-3.054 2.798-3.261 7.543-0.462 10.596 1.479 1.615 3.501 2.433 5.531 2.433 1.81 0 3.625-0.651 5.065-1.97 3.01-2.758 8.051-6.046 14.974-6.046s11.963 3.288 14.973 6.045c1.383 1.268 3.191 1.971 5.067 1.971h16.032c4.142 0 7.5-3.358 7.5-7.5 0-3.507-2.41-6.443-5.662-7.264l4.438-4.438c3.126-3.126 7.282-4.847 11.702-4.847h6.7c-0.073 1.499-0.112 3.007-0.112 4.524 0 50.547 41.123 91.669 91.669 91.669h4.005c4.142 0 7.5-3.358 7.5-7.5s-3.358-7.5-7.5-7.5h-4.005c-3.622 0-7.18-0.271-10.669-0.759l11.933-32.444c0.908 0.062 1.821 0.106 2.744 0.106h24.564v40.057c0 5.898 4.485 8.04 7.5 8.04h16.032c16.892 0 31.401 10.373 37.508 25.081h-17.193c-8.427 0-16.35 3.282-22.308 9.24l-12.403 12.403c-5.862-3.648-12.531-5.611-19.338-5.611-9.163 0-18.079 3.547-25.107 9.987-3.054 2.798-3.261 7.542-0.463 10.596 1.479 1.614 3.502 2.433 5.532 2.433 1.81 0 3.625-0.651 5.065-1.97 3.01-2.758 8.051-6.046 14.974-6.046s11.963 3.288 14.973 6.045c1.383 1.268 3.191 1.971 5.067 1.971h16.032c4.142 0 7.5-3.358 7.5-7.5 0-3.507-2.41-6.443-5.662-7.264l4.438-4.438c3.125-3.126 7.281-4.847 11.702-4.847h20.268c2e-3 0.173 0.013 0.343 0.013 0.516 0 22.385-18.211 40.597-40.597 40.597-66.017 0-119.73 53.709-119.73 119.73v80.164c0 4.142 3.358 7.5 7.5 7.5h8.016c17.396 0 31.548-14.152 31.548-31.548v-48.097c0-40.066 32.596-72.661 72.661-72.661h4.008c53.775 0 97.734-42.803 99.615-96.127 3.907 0.316 7.54 1.978 10.343 4.781l4.438 4.438c-3.252 0.821-5.662 3.757-5.662 7.264 0 4.142 3.358 7.5 7.5 7.5h16.032c1.876 0 3.684-0.703 5.067-1.971 3.01-2.758 8.05-6.045 14.973-6.045 6.922 0 11.964 3.288 14.974 6.046 1.44 1.319 3.255 1.97 5.065 1.97 2.029 0 4.053-0.819 5.532-2.433 2.797-3.056 2.589-7.8-0.465-10.598zm-233.53-219.44h36.589v41.113h-32.581c-1.16 0-2.306 0.061-3.442 0.159l-14.632-39.956c4.563-0.85 9.26-1.316 14.066-1.316zm-28.501 5.515l14.61 39.896c-5.392 2.748-10.078 6.689-13.696 11.484l-41.334-13.778c8.316-17.014 22.752-30.499 40.42-37.602zm-48.168 71.154c0-6.731 0.879-13.259 2.516-19.484l39.931 13.31c-0.866 3.251-1.335 6.662-1.335 10.182s0.468 6.931 1.335 10.182l-37.63 12.543c-3.108-8.328-4.817-17.334-4.817-26.733zm51.328 72.346c-16.64-5.846-30.669-17.27-39.832-32.028l37.586-12.528c3.753 4.973 8.65 9.035 14.297 11.792l-12.051 32.764zm99.633 8.955c-6.801-2.972-14.302-4.632-22.186-4.632h-8.533v-33.097h12.541c12.765 0 24.87 2.855 35.735 7.935l-17.557 29.794zm12.81 7.806l17.716-30.064c15.315 10.81 26.899 26.554 32.41 44.912l-33.403 7.953c-3.544-8.973-9.35-16.811-16.723-22.801zm-122.66 259.6c0 9.124-7.423 16.548-16.548 16.548h-0.516v-49.129h17.064v32.581zm0-48.097v0.516h-17.064v-8.533c0-13.375 2.524-26.171 7.115-37.941l17.644 10.053c-4.942 10.964-7.695 23.119-7.695 35.905zm15.009-49.002l-18.494-10.537c7.88-13.885 18.839-25.8 31.944-34.814l11.594 20.781c-9.902 6.429-18.433 14.799-25.044 24.57zm76.659-38.66h-4.007v1e-3c-12.194 0-23.813 2.506-34.374 7.024l-11.891-21.314c13.96-6.903 29.665-10.792 46.264-10.792 0.54 0 1.073-0.025 1.61-0.041l3.995 25.081c-0.533 0.01-1.061 0.041-1.597 0.041zm16.534-1.631l-4.129-25.924c9.939-3.077 18.685-8.88 25.385-16.521l23.666 17.566c-11.832 12.492-27.406 21.398-44.922 24.879zm54.247-36.637l-24.684-18.322c3.519-7.291 5.493-15.462 5.493-24.086 0-1.955-0.104-3.886-0.302-5.79l32.839-7.819c0.358 3.153 0.56 6.353 0.56 9.6 0 17.129-5.128 33.076-13.906 46.417z"/>
</svg>
