<?xml version="1.0" encoding="UTF-8"?>
<?xml-stylesheet type="text/css" href="../../css/style.css" ?>
<svg enable-background="new 0 0 512 512" version="1.1" viewBox="0 0 512 512" xml:space="preserve" xmlns="http://www.w3.org/2000/svg">
		<path d="m380.25 160.32h-180.36c-13.545 0-24.564-11.02-24.564-24.565s11.02-24.564 24.564-24.564h112.23c0.065 0 0.129-8e-3 0.193-0.01 6.637 5.033 14.902 8.026 23.855 8.026h48.097c4.142 0 7.5-3.358 7.5-7.5s-3.358-7.5-7.5-7.5h-40.597v-8.532c0-4.705 3.828-8.532 8.532-8.532h48.097c4.142 0 7.5-3.358 7.5-7.5v-16.033c0-12.976-10.557-23.532-23.532-23.532h-77.055l-28.492-28.492c-7.473-7.474-17.408-11.589-27.977-11.589h-42.831c-30.106 0-58.623 9.651-82.467 27.91-23.081 17.674-40.161 42.721-48.095 70.528-3.013 10.561-0.909 21.696 5.773 30.552 5.433 7.201 13.128 11.951 21.74 13.606 5.383 45.453 44.148 80.823 91.025 80.823h100.2c4.142 0 7.5-3.358 7.5-7.5s-3.358-7.5-7.5-7.5h-100.2c-42.276 0-76.669-34.394-76.669-76.669s34.394-76.669 76.669-76.669h140.78c-0.012 0.171-0.026 0.342-0.026 0.516 0 4.142 3.398 7.5 7.54 7.5s7.5-3.358 7.5-7.5c0-0.174-0.014-0.345-0.026-0.516h32.607c4.705 0 8.532 3.828 8.532 8.532v8.532h-40.597c-12.976 0-23.532 10.557-23.532 23.532v7.357c-9.887-3.178-17.064-12.46-17.064-23.389v-0.012c0-4.142-3.358-7.494-7.5-7.494s-7.5 3.364-7.5 7.506c0 5.906 1.31 11.51 3.641 16.548h-100.35c-21.816 0-39.564 17.749-39.564 39.565s17.749 39.564 39.564 39.564h148.3c46.696 0 84.686 37.99 84.686 84.686 0 46.695-37.99 84.685-84.686 84.685h-148.3c-74.857 0-135.76 60.901-135.76 135.76 0 9.125-7.423 16.548-16.548 16.548h-0.516v-24.564c0-84.267 68.556-152.82 152.82-152.82h144.29c30.656 0 55.597-24.94 55.597-55.597s-24.941-55.597-55.597-55.597h-16.036c-4.142 0-7.5 3.358-7.5 7.5s3.358 7.5 7.5 7.5h16.036c22.385 0 40.597 18.211 40.597 40.597s-18.212 40.597-40.597 40.597h-109.12l-19.806-19.806c-8.41-8.411-19.883-12.601-31.483-11.495-41.356 3.943-79.631 23.068-107.78 53.854-28.329 30.987-43.93 71.19-43.93 113.2v64.13c0 4.142 3.358 7.5 7.5 7.5h8.016c17.396 0 31.548-14.152 31.548-31.548 0-66.586 54.172-120.76 120.76-120.76h180.36c54.967 0 99.686-44.719 99.686-99.686 0-54.966-44.719-99.685-99.686-99.685zm-275.91-33.408c-3.618-1.368-6.82-3.743-9.248-6.959-3.822-5.065-5.033-11.408-3.323-17.402 0.711-2.493 1.527-4.953 2.401-7.393h17.67c-4.29 9.815-6.913 20.519-7.5 31.754zm15.808-46.754h-19.435c7.039-13.501 16.642-25.675 28.197-35.702l15.431 11.524c-9.493 6.478-17.71 14.69-24.193 24.178zm75.735-40.08c-13.236 0-25.823 2.824-37.197 7.894l-17.355-12.961c14.238-9.451 30.082-15.688 46.813-18.421l14.389 23.488h-6.65zm24.241 0l-15.327-25.018c1.036-0.026 2.069-0.062 3.109-0.062h42.832v-1e-3c6.562 0 12.73 2.555 17.37 7.195l17.886 17.886h-65.87zm-34.927 248.16c7.123-0.684 14.217 1.933 19.453 7.168l9.199 9.199h-13.958c-12.037 0-23.778 1.285-35.104 3.705l-16.1-11.972c11.701-4.157 23.948-6.902 36.51-8.1zm-52.556 14.861l13.776 10.244c-12.859 4.334-25.023 10.189-36.284 17.345l-10.925-5.292c10.174-8.923 21.418-16.403 33.433-22.297zm-45.572 34.181c0.233-0.255 0.472-0.502 0.706-0.755l8.39 4.064c-14.648 11.549-27.332 25.483-37.462 41.21 6.729-16.221 16.274-31.292 28.366-44.519zm364.63-122.66c7.779 12.206 12.522 26.519 13.149 41.883h-17.043v1e-3c-0.44-12.712-3.27-24.827-8.057-35.908l11.951-5.976zm-18.923-7.307c-6.698-10.716-15.373-20.074-25.513-27.559 13.557 4.576 25.587 12.484 35.106 22.762l-9.593 4.797zm-25.513 132.92c10.14-7.485 18.814-16.843 25.513-27.559l9.593 4.797c-9.518 10.279-21.549 18.186-35.106 22.762zm44.437-34.867l-11.951-5.976c3.77-8.727 6.325-18.095 7.456-27.891h16.93c-1.683 12.327-6.026 23.812-12.435 33.867z"/>
</svg>
