<?xml version="1.0" encoding="UTF-8"?>
<?xml-stylesheet type="text/css" href="../../css/style.css" ?>
<svg enable-background="new 0 0 512.003 512.003" version="1.1" viewBox="0 0 512.003 512.003" xml:space="preserve" xmlns="http://www.w3.org/2000/svg">
		<path d="m392.38 48.028h-0.08c-4.143 0-7.461 3.358-7.461 7.501s3.398 7.501 7.541 7.501 7.501-3.358 7.501-7.501-3.358-7.501-7.501-7.501z"/>
		<path d="m448.42 40.011h-20.945l-12.462-12.462c-2.199-2.199-4.617-4.1-7.195-5.698v-6.094c0-4.108-3.164-7.689-7.27-7.812-4.248-0.128-7.732 3.279-7.732 7.498v0.935c-1.898-0.276-3.83-0.419-5.783-0.419h-7.662l-13.614-13.614c-2.904-2.904-7.675-3.199-10.666-0.384-3.094 2.913-3.149 7.785-0.166 10.769l3.229 3.229h-6.433c-6.114 0-12.167 0.89-17.981 2.603l-18.06-9.724c-3.929-2.116-8.906-0.37-10.568 3.935-1.374 3.56 0.319 7.586 3.679 9.395l7.885 4.246-11.117 6.669c-7.557 4.534-16.204 6.929-25.017 6.929h-49.808c-38.832 0-72.589 23.239-87.015 56.121h-52.07c-9.932 0-19.284 4.676-25.243 12.622l-14.586 19.448h-3.953c-4.108 0-7.689 3.164-7.812 7.27-0.128 4.248 3.279 7.732 7.498 7.732h36.078c9.878 0 19.315-4.719 25.243-12.622l14.586-19.448h15.216c-1.419 5.936-2.237 12.086-2.385 18.389-0.015 0.197-0.03 0.394-0.03 0.594 0 0.158 0.01 0.313 0.012 0.471-0.293 24.623 9.028 47.824 26.295 65.385 17.486 17.783 41.645 27.404 66.584 27.404h50.591c4.108 0 7.689-3.164 7.812-7.27 0.128-4.248-3.279-7.732-7.498-7.732h-51.085c-19.446 0-38.399-6.937-52.746-20.063-5.668-5.186-10.414-11.063-14.214-17.428 5.882 2.811 12.462 4.39 19.405 4.39h129.7c20.65 0 40.586 8.33 54.557 23.536 13.539 14.737 20.272 33.878 18.97 53.987-2.461 38.03-35.52 67.82-75.261 67.82h-53.375c-22.027 0-41.762 9.991-54.915 25.682 6.209-24.538 28.475-42.748 54.915-42.748h56.121c13.378 0 26.215-5.68 35.219-15.584 8.997-9.896 13.424-23.255 12.147-36.653-2.286-23.978-23.682-42.782-48.776-42.936-3.873-0.024-7.329 2.778-7.763 6.627-0.512 4.534 3.021 8.375 7.452 8.375 9.085 0 17.476 3.45 23.687 9.049h-58.042c-9.931 0-19.284 4.676-25.243 12.622l-16.703 22.271c-1.361 1.815-1.963 4.14-1.447 6.349 0.817 3.496 3.889 5.831 7.315 5.831h28.061c9.931 0 19.283-4.676 25.242-12.621l14.586-19.448h35.692c0.486 1.718 0.832 3.49 1.006 5.308 0.891 9.344-2.067 18.28-8.33 25.158-6.306 6.925-15.393 10.654-24.76 10.654h-55.462c-39.566 0-71.64 32.074-71.64 71.64v32.899c0 3.189-0.953 6.306-2.737 8.95l-24.041 35.631c-1.45 2.149-1.687 4.896-0.627 7.262l27.972 62.436c0.973 2.171 2.845 3.875 5.161 4.424 3.615 0.857 7.173-0.995 8.62-4.226l28.06-62.635c1.06-2.366 0.823-5.113-0.627-7.262l-24.041-35.631c-1.784-2.644-2.737-5.761-2.737-8.95v-0.83c0-31.281 25.358-56.637 56.637-56.637h53.375c45.059 0 82.943-32.189 89.415-74.528l4.34 5.787c5.959 7.945 15.309 12.621 25.241 12.621h27.845c2.286 0 4.524-0.931 5.979-2.693 2.27-2.748 2.284-6.581 0.239-9.308l-16.837-22.448c-5.959-7.945-15.311-12.622-25.243-12.622h-21.911c-2.9-16.396-10.425-31.595-22.059-44.123-16.831-18.122-40.717-28.033-65.449-28.033h-129.52c-16.419 0-29.806-13.194-30.138-29.535 2e-3 -0.161-6e-3 -0.321-3e-3 -0.482 0.76-41.488 36.404-75.241 79.46-75.241h49.808c11.532 0 22.847-3.133 32.736-9.066l13.43-8.057c7.556-4.533 16.201-6.928 25.013-6.928h35.31c6.516 0 12.765 2.588 17.373 7.196l14.659 14.659c1.407 1.407 3.314 2.197 5.305 2.197h24.052c4.713 0 8.533 3.821 8.533 8.533v8.533h-64.655c-12.999 0-23.536 10.538-23.536 23.536v8.532c-8.684-0.014-16.845-3.401-22.987-9.542l-20.105-20.105c-2.904-2.904-7.675-3.199-10.666-0.384-3.094 2.913-3.149 7.785-0.166 10.769l11.247 11.247h-78.099c-11.125 0-21.798 4.723-29.285 12.958-7.481 8.229-11.164 19.337-10.102 30.475 0.37 3.883 3.637 6.79 7.459 6.79 0.238 0 0.479-0.011 0.721-0.034 4.125-0.394 7.148-4.056 6.755-8.179-0.671-7.042 1.554-13.775 6.267-18.959 0.807-0.887 1.676-1.704 2.593-2.456l10.393 13.856c5.959 7.945 15.311 12.622 25.243 12.622h35.763c4.108 0 7.689-3.164 7.812-7.27 0.128-4.248-3.279-7.732-7.498-7.732h-4.267l-12.801-17.068h55.319c7.764 5.214 16.894 8.017 26.457 8.017h79.289c4.108 0 7.689-3.164 7.812-7.27 0.128-4.248-3.279-7.732-7.498-7.732h-64.656v-8.533c0-4.713 3.821-8.533 8.533-8.533h56.637v0.202c0 4.108 3.164 7.689 7.27 7.812 4.248 0.128 7.732-3.279 7.732-7.498v-0.516h0.516c4.143 0 7.501-3.358 7.501-7.501v-16.044c-1e-3 -12.998-10.538-23.536-23.537-23.536zm-351.55 81.57c-3.109 4.146-8.059 6.621-13.241 6.621h-13.058l7.835-10.447c3.109-4.146 8.059-6.621 13.241-6.621h13.059l-7.836 10.447zm184.4 136.29c-3.108 4.146-8.059 6.62-13.24 6.62h-13.059l7.835-10.447c3.109-4.146 8.059-6.62 13.241-6.62h13.058l-7.835 10.447zm-69.895 184.73l-19.51 43.549-19.51-43.549 12.009-17.8v7.54c0 4.143 3.359 7.501 7.501 7.501 4.143 0 7.501-3.358 7.501-7.501v-7.539l12.009 17.799zm208.98-195.17c5.182 0 10.131 2.475 13.241 6.62l7.835 10.447h-13.059c-5.182 0-10.131-2.475-13.241-6.62l-7.835-10.447h13.059zm-152.33-119.23c-5.182 0-10.131-2.475-13.241-6.621l-7.815-10.419c0.337-0.014 0.674-0.027 1.012-0.027h12.026c5.182 1e-3 10.131 2.475 13.241 6.621l7.835 10.447h-13.058z"/>
</svg>
