<?xml version="1.0" encoding="UTF-8"?>
<?xml-stylesheet type="text/css" href="../../css/style.css" ?>
<svg enable-background="new 0 0 511.999 511.999" version="1.1" viewBox="0 0 511.999 511.999" xml:space="preserve" xmlns="http://www.w3.org/2000/svg">
		<path d="m464.42 127.22h32.064c8.556 0 15.516-6.96 15.516-15.516 0-17.396-14.152-31.548-31.548-31.548h-56.112c-39.497 0-71.629 32.133-71.629 71.629v104.21c0 20.655-15.508 37.743-35.49 40.264l-54.182-147.07c-0.48-1.303-1.312-2.447-2.404-3.305-1.167-0.917-29.096-22.73-74.251-46.813-41.71-22.246-106.45-50.53-178.01-58.948-3.571-0.417-6.933 1.75-8.023 5.173-1.09 3.424 0.401 7.139 3.555 8.859 0.81 0.442 77.118 42.613 97.72 98.437-3.137 0.897-5.436 3.78-5.436 7.205 0 4.142 3.358 7.5 7.5 7.5h5.771c49.299 32.702 61.275 83.617 63.496 95.852l-3.225 4.514c-2.408 3.371-1.627 8.055 1.744 10.462 1.321 0.944 2.844 1.397 4.353 1.397 2.34 0 4.646-1.092 6.109-3.141l3.343-4.68c6.02-1.237 21.852-3.919 39.26-2.196 23.389 2.316 40.482 11.415 50.99 27.082h-11.519c-30.656 0-55.597 24.94-55.597 55.597 0 22.385-18.212 40.597-40.597 40.597-66.586 0-120.76-54.172-120.76-120.76v-12.926l29.868-29.868c2.194-2.194 2.811-5.514 1.55-8.349l-32.064-72.145c-1.204-2.708-3.89-4.454-6.854-4.454s-5.65 1.746-6.854 4.454l-32.063 72.146c-1.26 2.835-0.644 6.155 1.55 8.349l29.868 29.868v44.99c0 74.857 60.901 135.76 135.76 135.76 40.458 0 75.461-27.402 85.123-66.638 1.991-8.089 8.532-13.523 16.276-13.523h3.327v56.629c0 0.806 0.131 1.581 0.366 2.309l-4.542 2.595c-7.313 4.179-11.857 12.008-11.857 20.432v15.261h-8.532c-4.142 0-7.5 3.358-7.5 7.5s3.358 7.5 7.5 7.5h16.011 0.012 9e-3c0.02 0 0.039-3e-3 0.059-3e-3 5.663-0.016 11.373-1.71 16.972-5.043 3.265-1.943 7.078-2.97 11.026-2.97 5.616 0 11 2.134 14.773 5.855 1.461 1.441 3.364 2.161 5.267 2.161 1.937 0 3.873-0.746 5.34-2.233 2.909-2.949 2.876-7.698-0.072-10.606-6.653-6.562-15.641-10.177-25.307-10.177-6.648 0-13.113 1.757-18.698 5.081-0.625 0.372-1.243 0.697-1.859 0.999v-13.324c0-3.054 1.647-5.893 4.299-7.408l27.84-15.908c12.907-7.375 21.543-20.374 23.532-34.885 45.049-3.606 80.603-41.416 80.603-87.376v-144.29c0-4.142-3.358-7.5-7.5-7.5s-7.5 3.358-7.5 7.5v144.29c0 37.533-28.606 68.509-65.162 72.275v-8.146c0-4.142-3.358-7.5-7.5-7.5s-7.5 3.358-7.5 7.5v16.821c0 11.662-6.29 22.501-16.416 28.288l-8.665 4.951v-58.077c0-4.705 3.828-8.532 8.532-8.532 4.142 0 7.5-3.358 7.5-7.5s-3.358-7.5-7.5-7.5c-10.354 0-19.16 6.724-22.3 16.032h-4.559c-14.544 0-27.227 10.255-30.841 24.938-8.006 32.515-37.021 55.224-70.558 55.224-51.147 0-94.965-31.965-112.54-76.966 24.422 36.115 65.754 59.901 112.54 59.901 30.656 0 55.597-24.941 55.597-55.597 0-22.385 18.211-40.597 40.597-40.597h48.072c9e-3 0 0.017 2e-3 0.026 2e-3 0.036 0 0.072-4e-3 0.108-5e-3 30.606-0.06 55.487-24.974 55.487-55.594v-104.21c0-31.226 25.404-56.629 56.629-56.629h24.564v0.516c0 4.142 3.358 7.5 7.5 7.5s7.5-3.358 7.5-7.5v-0.516h16.548c9.125 0 16.548 7.423 16.548 16.548 0 0.285-0.231 0.516-0.516 0.516h-32.062c-12.976 0-23.532 10.557-23.532 23.533v0.516h-0.516c-9.125 0-16.548-7.424-16.548-16.549 0-4.142-3.358-7.5-7.5-7.5s-7.5 3.358-7.5 7.5c0 17.396 14.152 31.549 31.548 31.549h56.113c4.142 0 7.5-3.358 7.5-7.5s-3.358-7.5-7.5-7.5h-40.597v-0.516c0-4.705 3.828-8.533 8.532-8.533zm-424.86 97.226c-4.142 0-7.5 3.358-7.5 7.5v5.942l-15.619-15.619 23.119-52.017 23.119 52.017-15.619 15.619v-5.942c0-4.142-3.358-7.5-7.5-7.5zm145.02 22.426c-5.567-19.672-19.012-52.495-50.347-79.571h57.627c4.142 0 7.5-3.358 7.5-7.5s-3.358-7.5-7.5-7.5h-74.489c-8.24-26.291-28.052-52.645-58.986-78.423-5.81-4.842-11.49-9.218-16.783-13.081 55.047 11.61 103.87 33.488 137.42 51.356 31 16.511 54.038 32.211 65.077 40.148h-20.173c-4.142 0-7.5 3.358-7.5 7.5s3.358 7.5 7.5 7.5h17.494l-56.837 79.571zm108.26 49.719c-12.256-24.501-35.399-39.008-67.263-42.051-10.46-0.999-20.267-0.609-28.173 0.184l58.397-81.756 45.545 123.62h-8.506z"/>
</svg>
