<?xml version="1.0" encoding="UTF-8"?>
<?xml-stylesheet type="text/css" href="../../css/style.css" ?>
<svg enable-background="new 0 0 512 512" version="1.1" viewBox="0 0 512 512" xml:space="preserve" xmlns="http://www.w3.org/2000/svg">
		<path d="m356.29 136.27h-0.08c-4.142 0-7.46 3.357-7.46 7.5 0 4.142 3.398 7.5 7.54 7.5s7.5-3.358 7.5-7.5-3.358-7.5-7.5-7.5z"/>
		<path d="m419.82 129.49v-65.878c0-4.142-3.358-7.5-7.5-7.5s-7.5 3.358-7.5 7.5c0 22.385-18.211 40.597-40.597 40.597h-88.693v-0.517c0-4.705 3.828-8.532 8.532-8.532h32.064c8.556 0 15.516-6.96 15.516-15.516v-72.145c0-4.142-3.358-7.5-7.5-7.5s-7.5 3.358-7.5 7.5c0 21.419-16.677 39.006-37.728 40.484 2.935-4.79 4.631-10.418 4.631-16.436 0-4.142-3.358-7.5-7.5-7.5s-7.5 3.358-7.5 7.5c0 9.125-7.423 16.548-16.548 16.548h-8.017c-91.575 0-166.24 73.73-167.79 164.94-8e-3 0.326-0.037 2.244-0.037 2.878 0 61.597 50.113 111.71 111.71 111.71h84.169c24.595 0 44.605 20.01 44.605 44.605s-20.01 44.605-44.605 44.605h-92.186c-35.076 0-63.613 28.536-63.613 63.613v24.05c0 4.142 3.358 7.5 7.5 7.5h8.016c17.396 0 31.548-14.153 31.548-31.548 0-9.125 7.423-16.548 16.548-16.548h92.186c54.967 0 99.686-44.719 99.686-99.686s-44.719-99.686-99.686-99.686h-64.129c-6.915 0-12.541-5.625-12.541-12.54s5.625-12.541 12.541-12.541h31.122c5.58 4.981 12.932 8.016 20.983 8.016h48.097c0.285 0 0.516 0.231 0.516 0.516 0 4.142 3.358 7.5 7.5 7.5s7.5-3.358 7.5-7.5c0-8.556-6.96-15.516-15.516-15.516h-24.565v-8.532c0-0.285 0.231-0.516 0.516-0.516h32.064c8.556 0 15.516-6.96 15.516-15.516v-0.517h70.044c1.674 0 2.545 1.034 2.916 1.65 0.103 0.171 0.154 0.643 0.127 1.286-0.155 3.796 2.609 7.095 6.342 7.803 4.603 0.874 9.016-2.574 9.038-7.26 0.016-3.386-0.918-6.766-2.792-9.786-3.426-5.521-9.638-8.692-16.136-8.692h-37.475v-8.532c0-4.704 3.828-8.532 8.532-8.532h40.597v0.517c0 4.142 3.358 7.5 7.5 7.5s7.5-3.358 7.5-7.5v-0.517h0.516c4.142 0 7.5-3.357 7.5-7.5v-16.033c5e-3 -10.353-6.719-19.16-16.027-22.299zm-15-27.93v26.697h-6.587c-4.42 0-8.576-1.721-11.702-4.847l-6.508-6.507c9.599-2.851 18.128-8.213 24.797-15.343zm-313.29 122.78l56.846 6.316c0.752 14.44 7.477 27.317 17.736 36.228l-21.308 35.609c-29.389-14.679-50.303-43.886-53.274-78.153zm-0.135-15.108c2.391-34.83 23.302-64.646 52.936-79.651l27.541 55.082c-10.876 7.066-18.932 18.108-22.092 31.058l-58.385-6.489zm105.01 239.67h-16.55c-17.396 0-31.548 14.153-31.548 31.548 0 9.125-7.423 16.548-16.548 16.548h-0.516v-16.548c0-26.805 21.808-48.613 48.613-48.613h16.549v17.065zm56.112 0h-41.113v-17.064h41.113v17.064zm19.524 0h-4.524v-17.064h4.524c12.837 0 24.729-4.093 34.468-11.023l13.29 13.29c-13.605 9.327-30.052 14.797-47.758 14.797zm59.385-24.384l-13.865-13.865c8.074-9.551 13.204-21.662 13.975-34.928h24.388c-2.591 18.976-11.478 35.968-24.498 48.793zm25.212-63.793h-26.117c-2.201-11.203-7.552-21.284-15.088-29.293l21.523-21.523c11.63 13.878 18.895 31.523 19.682 50.816zm-97.137-81.194h12.541c20.653 0 39.595 7.441 54.308 19.771l-22.537 22.537c-9.204-5.824-20.096-9.211-31.771-9.211h-12.541v-33.097zm-59.605 0h44.604v33.097h-56.629c-10.096 0-19.835-1.558-28.991-4.441l19.87-33.207c6.459 2.915 13.613 4.551 21.146 4.551zm116.75-71.629c-1e-3 0.284-0.232 0.516-0.517 0.516h-32.064c-8.556 0-15.516 6.96-15.516 15.516v8.532h-8.533c-9.125 0-16.548-7.424-16.548-16.548 0-4.142-3.358-7.5-7.5-7.5s-7.5 3.358-7.5 7.5c0 2.957 0.418 5.816 1.182 8.532h-21.738c-15.186 0-27.541 12.354-27.541 27.541 0 2.605 0.372 5.124 1.051 7.515-10.827-6.362-18.115-18.124-18.115-31.563 0-20.175 16.414-36.589 36.589-36.589h60.637v0.517c0 4.142 3.358 7.5 7.5 7.5s7.5-3.358 7.5-7.5v-0.517h0.516c16 0 30.444-6.794 40.597-17.648v34.196zm104.21-47.581h-48.615c-12.976 0-23.532 10.557-23.532 23.532v8.532h-17.064v-56.629c0-4.142-3.358-7.5-7.5-7.5s-7.5 3.358-7.5 7.5c0 21.42-16.677 39.006-37.728 40.484 2.935-4.79 4.631-10.418 4.631-16.436 0-4.143-3.358-7.5-7.5-7.5s-7.5 3.357-7.5 7.5c0 9.125-7.423 16.548-16.548 16.548h-52.105c-4.99 0-9.811 0.727-14.378 2.054l-27.275-54.55c9.342-3.014 19.298-4.648 29.629-4.648h32.064c4.142 0 7.5-3.358 7.5-7.5 0-4.143-3.358-7.5-7.5-7.5h-32.064c-15.116 0-29.538 3.024-42.7 8.489l-0.125 0.051c-9.364 3.901-18.088 9.038-25.964 15.211 27.693-39.209 73.356-64.865 124.9-64.865h16.549v0.516c0 4.142 3.358 7.5 7.5 7.5s7.5-3.358 7.5-7.5v-0.516h0.516c16 0 30.444-6.795 40.597-17.649v34.197c0 0.285-0.231 0.516-0.516 0.516h-32.064c-12.976 0-23.532 10.557-23.532 23.532v0.517h-8.53c-4.142 0-7.5 3.357-7.5 7.5 0 4.142 3.358 7.5 7.5 7.5h102.26c4.42 0 8.576 1.721 11.702 4.847l9.961 9.961c5.958 5.959 13.881 9.24 22.308 9.24h14.087c4.705 0 8.532 3.828 8.532 8.532v8.534z"/>
</svg>
