<?xml version="1.0" encoding="iso-8859-1"?>
<!-- Generator: Adobe Illustrator 19.0.0, SVG Export Plug-In . SVG Version: 6.00 Build 0)  -->
<svg version="1.1" id="Capa_1" xmlns="http://www.w3.org/2000/svg" xmlns:xlink="http://www.w3.org/1999/xlink" x="0px" y="0px"
	 viewBox="0 0 512 512" style="enable-background:new 0 0 512 512;" xml:space="preserve">
<g>
	<g>
		<path d="M340.25,120.242h-0.08c-4.142,0-7.46,3.357-7.46,7.5c0,4.142,3.398,7.5,7.54,7.5c4.142,0,7.5-3.358,7.5-7.5
			C347.75,123.6,344.392,120.242,340.25,120.242z"/>
	</g>
</g>
<g>
	<g>
		<path d="M415.185,0.571c-2.803-1.16-6.028-0.519-8.173,1.626L384.338,24.87c-7.473,7.473-11.588,17.408-11.588,27.976
			c0,19.482-15.85,35.332-35.331,35.332h-6.349c5.366-6.754,8.584-15.288,8.584-24.565c0-4.142-3.358-7.5-7.5-7.5
			c-4.142,0-7.5,3.358-7.5,7.5c0,13.545-11.02,24.564-24.564,24.564h-10.14c1.034-2.647,1.608-5.523,1.608-8.532
			c0-4.143-3.358-7.5-7.5-7.5c-4.142,0-7.5,3.357-7.5,7.5c0,4.704-3.828,8.532-8.532,8.532h-84.17
			c-50.546,0-91.669,41.123-91.669,91.669c0,50.547,41.123,91.669,91.669,91.669h44.092c4.142,0,7.5-3.358,7.5-7.5
			c0-1.919-0.721-3.671-1.908-4.998c-0.749-0.849-19.054-21.645-31.338-35.599H256c46.696,0,84.686,37.99,84.686,84.686
			c0,46.696-37.99,84.686-84.686,84.686h-20.041c-39.496,0-71.629,32.133-71.629,71.629v8.016c0,10.931-7.176,20.217-17.064,23.394
			v-31.41c0-53.325,43.384-96.709,96.709-96.709h16.033c30.656,0,55.597-24.941,55.597-55.597c0-30.656-24.94-55.597-55.597-55.597
			c-4.142,0-7.5,3.358-7.5,7.5c0,4.142,3.358,7.5,7.5,7.5c22.385,0,40.597,18.211,40.597,40.597
			c0,22.385-18.211,40.597-40.597,40.597h-16.033c-61.597,0-111.709,50.112-111.709,111.709V504.5c0,4.142,3.358,7.5,7.5,7.5
			c21.816,0,39.564-17.749,39.564-39.564v-8.016c0-31.225,25.404-56.629,56.629-56.629H256c54.967,0,99.686-44.719,99.686-99.686
			c0-54.966-44.719-99.685-99.686-99.685h-68.137c-13.545,0-24.564-11.02-24.564-24.565c0-13.545,11.02-24.564,24.564-24.564h40.081
			c4.142,0,7.5-3.357,7.5-7.5c0-4.142-3.358-7.5-7.5-7.5h-40.081c-21.013,0-38.245,16.469-39.486,37.176l-27.769,41.654
			c-8.459-12.325-13.422-27.229-13.422-43.273c0-42.275,34.394-76.669,76.669-76.669h67.209c-4.132,5.809-6.572,12.9-6.572,20.556
			c0,19.606,15.951,35.556,35.557,35.556h4.524v0.517c0,17.396,14.152,31.548,31.548,31.548h41.164
			c-5.366,6.754-8.584,15.288-8.584,24.564c0,4.143,3.358,7.5,7.5,7.5c4.142,0,7.5-3.357,7.5-7.5
			c0-13.545,11.02-24.564,24.564-24.564h8.016c4.142,0,7.5-3.357,7.5-7.5c0-4.142-3.358-7.5-7.5-7.5h-48.613v-8.532
			c0-4.704,3.828-8.532,8.532-8.532h40.597v0.517c0,4.142,3.358,7.5,7.5,7.5c4.142,0,7.5-3.358,7.5-7.5v-2.459
			c4.774-2.648,8.016-7.737,8.016-13.573V7.5C419.814,4.467,417.987,1.731,415.185,0.571z M181.811,222.956l29.541,33.56h-27.498
			c-1.038,0-2.066-0.038-3.094-0.079l-7.225-35.714C176.171,221.751,178.938,222.514,181.811,222.956z M152.719,201.994
			c0.777,1.498,1.642,2.941,2.597,4.319l9.68,47.85c-13.099-3.326-24.852-10.042-34.295-19.142L152.719,201.994z M404.815,143.773
			c0,0.284-0.231,0.516-0.516,0.516h-48.097c-12.976,0.001-23.533,10.558-23.533,23.533v8.532h-16.548
			c-9.125,0-16.548-7.423-16.548-16.548v-0.517h8.532c4.142,0,7.5-3.357,7.5-7.5c0-4.142-3.358-7.5-7.5-7.5h-28.057
			c-11.335,0-20.557-9.222-20.557-20.556c0-11.335,9.222-20.556,20.557-20.556h54.855c6.562,0,12.73,2.555,17.37,7.194l7.613,7.613
			c5.958,5.959,13.881,9.24,22.308,9.24c4.142,0,7.5-3.357,7.5-7.5c0-4.142-3.358-7.5-7.5-7.5c-4.42,0-8.576-1.721-11.701-4.847
			l-7.613-7.613c-0.774-0.774-1.58-1.502-2.404-2.203c16.182-8.378,27.274-25.271,27.274-44.716c0-6.561,2.555-12.73,7.195-17.37
			l9.87-9.87V143.773z"/>
	</g>
</g>
<g>
</g>
<g>
</g>
<g>
</g>
<g>
</g>
<g>
</g>
<g>
</g>
<g>
</g>
<g>
</g>
<g>
</g>
<g>
</g>
<g>
</g>
<g>
</g>
<g>
</g>
<g>
</g>
<g>
</g>
</svg>
