<?xml version="1.0" encoding="iso-8859-1"?>
<!-- Generator: Adobe Illustrator 19.0.0, SVG Export Plug-In . SVG Version: 6.00 Build 0)  -->
<svg version="1.1" id="Capa_1" xmlns="http://www.w3.org/2000/svg" xmlns:xlink="http://www.w3.org/1999/xlink" x="0px" y="0px"
	 viewBox="0 0 512 512" style="enable-background:new 0 0 512 512;" xml:space="preserve">
<g>
	<g>
		<path d="M448.467,116.236h-0.08c-4.142,0-7.46,3.358-7.46,7.5c0,4.142,3.398,7.5,7.54,7.5c4.142,0,7.5-3.358,7.5-7.5
			C455.967,119.594,452.609,116.236,448.467,116.236z"/>
	</g>
</g>
<g>
	<g>
		<path d="M488.468,108.22h-12.926l-4.444-4.444c-3.846-3.846-8.347-6.795-13.248-8.759l13.685-41.055
			c1.31-3.929-0.814-8.177-4.744-9.487c-3.928-1.31-8.177,0.814-9.487,4.744l-3.635,10.904h-21.831v-8.532
			c0-4.142-3.358-7.5-7.5-7.5c-4.142,0-7.5,3.358-7.5,7.5v8.532h-21.831l-3.635-10.904c-1.31-3.93-5.558-6.054-9.487-4.744
			c-3.93,1.31-6.053,5.558-4.744,9.487l14.042,42.125c-13.267,6.395-22.443,19.978-22.443,35.664v84.483l-36.674-41.258
			c-10.542-11.859-25.688-18.66-41.554-18.66h-146.74c-3.158,0-5.977,1.978-7.052,4.947c-1.075,2.969-0.175,6.293,2.251,8.315
			l34.719,28.933c9.971,8.31,22.611,12.886,35.592,12.886h3.529l18.128,18.128c8.987,8.987,20.935,13.936,33.645,13.936h4.34
			l18.189,18.189c6.013,6.013,14.157,9.209,22.393,9.209c4.315,0,8.656-0.878,12.728-2.688l46.506-20.67v12.508
			c0,13.545-11.02,24.564-24.564,24.564c-4.142,0-7.5,3.358-7.5,7.5c0,4.142,3.358,7.5,7.5,7.5
			c21.816,0,39.564-17.749,39.564-39.564V131.752c0-13.545,11.02-24.564,24.565-24.564h34.815c6.562,0,12.73,2.555,17.37,7.195
			l6.641,6.641c1.406,1.407,3.314,2.197,5.303,2.197h16.032c4.705,0,8.532,3.828,8.532,8.532v8.532h-40.597
			c-12.976,0-23.532,10.557-23.532,23.532v8.532h-0.516c-9.125,0-16.548-7.423-16.548-16.548c0-4.142-3.358-7.5-7.5-7.5
			c-4.142,0-7.5,3.358-7.5,7.5c0,13.602,8.653,25.22,20.743,29.642c-5.466,7.561-7.309,17.003-5.033,26.106L440,305.482
			c4.812,19.248,1.602,39.085-8.161,55.455v-12.749c0-4.142-3.358-7.5-7.5-7.5c-4.142,0-7.5,3.358-7.5,7.5v18.783
			c0,6.562-2.555,12.73-7.195,17.37l-17.886,17.885v-21.973c0-4.142-3.358-7.5-7.5-7.5c-4.142,0-7.5,3.358-7.5,7.5v16.101
			c-2.667,0.287-5.358,0.448-8.058,0.448c-14.558,0-28.655-4.268-40.767-12.343L263.5,341.502v-9.346c0-4.142-3.358-7.5-7.5-7.5
			c-4.142,0-7.5,3.358-7.5,7.5v34.815c0,6.562-2.555,12.73-7.195,17.37l-17.886,17.886V324.14c0-4.142-3.358-7.5-7.5-7.5
			c-4.142,0-7.5,3.358-7.5,7.5v8.532h-0.516c-21.816,0-39.564,17.749-39.564,39.564c0,31.225-25.404,56.629-56.629,56.629
			c-31.225,0-56.629-25.404-56.629-56.629V246.493c0-1.12-0.025-2.234-0.076-3.346c5.964,11.391,9.125,24.129,9.125,37.355v87.726
			c0,24.026,19.547,43.572,43.573,43.572s43.573-19.546,43.573-43.572v-12.024c0-31.225,25.404-56.629,56.629-56.629h104.209
			c4.142,0,7.5-3.358,7.5-7.5c0-4.142-3.358-7.5-7.5-7.5H207.903c-39.496,0-71.629,32.133-71.629,71.629v12.024
			c0,15.755-12.818,28.572-28.573,28.572s-28.573-12.817-28.573-28.572v-87.726c0-25.557-9.952-49.583-28.023-67.654l-38.302-38.303
			c-2.929-2.929-7.678-2.929-10.606,0c-2.929,2.929-2.929,7.678,0,10.606l21.398,21.398c10.632,10.684,16.486,24.863,16.486,39.942
			v125.743c0,39.496,32.133,71.629,71.629,71.629c39.496,0,71.629-32.133,71.629-71.629c0-13.545,11.02-24.564,24.564-24.564h0.516
			v105.242h-12.541c-4.142,0-7.5,3.358-7.5,7.5c0,4.142,3.358,7.5,7.5,7.5h24.048c1.876,0,3.684-0.703,5.067-1.97
			c3.01-2.758,8.051-6.046,14.974-6.046c6.923,0,11.964,3.288,14.974,6.046c1.44,1.319,3.255,1.97,5.065,1.97
			c2.029,0,4.053-0.819,5.532-2.433c2.798-3.054,2.591-7.798-0.463-10.597c-7.028-6.44-15.945-9.986-25.107-9.986
			c-5.749,0-11.399,1.401-16.548,4.032v-15.315c0-6.562,2.555-12.73,7.195-17.37l21.297-21.297
			c7.473-7.473,11.588-17.408,11.588-27.977v-7.441l56.113,37.408c14.584,9.723,31.559,14.863,49.088,14.863
			c2.694,0,5.384-0.131,8.058-0.37v41.482h-12.541c-4.142,0-7.5,3.358-7.5,7.5c0,4.142,3.358,7.5,7.5,7.5h24.048
			c1.876,0,3.684-0.703,5.067-1.971c3.01-2.758,8.051-6.045,14.974-6.045c6.923,0,11.963,3.288,14.973,6.045
			c1.439,1.319,3.255,1.971,5.065,1.971c2.029,0,4.052-0.819,5.531-2.433c2.799-3.054,2.592-7.798-0.462-10.596
			c-7.027-6.44-15.944-9.987-25.107-9.987c-5.749,0-11.399,1.401-16.548,4.032v-15.315c0-6.562,2.555-12.73,7.194-17.37
			c0,0,22.166-21.601,22.658-21.969c28.683-21.465,41.613-57.747,32.941-92.431l-23.483-93.933
			c-1.244-4.979-0.147-10.153,3.011-14.198c3.158-4.044,7.912-6.364,13.043-6.364h41.345c4.142,0,7.5-3.358,7.5-7.5
			c0-4.142-3.358-7.5-7.5-7.5h-40.597v-8.532c0-4.705,3.828-8.532,8.532-8.532h32.581v0.516c0,4.142,3.358,7.5,7.5,7.5
			c4.142,0,7.5-3.358,7.5-7.5v-0.516h0.516c4.142,0,7.5-3.358,7.5-7.5v-16.032C512,118.777,501.443,108.22,488.468,108.22z
			 M316.144,254.465c-6.212,2.761-13.616,1.386-18.422-3.421l-7.583-7.583h50.762L316.144,254.465z M264.587,228.462
			c-8.703,0-16.884-3.389-23.038-9.542l-7.523-7.523h62.055c4.142,0,7.5-3.358,7.5-7.5c0-4.142-3.358-7.5-7.5-7.5h-86.796
			c-9.479,0-18.708-3.341-25.989-9.409l-18.805-15.671h126.024c11.586,0,22.645,4.966,30.343,13.626l38.683,43.519H264.587z
			 M416.839,92.187h-8.532c-0.868,0.001-1.726,0.039-2.58,0.094l-5.719-17.158h16.831V92.187z M442.982,92.187h-11.143V75.123
			h16.831L442.982,92.187z"/>
	</g>
</g>
<g>
</g>
<g>
</g>
<g>
</g>
<g>
</g>
<g>
</g>
<g>
</g>
<g>
</g>
<g>
</g>
<g>
</g>
<g>
</g>
<g>
</g>
<g>
</g>
<g>
</g>
<g>
</g>
<g>
</g>
</svg>
