<?xml version="1.0" encoding="UTF-8"?>
<?xml-stylesheet type="text/css" href="../../css/style.css" ?>
<svg enable-background="new 0 0 511.999 511.999" version="1.1" viewBox="0 0 511.999 511.999" xml:space="preserve" xmlns="http://www.w3.org/2000/svg">
		<path d="m440.45 120.24h-0.08c-4.142 0-7.46 3.358-7.46 7.5s3.398 7.5 7.54 7.5 7.5-3.358 7.5-7.5c0-4.143-3.358-7.5-7.5-7.5z"/>
		<path d="m488.47 112.22h-20.942l-4.444-4.444c-7.474-7.473-17.409-11.588-27.977-11.588h-44.848l-24.355-13.917-23.033-46.065c-1.556-3.111-5.047-4.746-8.431-3.945-3.385 0.799-5.777 3.821-5.777 7.299v56.424c0 7.188 3.219 13.886 8.832 18.375l26.662 21.329c1.428 1.143 2.973 2.085 4.587 2.856v125.16c0 0.4 0 0.948-0.934 1.115-0.929 0.17-1.123-0.347-1.261-0.723l-39.38-106.89c-0.48-1.303-1.312-2.447-2.404-3.305-1.167-0.917-29.096-22.73-74.251-46.813-41.71-22.246-106.45-50.53-178.01-58.948-3.573-0.416-6.933 1.75-8.023 5.173-1.09 3.424 0.401 7.139 3.555 8.859 0.81 0.442 77.118 42.614 97.721 98.437-3.137 0.897-5.436 3.78-5.436 7.205 0 4.142 3.358 7.5 7.5 7.5h5.771c49.298 32.701 61.275 83.615 63.496 95.851l-3.225 4.515c-2.408 3.371-1.627 8.055 1.744 10.462 1.321 0.944 2.844 1.397 4.353 1.397 2.34 0 4.646-1.092 6.109-3.141l3.397-4.756c5.493-1.236 19.569-3.822 35.171-2.119 25.53 2.784 43.239 15.406 52.636 37.514 1.213 2.855 3.988 4.568 6.906 4.568 0.979 0 1.973-0.193 2.93-0.6 3.812-1.62 5.589-6.024 3.969-9.836-11.579-27.243-34.162-43.361-65.306-46.611-8.858-0.924-17.183-0.673-24.098-7e-3l58.266-81.572 32.531 88.299c2.399 6.513 8.332 10.569 15.007 10.569 0.975 0 1.966-0.087 2.963-0.265 7.831-1.396 13.3-7.927 13.3-15.882v-123.3c1.383-0.281 2.752-0.675 4.087-1.209 8.542-3.417 14.245-11.242 14.882-20.42 0.181-2.608-0.071-5.159-0.69-7.587h33.084c6.561 0 12.73 2.555 17.37 7.195l6.641 6.641c1.406 1.407 3.314 2.197 5.303 2.197h24.048c4.705 0 8.532 3.828 8.532 8.533v8.532h-48.613c-12.976 0-23.532 10.557-23.532 23.532v8.532h-0.516c-9.125 0-16.548-7.423-16.548-16.548 0-4.142-3.358-7.5-7.5-7.5s-7.5 3.358-7.5 7.5c0 14.777 10.213 27.207 23.95 30.617-3.056 5.614-4.025 12.145-2.638 18.524l27.123 124.77c4.13 19.001-3.425 38.583-19.248 49.885l-14.187 10.134v-17.491c0-4.142-3.358-7.5-7.5-7.5s-7.5 3.358-7.5 7.5v38.007l-9.87-9.87c-4.64-4.64-7.195-10.809-7.195-17.37v-10.767c0-4.142-3.358-7.5-7.5-7.5s-7.5 3.358-7.5 7.5v10.767c0 4.787 0.853 9.441 2.471 13.798h-13.148c-13.562 0-26.812-2.586-39.379-7.686l-33.974-13.787c-0.09-0.125-0.174-0.254-0.266-0.377-4.869-6.491-12.315-10.214-20.429-10.214-4.142 0-7.5 3.358-7.5 7.5s3.358 7.5 7.5 7.5c3.348 0 6.42 1.536 8.429 4.214 2.009 2.679 2.623 6.058 1.686 9.272l-3.291 11.282c-22.153-2.585-39.405-21.457-39.405-44.292 0-3.482 0.401-6.948 1.193-10.3 0.952-4.031-1.544-8.071-5.575-9.023-4.034-0.95-8.071 1.545-9.023 5.575-0.792 3.355-1.292 6.792-1.493 10.256h-17.579c-16.697 0-32.705 5.13-46.292 14.835l-24.255 17.325c-7.254 5.182-15.801 7.92-24.717 7.92-15.762 0-28.944-11.253-31.94-26.147 7.101 5.676 16.092 9.082 25.869 9.082 11.088 0 21.512-4.318 29.352-12.158l21.298-21.298c19.78-19.78 46.079-30.673 74.052-30.673h94.298c4.142 0 7.5-3.358 7.5-7.5s-3.358-7.5-7.5-7.5h-94.298c-31.98 0-62.045 12.454-84.659 35.067l-21.298 21.298c-5.007 5.007-11.664 7.764-18.745 7.764-14.618 0-26.51-11.892-26.51-26.509v-78.216c0-30.656-24.94-55.597-55.597-55.597-4.142 0-7.5 3.358-7.5 7.5s3.358 7.5 7.5 7.5c22.385 0 40.597 18.211 40.597 40.597v104.21c0 26.236 21.345 47.581 47.583 47.581 12.059 0 23.62-3.705 33.434-10.714l24.255-17.325c11.029-7.877 24.021-12.042 37.574-12.042h18.602c4.78 24.335 24.411 43.403 49.034 47.341l-12.212 41.869h-14.415c-4.142 0-7.5 3.358-7.5 7.5s3.358 7.5 7.5 7.5h24.047c1.876 0 3.684-0.703 5.067-1.971 3.01-2.758 8.051-6.045 14.974-6.045s11.963 3.288 14.973 6.045c1.439 1.319 3.255 1.971 5.065 1.971 2.029 0 4.052-0.819 5.531-2.433 2.799-3.054 2.592-7.798-0.462-10.596-7.027-6.44-15.944-9.987-25.107-9.987-4.224 0-8.394 0.76-12.353 2.203l16.828-57.694c0.388-1.332 0.658-2.675 0.829-4.02l23.685 9.612c14.368 5.831 29.515 8.787 45.02 8.787h23.087l12.46 12.46c4.64 4.64 7.195 10.809 7.195 17.37v19.299h-12.542c-4.142 0-7.5 3.358-7.5 7.5s3.358 7.5 7.5 7.5h24.048c1.876 0 3.684-0.703 5.067-1.971 3.01-2.758 8.051-6.045 14.974-6.045s11.963 3.288 14.973 6.045c1.439 1.319 3.255 1.971 5.065 1.971 2.029 0 4.052-0.819 5.531-2.433 2.799-3.054 2.592-7.798-0.462-10.596-7.027-6.44-15.944-9.987-25.107-9.987-5.749 0-11.399 1.401-16.548 4.032v-48.785l22.906-16.362c20.706-14.79 30.592-40.413 25.187-65.277l-27.124-124.77c-0.767-3.53 0.093-7.167 2.359-9.98 2.267-2.812 5.639-4.426 9.252-4.426h40.081c4.142 0 7.5-3.358 7.5-7.5s-3.358-7.5-7.5-7.5h-40.597v-8.532c0-4.705 3.828-8.532 8.532-8.532h40.597v0.516c0 4.142 3.358 7.5 7.5 7.5s7.5-3.358 7.5-7.5v-0.516h0.516c4.142 0 7.5-3.358 7.5-7.5v-16.032c0-12.977-10.557-23.534-23.532-23.534zm-200.41 63.097h17.493l-56.836 79.57c-5.568-19.672-19.015-52.495-50.349-79.57h57.627c4.142 0 7.5-3.358 7.5-7.5s-3.358-7.5-7.5-7.5h-74.488c-8.24-26.291-28.052-52.645-58.986-78.423-5.81-4.842-11.49-9.218-16.783-13.081 55.048 11.61 103.87 33.488 137.42 51.356 31 16.511 54.038 32.211 65.077 40.148h-20.172c-4.142 0-7.5 3.358-7.5 7.5 0 4.141 3.358 7.5 7.5 7.5zm99.685-57.581c-0.238 3.437-2.291 6.253-5.49 7.533-2.926 1.169-6.271 0.675-8.731-1.294l-26.662-21.329c-2.035-1.628-3.202-4.057-3.202-6.663v-24.653l9.84 19.68c0.662 1.325 1.701 2.423 2.987 3.158l26.863 15.35c2.99 1.708 4.634 4.781 4.395 8.218z"/>
</svg>
