<?xml version="1.0" encoding="UTF-8"?>
<?xml-stylesheet type="text/css" href="../../css/style.css" ?>
<svg enable-background="new 0 0 512 512" version="1.1" viewBox="0 0 512 512" xml:space="preserve" xmlns="http://www.w3.org/2000/svg">
		<path d="m504.5 244.49c-4.142 0-7.5 3.358-7.5 7.5v9.1c-6.754-5.366-15.288-8.584-24.564-8.584h-64.129c-4.142 0-7.5 3.358-7.5 7.5s3.358 7.5 7.5 7.5h40.597v0.516c0 4.142 3.358 7.5 7.5 7.5s7.5-3.358 7.5-7.5v-0.516h8.532c10.931 0 20.217 7.176 23.394 17.064h-23.394c-12.545 0-22.827 9.868-23.496 22.25-5.381-2.734-9.085-8.312-9.085-14.75 0-4.142-3.358-7.5-7.5-7.5s-7.5 3.358-7.5 7.5c0 17.396 14.152 31.548 31.548 31.548h40.081c4.142 0 7.5-3.358 7.5-7.5s-3.358-7.5-7.5-7.5h-32.581v-0.516c0-4.705 3.828-8.532 8.532-8.532h32.065c4.142 0 7.5-3.358 7.5-7.5v-40.081c0-4.141-3.358-7.499-7.5-7.499z"/>
		<path d="m472.43 156.31c-4.142 0-7.5 3.358-7.5 7.5v9.1c-6.754-5.366-15.288-8.584-24.564-8.584h-64.128v1e-3c-4.142 0-7.5 3.358-7.5 7.5s3.358 7.5 7.5 7.5h40.597v0.516c0 4.142 3.358 7.5 7.5 7.5s7.5-3.358 7.5-7.5v-0.516h8.532c10.931 0 20.217 7.176 23.394 17.064h-23.394c-12.545 0-22.827 9.868-23.496 22.25-5.381-2.734-9.085-8.312-9.085-14.75 0-4.142-3.358-7.5-7.5-7.5s-7.5 3.358-7.5 7.5c0 17.396 14.152 31.548 31.548 31.548h40.081c4.142 0 7.5-3.358 7.5-7.5s-3.358-7.5-7.5-7.5h-32.581v-0.516c0-4.705 3.828-8.532 8.532-8.532h32.064c4.142 0 7.5-3.358 7.5-7.5v-40.081c0-4.142-3.358-7.5-7.5-7.5z"/>
		<path d="m424.34 68.137c-4.142 0-7.5 3.358-7.5 7.5v9.1c-6.754-5.366-15.288-8.584-24.564-8.584h-72.662v-0.516c0-4.705 3.828-8.532 8.532-8.532h32.064c4.142 0 7.5-3.358 7.5-7.5v-40.08c0-4.142-3.358-7.5-7.5-7.5s-7.5 3.358-7.5 7.5v9.1c-6.754-5.366-15.288-8.584-24.564-8.584h-64.129c-4.142 0-7.5 3.358-7.5 7.5s3.359 7.5 7.501 7.5h40.597v0.516c0 4.142 3.358 7.5 7.5 7.5s7.5-3.358 7.5-7.5v-0.516h8.532c10.931 0 20.217 7.176 23.394 17.064h-23.394c-12.545 0-22.827 9.868-23.496 22.25-5.381-2.734-9.085-8.312-9.085-14.75 0-4.142-3.358-7.5-7.5-7.5s-7.5 3.358-7.5 7.5c0 17.396 14.152 31.548 31.548 31.548h56.629v0.516c0 4.142 3.358 7.5 7.5 7.5s7.5-3.358 7.5-7.5v-0.516h8.533c10.931 0 20.217 7.176 23.394 17.064h-23.394c-12.546 0-22.828 9.868-23.496 22.25-5.381-2.734-9.085-8.312-9.085-14.75 0-4.142-3.358-7.5-7.5-7.5s-7.5 3.358-7.5 7.5c0 17.396 14.152 31.548 31.548 31.548h40.081c4.142 0 7.5-3.358 7.5-7.5s-3.358-7.5-7.5-7.5h-32.581v-0.516c0-4.705 3.828-8.532 8.533-8.532h32.064c4.142 0 7.5-3.358 7.5-7.5v-40.08c0-4.142-3.358-7.5-7.5-7.5z"/>
		<path d="m400.29 299.57c4.142 0 7.5-3.358 7.5-7.5s-3.358-7.5-7.5-7.5c-16.005 0-30.443 6.807-40.597 17.668v-34.217c0-13.545 11.02-24.564 24.564-24.564 4.142 0 7.5-3.358 7.5-7.5s-3.358-7.5-7.5-7.5c-21.816 0-39.564 17.749-39.564 39.564v166.26l-9.87-9.87c-4.64-4.64-7.195-10.809-7.195-17.37v-42.832c0-4.142-3.358-7.5-7.5-7.5s-7.5 3.358-7.5 7.5v21.495c-12.051 15.516-26.973 28.568-43.836 38.417l2.499-9.997c1.005-4.019-1.438-8.09-5.457-9.095-4.016-1.004-8.09 1.438-9.095 5.457l-4.04 16.159c-1.908 7.63-7.406 13.929-14.708 16.85l-14.573 5.829v-22.488c0-12.095 5.332-23.469 14.628-31.205 0 0 11.006-9.243 11.333-9.664 26.54-23.353 43.919-56.878 45.974-94.421h8.743c4.142 0 7.5-3.358 7.5-7.5s-3.358-7.5-7.5-7.5h-8.146c3.765-36.555 34.741-65.162 72.275-65.162h8.016c4.142 0 7.5-3.358 7.5-7.5s-3.358-7.5-7.5-7.5h-76.153c-13 0-24.429-6.82-30.921-17.064h75.01c4.142 0 7.5-3.358 7.5-7.5s-3.358-7.5-7.5-7.5h-80.388c-0.184-1.484-0.29-2.991-0.29-4.524 0-20.175 16.414-36.589 36.589-36.589h20.04c4.142 0 7.5-3.358 7.5-7.5s-3.358-7.5-7.5-7.5h-20.04c-28.446 0-51.589 23.143-51.589 51.589 0 1.337 0.068 2.658 0.168 3.971-23.339-3.546-41.281-23.746-41.281-48.06 0-26.805 21.808-48.613 48.613-48.613 4.142 0 7.5-3.358 7.5-7.5s-3.358-7.5-7.5-7.5c-35.076 0-63.613 28.537-63.613 63.613 0 33.834 26.554 61.575 59.915 63.497 7.685 18.853 26.204 32.18 47.786 32.18h19.146c-21.365 14.451-36.04 38.07-38.347 65.162h-8.856c-31.225 0-56.629-25.404-56.629-56.629v-24.048c0-2.483-1.229-4.806-3.283-6.202l-200.4-136.27c-3.131-2.128-7.359-1.59-9.856 1.257s-2.48 7.109 0.04 9.936c39.767 44.612 57.027 83.685 64.504 108.61 5.526 18.421 6.666 32.024 6.831 38.824l-2.911 0.514c-4.079 0.72-6.803 4.61-6.083 8.689 0.72 4.08 4.615 6.806 8.689 6.083l6.618-1.168c9.522 7.575 37.71 33.069 39.586 70.571l-5.308 6.755c-2.559 3.257-1.993 7.972 1.264 10.531 1.374 1.08 3.007 1.603 4.629 1.603 2.222 0 4.423-0.984 5.902-2.867l3.92-4.989c11.048 0.775 50.029 5.052 70.861 27.269v5.151c0 4.142 3.358 7.5 7.5 7.5s7.5-3.358 7.5-7.5v-8.016c0-9.125 7.423-16.548 16.548-16.548h44.423c-13.908 51.334-60.895 89.209-116.57 89.209-65.784 0-119.44-52.876-120.73-118.36l14.146 4.715c0.777 0.259 1.578 0.385 2.371 0.385 2.004 0 3.964-0.804 5.401-2.296 2.006-2.082 2.637-5.131 1.622-7.837l-24.048-64.129c-1.098-2.927-3.896-4.867-7.022-4.867s-5.925 1.939-7.022 4.867l-24.049 64.128c-1.015 2.707-0.384 5.756 1.622 7.837 2.006 2.082 5.03 2.825 7.772 1.911l14.177-4.726v5.626c0 89.587 70.033 163.21 159.44 167.62 0.126 6e-3 0.251 9e-3 0.375 9e-3 3.972 0 7.287-3.12 7.484-7.131 0.204-4.137-2.985-7.656-7.122-7.86-44.922-2.213-84.467-23.626-110.9-56.08 23.502 19.47 53.648 31.187 86.48 31.187 18.15 0 35.476-3.589 51.316-10.081-1.763 5.461-2.703 11.221-2.703 17.112v58.13h-16.548c-4.142 0-7.5 3.358-7.5 7.5s3.358 7.5 7.5 7.5h24.048c1.876 0 3.684-0.703 5.067-1.971 3.01-2.758 8.05-6.045 14.973-6.045s11.964 3.288 14.974 6.045c1.439 1.319 3.255 1.971 5.065 1.971 2.029 0 4.052-0.819 5.531-2.433 2.799-3.054 2.592-7.798-0.462-10.596-7.027-6.44-15.944-9.987-25.107-9.987-4.291 0-8.526 0.785-12.54 2.273v-13.744l20.144-8.058c6.292-2.516 11.739-6.601 15.927-11.726 19.963-8.799 38.044-21.469 53.176-37.15 0.372 10.003 4.435 19.354 11.552 26.471l13.282 13.282c4.639 4.64 7.194 10.808 7.194 17.37v19.299h-12.54c-4.142 0-7.5 3.358-7.5 7.5s3.358 7.5 7.5 7.5h24.048c1.876 0 3.684-0.703 5.067-1.971 3.01-2.758 8.05-6.045 14.973-6.045s11.964 3.288 14.974 6.045c1.439 1.319 3.255 1.971 5.065 1.971 2.029 0 4.052-0.819 5.531-2.433 2.799-3.054 2.592-7.798-0.462-10.596-7.027-6.44-15.944-9.987-25.107-9.987-5.749 0-11.399 1.401-16.548 4.032v-140.82c-3e-3 -22.386 18.209-40.597 40.594-40.597zm-312.1-90.184c-0.748-17.913-6.918-61.15-44.777-116.29l145.01 98.605-100.23 17.687zm10.274 13.418l91.417-16.132-57.857 73.636c-5.788-26.449-21.775-46.086-33.56-57.504zm101.94 92.401c-19.57-14.122-44.637-19.443-59.88-21.434l59.88-76.21v97.644zm31.548-14.604c-6.065 1e-3 -11.734 1.726-16.548 4.704v-41.596c13.114 16.921 33.614 27.844 56.629 27.844h8.292c-0.188 3.048-0.489 6.065-0.899 9.048h-47.474zm-200.4-31.679c-1.572 0-3.133 0.254-4.623 0.75l-6.884 2.295 11.506-30.683 11.506 30.683-6.884-2.295c-1.49-0.497-3.051-0.75-4.621-0.75z"/>
</svg>
