<?xml version="1.0" encoding="UTF-8"?>
<?xml-stylesheet type="text/css" href="../../css/style.css" ?>
<svg enable-background="new 0 0 512 512" version="1.1" viewBox="0 0 512 512" xml:space="preserve" xmlns="http://www.w3.org/2000/svg">
		<path d="m432.43 140.27h-0.08c-4.142 0-7.461 3.358-7.461 7.501 0 4.142 3.398 7.501 7.541 7.501s7.501-3.358 7.501-7.501-3.359-7.501-7.501-7.501z"/>
		<path d="m488.47 132.26h-28.961l-4.444-4.444c-7.474-7.474-17.409-11.589-27.978-11.589h-33.953c-4.451 0-8.823-1.21-12.639-3.5l-32.468-19.481c-3.554-2.132-8.16-0.979-10.291 2.572-2.131 3.552-0.979 8.16 2.572 10.291l32.468 19.481c6.148 3.688 13.188 5.638 20.358 5.638h33.953c6.562 0 12.731 2.555 17.372 7.196l6.642 6.642c1.407 1.406 3.314 2.196 5.303 2.196h32.067c4.705 0 8.533 3.828 8.533 8.533v8.533h-56.634c-12.977 0-23.534 10.558-23.534 23.534v8.533h-0.516c-9.126 0-16.549-7.424-16.549-16.549 0-4.142-3.358-7.501-7.501-7.501-4.142 0-7.501 3.358-7.501 7.501 0 12.777 7.639 23.796 18.585 28.752-3.378 6.141-3.869 13.49-1.236 20.073l20.608 51.518c9.721 24.304 1.634 51.904-19.666 67.119l-3.289 2.349v-17.493c0-4.142-3.358-7.501-7.501-7.501-4.142 0-7.501 3.358-7.501 7.501v38.009l-9.871-9.871c-4.64-4.64-7.196-10.81-7.196-17.372v-10.768c0-4.142-3.358-7.501-7.501-7.501-4.142 0-7.501 3.358-7.501 7.501v10.768c0 5.293 1.033 10.428 3.003 15.174h-27.569c-15.128 0-30.057-2.488-44.37-7.396-3.916-1.344-8.185 0.745-9.528 4.663s0.744 8.185 4.663 9.528c15.881 5.444 32.447 8.206 49.234 8.206h38.352l11.086 11.085c4.64 4.64 7.196 10.81 7.196 17.371v19.301h-12.542c-4.142 0-7.501 3.358-7.501 7.501 0 4.142 3.358 7.501 7.501 7.501h24.05c1.876 0 3.684-0.703 5.067-1.971 3.01-2.758 8.052-6.046 14.975-6.046s11.964 3.288 14.974 6.046c1.439 1.319 3.255 1.971 5.065 1.971 2.029 0 4.052-0.819 5.531-2.433 2.799-3.054 2.592-7.799-0.462-10.597-7.028-6.441-15.945-9.988-25.109-9.988-5.749 0-11.4 1.401-16.549 4.032v-48.789l12.009-8.578c26.941-19.245 37.17-54.155 24.874-84.897l-20.608-51.518c-1.068-2.672-0.756-5.57 0.857-7.954 1.613-2.383 4.188-3.749 7.066-3.749h64.503c4.142 0 7.501-3.358 7.501-7.501s-3.358-7.501-7.501-7.501h-56.634v-8.533c0-4.705 3.828-8.533 8.533-8.533h48.617v0.516c0 4.142 3.358 7.501 7.501 7.501 4.142 0 7.501-3.358 7.501-7.501v-0.516h0.516c4.142 0 7.501-3.358 7.501-7.501v-16.033c1e-3 -12.974-10.556-23.531-23.533-23.531z"/>
		<path d="m360.2 135.76c-4.142 0-7.501 3.358-7.501 7.501v97.62c0 5.548-2.626 10.527-7.206 13.659-2.989 2.044-6.409 3.02-9.86 2.899v-20.054c0-20.92-6.228-41.116-18.01-58.403s-28.302-30.469-47.774-38.118l-163.45-64.21c-3.012-1.184-6.444-0.301-8.512 2.188s-2.307 6.025-0.591 8.769l26.331 42.13c9.763 15.619 23.732 28.021 40.398 35.864l21.345 10.045 15.515 31.031c6.185 12.37 16.689 21.943 29.58 26.955l94.243 36.65c3.701 1.439 7.579 2.147 11.437 2.147 6.27 0 12.488-1.87 17.813-5.511 8.602-5.884 13.737-15.619 13.737-26.041v-97.62c1e-3 -4.143-3.357-7.501-7.499-7.501zm-39.569 116.84l-84.724-32.949c-9.412-3.66-17.082-10.65-21.599-19.683l-7.001-14.001 69.53 32.72c3.747 1.764 8.217 0.155 9.98-3.593s0.155-8.217-3.593-9.98l-112.81-53.086c-14.053-6.614-25.833-17.07-34.065-30.242l-14.292-22.868 142.3 55.905c16.654 6.543 30.785 17.818 40.863 32.605 10.078 14.786 15.404 32.061 15.404 49.954v15.218z"/>
		<path d="m263.68 260.52h-62.681c-23.418 0-45.433 9.119-61.991 25.677l-30.692 30.692c-5.062 5.063-11.814 7.827-18.985 7.765-14.648-0.128-26.274-12.463-26.274-27.112v-122.96c0-5.18-0.503-10.349-1.502-15.432l-7.063-35.928c-0.484-2.422-2.13-4.45-4.4-5.423l-39.681-17.006c-3.151-1.35-6.862-0.405-8.973 2.415-1.645 2.198-1.849 5.162-0.768 7.687l16.898 39.428c0.973 2.27 3.001 3.916 5.423 4.4l18.634 3.727c3.739 0.748 6.432 4.031 6.432 7.845v153.44c0 27.593 21.52 50.839 49.091 51.947 16.005 0.643 31.206-6.136 41.403-18.373l5.776-6.932c9.459-11.349 24.469-16.561 38.746-13.887l-6.673 46.706c-0.215 1.51 0.034 3.05 0.717 4.415l18.623 37.246h-7.592c-4.107 0-7.689 3.165-7.812 7.27-0.127 4.247 3.278 7.732 7.498 7.732h24.05c1.896 0 3.705-0.727 5.105-2.005 3.014-2.751 8.043-6.011 14.936-6.011 6.924 0 11.964 3.288 14.974 6.046 1.439 1.319 3.255 1.971 5.065 1.971 2.111 0 4.216-0.886 5.708-2.633 2.667-3.122 2.155-7.883-0.896-10.63-6.988-6.293-15.799-9.755-24.852-9.755-7.186 0-14.218 2.182-20.309 6.229l-17.977-35.954 20.115-12.069c8.764-5.257 16.072-12.506 21.402-21.148l15.725 5.391c0.806 0.276 1.626 0.407 2.433 0.407 3.285 0 6.344-2.176 7.253-5.588 1.024-3.844-1.295-7.802-5.058-9.092l-13.334-4.571 12.351-24.702c1.837-3.674 0.608-8.295-3.01-10.241-3.742-2.013-8.38-0.524-10.266 3.249l-16.742 33.484c-4.134 8.27-10.542 15.188-18.47 19.945l-12.56 7.537 8.889-62.22c2.278-15.948 16.145-27.975 32.256-27.975h29.37c4.219 0 7.625-3.483 7.498-7.732-0.122-4.107-3.703-7.271-7.81-7.271zm-233.88-119.74l-8.065-18.819 18.819 8.065 2.688 13.442-13.442-2.688zm157.72 160.59l-2.322 16.253c-19.354-3.377-39.589 3.779-52.393 19.145l-5.776 6.932c-6.894 8.272-17.023 13.017-27.792 13.017-16.177 0-29.908-10.675-34.52-25.35 6.934 5.199 15.541 8.284 24.856 8.284 11.089 0 21.514-4.318 29.355-12.159l30.692-30.692c13.496-13.496 31.371-21.013 50.418-21.26-6.56 6.944-11.094 15.859-12.518 25.83z"/>
</svg>
