<?xml version="1.0" encoding="UTF-8"?>
<?xml-stylesheet type="text/css" href="../../css/style.css" ?>
<svg enable-background="new 0 0 512 512" version="1.1" viewBox="0 0 512 512" xml:space="preserve" xmlns="http://www.w3.org/2000/svg">
		<path d="m472.44 248.5h-64.129c-4.142 0-7.5 3.358-7.5 7.5s3.358 7.5 7.5 7.5h40.597v0.516c0 4.142 3.358 7.5 7.5 7.5s7.5-3.358 7.5-7.5v-0.516h8.532c10.931 0 20.217 7.176 23.394 17.064h-23.394c-12.545 0-22.827 9.868-23.496 22.25-5.381-2.734-9.085-8.312-9.085-14.75 0-4.142-3.358-7.5-7.5-7.5s-7.5 3.358-7.5 7.5c0 17.396 14.152 31.548 31.548 31.548h32.064c0.285 0 0.516 0.231 0.516 0.516 0 4.142 3.358 7.5 7.5 7.5s7.5-3.358 7.5-7.5c0-8.556-6.96-15.516-15.516-15.516h-24.564v-0.516c0-4.705 3.828-8.532 8.532-8.532h32.065c4.142 0 7.5-3.358 7.5-7.5 0-21.815-17.749-39.564-39.564-39.564z"/>
		<path d="m440.37 160.32h-64.128c-4.142 0-7.5 3.358-7.5 7.5s3.358 7.5 7.5 7.5h40.597v0.516c0 4.142 3.358 7.5 7.5 7.5s7.5-3.358 7.5-7.5v-0.516h8.532c10.931 0 20.217 7.176 23.394 17.064h-23.394c-12.545 0-22.827 9.868-23.496 22.25-5.381-2.734-9.085-8.312-9.085-14.75 0-4.142-3.358-7.5-7.5-7.5s-7.5 3.358-7.5 7.5c0 17.396 14.152 31.548 31.548 31.548h32.064c0.285 0 0.516 0.231 0.516 0.516 0 4.142 3.358 7.5 7.5 7.5s7.5-3.358 7.5-7.5c0-8.556-6.96-15.516-15.516-15.516h-24.564v-0.516c0-4.705 3.828-8.532 8.532-8.532h32.064c4.142 0 7.5-3.358 7.5-7.5 0-21.816-17.749-39.564-39.564-39.564z"/>
		<path d="m392.27 72.145h-72.662v-0.516c0-4.705 3.828-8.532 8.532-8.532h32.064c4.142 0 7.5-3.358 7.5-7.5 0-21.816-17.749-39.564-39.564-39.564h-64.129c-4.142 0-7.5 3.358-7.5 7.5s3.359 7.5 7.501 7.5h40.597v0.516c0 4.142 3.358 7.5 7.5 7.5s7.5-3.358 7.5-7.5v-0.516h8.532c10.931 0 20.217 7.176 23.394 17.064h-23.394c-12.545 0-22.827 9.868-23.496 22.25-5.381-2.734-9.085-8.312-9.085-14.75 0-4.142-3.358-7.5-7.5-7.5s-7.5 3.358-7.5 7.5c0 17.396 14.152 31.548 31.548 31.548h56.629v0.516c0 4.142 3.358 7.5 7.5 7.5s7.5-3.358 7.5-7.5v-0.516h8.533c10.931 0 20.217 7.176 23.394 17.064h-23.394c-12.546 0-22.828 9.869-23.496 22.25-5.381-2.734-9.085-8.312-9.085-14.75 0-4.142-3.358-7.5-7.5-7.5s-7.5 3.358-7.5 7.5c0 17.396 14.152 31.549 31.548 31.549h32.065c0.285 0 0.516 0.231 0.516 0.516 0 4.142 3.358 7.5 7.5 7.5s7.5-3.358 7.5-7.5c0-8.556-6.96-15.516-15.516-15.516h-24.565v-0.517c0-4.705 3.828-8.532 8.533-8.532h32.064c4.142 0 7.5-3.358 7.5-7.5 0-21.816-17.749-39.564-39.564-39.564z"/>
		<path d="m400.29 295.57c4.142 0 7.5-3.358 7.5-7.5s-3.361-7.5-7.503-7.5c-16.005 0-30.443 6.807-40.597 17.668v-34.216c0-13.545 11.02-24.564 24.564-24.564 4.142 0 7.5-3.358 7.5-7.5s-3.358-7.5-7.5-7.5c-21.816 0-39.564 17.749-39.564 39.564v166.26l-9.87-9.87c-4.64-4.64-7.195-10.809-7.195-17.37v-42.832c0-4.142-3.358-7.5-7.5-7.5s-7.5 3.358-7.5 7.5v21.495c-12.052 15.516-26.973 28.568-43.836 38.417l2.499-9.997c1.005-4.019-1.438-8.09-5.457-9.095-4.016-1.004-8.09 1.438-9.095 5.457l-4.04 16.158c-1.908 7.63-7.406 13.93-14.708 16.851l-14.573 5.829v-22.488c0-12.095 5.332-23.468 14.628-31.205l10.207-8.494c3.184-2.65 3.617-7.379 0.968-10.562-2.65-3.184-7.379-3.617-10.562-0.968l-10.207 8.495c-12.731 10.595-20.033 26.171-20.033 42.734v58.13h-16.548c-4.142 0-7.5 3.358-7.5 7.5s3.358 7.5 7.5 7.5h24.048c1.876 0 3.684-0.703 5.067-1.971 3.01-2.758 8.05-6.045 14.973-6.045s11.964 3.288 14.974 6.045c1.439 1.319 3.255 1.971 5.065 1.971 2.029 0 4.052-0.819 5.531-2.433 2.799-3.054 2.592-7.798-0.462-10.596-7.027-6.44-15.944-9.987-25.107-9.987-4.291 0-8.526 0.785-12.54 2.273v-13.744l20.144-8.058c6.291-2.516 11.738-6.6 15.927-11.726 19.963-8.799 38.044-21.468 53.176-37.151 0.372 10.003 4.435 19.354 11.552 26.47l13.282 13.282c4.639 4.64 7.194 10.808 7.194 17.37v19.299h-12.54c-4.142 0-7.5 3.358-7.5 7.5s3.358 7.5 7.5 7.5h24.048c1.876 0 3.684-0.703 5.067-1.971 3.01-2.758 8.05-6.045 14.973-6.045s11.964 3.288 14.974 6.045c1.439 1.319 3.255 1.971 5.065 1.971 2.029 0 4.052-0.819 5.531-2.433 2.799-3.054 2.592-7.798-0.462-10.596-7.027-6.44-15.944-9.987-25.107-9.987-5.749 0-11.399 1.401-16.548 4.032v-140.82c0-22.386 18.212-40.597 40.597-40.597z"/>
		<path d="m376.24 192.39h-76.153c-13 0-24.429-6.82-30.921-17.064h75.01c4.142 0 7.5-3.358 7.5-7.5s-3.358-7.5-7.5-7.5h-80.388c-0.184-1.484-0.29-2.992-0.29-4.524 0-20.175 16.414-36.589 36.589-36.589h20.04c4.142 0 7.5-3.358 7.5-7.5s-3.358-7.5-7.5-7.5h-20.04c-28.446 0-51.589 23.143-51.589 51.589 0 1.337 0.067 2.659 0.168 3.971-23.339-3.546-41.281-23.746-41.281-48.06 0-26.805 21.808-48.613 48.613-48.613 4.142 0 7.5-3.358 7.5-7.5s-3.358-7.5-7.5-7.5c-35.076 0-63.613 28.537-63.613 63.613 0 33.834 26.554 61.575 59.916 63.497 7.685 18.853 26.204 32.18 47.786 32.18h32.368c-16.921 13.114-27.844 33.614-27.844 56.629v12.312c0 12.661-5.716 24.118-15.089 31.631l-27.812-6.49c-4.034-0.942-8.067 1.566-9.008 5.6s1.565 8.067 5.6 9.008l8.154 1.903-5.689 1.707c-7.586 2.276-14.948 5.232-22.003 8.786l-37.016-4.271c-4.12-0.478-7.835 2.476-8.311 6.591-0.475 4.115 2.476 7.835 6.591 8.311l18.213 2.101c-5.099 3.827-9.941 8.001-14.459 12.519l-7.599 7.599-30.849 6.232c-4.06 0.82-6.687 4.777-5.866 8.837 0.719 3.559 3.848 6.016 7.344 6.016 0.492 0 0.992-0.049 1.493-0.15l8.701-1.758-11.741 11.741c-5.514 5.514-13.184 8.14-20.516 7.033-35.762-5.414-68.583-23.529-92.418-51.008-24.073-27.753-37.33-63.297-37.33-100.08v-16.106l-3e-3 -0.196c-0.041-4.128-3.415-7.465-7.537-7.426-4.128 0.02-7.463 3.372-7.463 7.5v40.081c0 101.38 82.477 183.85 183.86 183.85 4.142 0 7.5-3.358 7.5-7.5s-3.358-7.5-7.5-7.5c-65.517 0-122.44-37.509-150.42-92.179 2.402 3.209 4.925 6.341 7.567 9.386 26.17 30.172 62.219 50.063 101.5 56.011 12.022 1.823 24.499-2.388 33.367-11.258l38.518-38.518c14.083-14.083 31.612-24.553 50.689-30.276l14.913-4.474c23.699-7.11 39.621-28.51 39.621-53.252v-12.312c0-31.225 25.404-56.629 56.629-56.629 4.142 0 7.5-3.358 7.5-7.5s-3.358-7.5-7.5-7.5z"/>
</svg>
