<?xml version="1.0" encoding="iso-8859-1"?>
<!-- Generator: Adobe Illustrator 19.0.0, SVG Export Plug-In . SVG Version: 6.00 Build 0)  -->
<svg version="1.1" id="Capa_1" xmlns="http://www.w3.org/2000/svg" xmlns:xlink="http://www.w3.org/1999/xlink" x="0px" y="0px"
	 viewBox="0 0 512 512" style="enable-background:new 0 0 512 512;" xml:space="preserve">
<g>
	<g>
		<path d="M344.177,48.097h-0.08c-4.142,0-7.46,3.358-7.46,7.5c0,4.142,3.398,7.5,7.54,7.5c4.142,0,7.5-3.358,7.5-7.5
			C351.677,51.455,348.319,48.097,344.177,48.097z"/>
	</g>
</g>
<g>
	<g>
		<path d="M380.25,160.323H199.887c-13.545,0-24.564-11.02-24.564-24.565s11.02-24.564,24.564-24.564h103.437
			c6.711,5.081,15.03,8.016,23.884,8.016h57.051c4.142,0,7.5-3.358,7.5-7.5c0-4.142-3.358-7.5-7.5-7.5h-40.597v-8.532
			c0-4.705,3.828-8.532,8.532-8.532h48.613v8.532c0,4.142,3.358,7.5,7.5,7.5c4.142,0,7.5-3.358,7.5-7.5V66.711
			c0-14.777-10.056-27.418-24.455-30.741l-85.569-19.747c-4.035-0.93-8.063,1.585-8.995,5.622c-0.931,4.036,1.585,8.063,5.622,8.995
			l85.569,19.747c7.553,1.743,12.828,8.374,12.828,16.125v5.434h-48.613c-12.976,0-23.532,10.557-23.532,23.532v8.532h-1.454
			c-10.59,0-19.955-6.75-23.304-16.796l-3.384-10.151c-1.31-3.93-5.559-6.054-9.487-4.744c-3.93,1.31-6.053,5.558-4.744,9.487
			l3.384,10.151c0.462,1.387,1.001,2.732,1.601,4.037h-91.387c-21.816,0-39.564,17.749-39.564,39.565s17.749,39.564,39.564,39.564
			H380.25c46.696,0,84.686,37.99,84.686,84.686c0,46.695-37.99,84.685-84.686,84.685H199.887
			c-74.857,0-135.758,60.901-135.758,135.758c0,9.125-7.423,16.548-16.548,16.548h-0.516v-24.564
			c0-84.267,68.556-152.823,152.823-152.823h176.355c30.656,0,55.597-24.94,55.597-55.597s-24.94-55.597-55.597-55.597h-16.036
			c-4.142,0-7.5,3.358-7.5,7.5c0,4.142,3.358,7.5,7.5,7.5h16.036c22.385,0,40.597,18.211,40.597,40.597
			s-18.211,40.597-40.597,40.597H199.887c-92.538,0-167.823,75.285-167.823,167.823V504.5c0,4.142,3.358,7.5,7.5,7.5h8.016
			c17.396,0,31.548-14.152,31.548-31.548c0-66.586,54.172-120.758,120.758-120.758H380.25c54.967,0,99.686-44.719,99.686-99.686
			C479.936,205.041,435.217,160.323,380.25,160.323z"/>
	</g>
</g>
<g>
	<g>
		<path d="M328.145,208.419H195.879c-42.276,0-76.669-34.394-76.669-76.669s34.394-76.669,76.669-76.669h100.202
			c4.142,0,7.5-3.358,7.5-7.5c0-4.142-3.358-7.5-7.5-7.5h-21.645L220.279,1.397C219.007,0.488,217.482,0,215.919,0h-16.032
			C129.45,0,72.145,57.305,72.145,127.742v8.017c0,4.141,3.358,7.499,7.5,7.499h25.285c5.678,45.135,44.299,80.161,90.949,80.161
			h132.266c4.142,0,7.5-3.358,7.5-7.5C335.645,211.777,332.287,208.419,328.145,208.419z M199.887,15h13.629l35.113,25.081h-52.75
			c-0.632,0-1.261,0.011-1.89,0.024l-31.312-18.787C174.333,17.231,186.854,15,199.887,15z M145.94,28.769l24.73,14.838
			c-17.482,5.007-32.84,15.088-44.378,28.539h-24.455C112.213,53.917,127.523,38.847,145.94,28.769z M104.282,128.258H87.145v-0.516
			c0-14.305,2.684-27.994,7.565-40.597h21.109C108.964,99.4,104.843,113.38,104.282,128.258z"/>
	</g>
</g>
<g>
</g>
<g>
</g>
<g>
</g>
<g>
</g>
<g>
</g>
<g>
</g>
<g>
</g>
<g>
</g>
<g>
</g>
<g>
</g>
<g>
</g>
<g>
</g>
<g>
</g>
<g>
</g>
<g>
</g>
</svg>
