<?xml version="1.0" encoding="iso-8859-1"?>
<!-- Generator: Adobe Illustrator 19.0.0, SVG Export Plug-In . SVG Version: 6.00 Build 0)  -->
<svg version="1.1" id="Capa_1" xmlns="http://www.w3.org/2000/svg" xmlns:xlink="http://www.w3.org/1999/xlink" x="0px" y="0px"
	 viewBox="0 0 512 512" style="enable-background:new 0 0 512 512;" xml:space="preserve">
<g>
	<g>
		<path d="M380.25,160.323H199.887c-13.545,0-24.564-11.02-24.564-24.565s11.02-24.564,24.564-24.564h112.226
			c0.065,0,0.129-0.008,0.193-0.01c6.637,5.033,14.902,8.026,23.855,8.026h48.097c4.142,0,7.5-3.358,7.5-7.5
			c0-4.142-3.358-7.5-7.5-7.5h-40.597v-8.532c0-4.705,3.828-8.532,8.532-8.532h48.097c4.142,0,7.5-3.358,7.5-7.5V63.613
			c0-12.976-10.557-23.532-23.532-23.532h-77.055l-28.492-28.492C271.238,4.115,261.303,0,250.734,0h-42.831
			c-30.106,0-58.623,9.651-82.467,27.91c-23.081,17.674-40.161,42.721-48.095,70.528c-3.013,10.561-0.909,21.696,5.773,30.552
			c5.433,7.201,13.128,11.951,21.74,13.606c5.383,45.453,44.148,80.823,91.025,80.823h100.202c4.142,0,7.5-3.358,7.5-7.5
			c0-4.142-3.358-7.5-7.5-7.5H195.879c-42.276,0-76.669-34.394-76.669-76.669s34.394-76.669,76.669-76.669h140.784
			c-0.012,0.171-0.026,0.342-0.026,0.516c0,4.142,3.398,7.5,7.54,7.5c4.142,0,7.5-3.358,7.5-7.5c0-0.174-0.014-0.345-0.026-0.516
			h32.607c4.705,0,8.532,3.828,8.532,8.532v8.532h-40.597c-12.976,0-23.532,10.557-23.532,23.532v7.357
			c-9.887-3.178-17.064-12.46-17.064-23.389v-0.012c0-4.142-3.358-7.494-7.5-7.494c-4.142,0-7.5,3.364-7.5,7.506
			c0,5.906,1.31,11.51,3.641,16.548h-100.35c-21.816,0-39.564,17.749-39.564,39.565s17.749,39.564,39.564,39.564h148.298
			c46.696,0,84.686,37.99,84.686,84.686c0,46.695-37.99,84.685-84.686,84.685H199.887c-74.857,0-135.758,60.901-135.758,135.758
			c0,9.125-7.423,16.548-16.548,16.548h-0.516v-24.564c0-84.267,68.556-152.823,152.823-152.823h144.29
			c30.656,0,55.597-24.94,55.597-55.597s-24.941-55.597-55.597-55.597h-16.036c-4.142,0-7.5,3.358-7.5,7.5
			c0,4.142,3.358,7.5,7.5,7.5h16.036c22.385,0,40.597,18.211,40.597,40.597s-18.212,40.597-40.597,40.597h-109.12l-19.806-19.806
			c-8.41-8.411-19.883-12.601-31.483-11.495c-41.356,3.943-79.631,23.068-107.775,53.854c-28.329,30.987-43.93,71.19-43.93,113.205
			v64.13c0,4.142,3.358,7.5,7.5,7.5h8.016c17.396,0,31.548-14.152,31.548-31.548c0-66.586,54.172-120.758,120.758-120.758H380.25
			c54.967,0,99.686-44.719,99.686-99.686C479.936,205.042,435.217,160.323,380.25,160.323z M104.336,126.915
			c-3.618-1.368-6.82-3.743-9.248-6.959c-3.822-5.065-5.033-11.408-3.323-17.402c0.711-2.493,1.527-4.953,2.401-7.393h17.67
			C107.546,104.976,104.923,115.68,104.336,126.915z M120.144,80.161h-19.435c7.039-13.501,16.642-25.675,28.197-35.702
			l15.431,11.524C134.844,62.461,126.627,70.673,120.144,80.161z M195.879,40.081c-13.236,0-25.823,2.824-37.197,7.894
			l-17.355-12.961c14.238-9.451,30.082-15.688,46.813-18.421l14.389,23.488H195.879z M220.12,40.081l-15.327-25.018
			c1.036-0.026,2.069-0.062,3.109-0.062h42.832V15c6.562,0,12.73,2.555,17.37,7.195l17.886,17.886H220.12z M185.193,288.245
			c7.123-0.684,14.217,1.933,19.453,7.168l9.199,9.199h-13.958c-12.037,0-23.778,1.285-35.104,3.705l-16.1-11.972
			C160.384,292.188,172.631,289.443,185.193,288.245z M132.637,303.106l13.776,10.244c-12.859,4.334-25.023,10.189-36.284,17.345
			l-10.925-5.292C109.378,316.48,120.622,309,132.637,303.106z M87.065,337.287c0.233-0.255,0.472-0.502,0.706-0.755l8.39,4.064
			c-14.648,11.549-27.332,25.483-37.462,41.21C65.428,365.585,74.973,350.514,87.065,337.287z M451.697,214.632
			c7.779,12.206,12.522,26.519,13.149,41.883h-17.043v0.001c-0.44-12.712-3.27-24.827-8.057-35.908L451.697,214.632z
			 M432.774,207.325c-6.698-10.716-15.373-20.074-25.513-27.559c13.557,4.576,25.587,12.484,35.106,22.762L432.774,207.325z
			 M407.261,340.25c10.14-7.485,18.814-16.843,25.513-27.559l9.593,4.797C432.849,327.767,420.818,335.674,407.261,340.25z
			 M451.698,305.383l-11.951-5.976c3.77-8.727,6.325-18.095,7.456-27.891h16.93C462.45,283.843,458.107,295.328,451.698,305.383z"/>
	</g>
</g>
<g>
</g>
<g>
</g>
<g>
</g>
<g>
</g>
<g>
</g>
<g>
</g>
<g>
</g>
<g>
</g>
<g>
</g>
<g>
</g>
<g>
</g>
<g>
</g>
<g>
</g>
<g>
</g>
<g>
</g>
</svg>
