<?xml version="1.0" encoding="UTF-8"?>
<?xml-stylesheet type="text/css" href="../../css/style.css" ?>
<svg enable-background="new 0 0 512 512" version="1.1" viewBox="0 0 512 512" xml:space="preserve" xmlns="http://www.w3.org/2000/svg">
		<path d="m258.54 224.89l-16.045-5.776c-3.898-1.404-8.194 0.619-9.597 4.516s0.619 8.194 4.516 9.597l16.045 5.776c0.839 0.302 1.697 0.445 2.54 0.445 3.073 0 5.956-1.903 7.057-4.961 1.403-3.897-0.619-8.194-4.516-9.597z"/>
		<path d="m272.03 79.128h32.064c8.556 0 15.516-6.96 15.516-15.516 0-17.396-14.152-31.548-31.548-31.548h-58.864c-6.562 0-12.73-2.555-17.37-7.195l-6.641-6.641c-2.929-2.929-7.678-2.929-10.606 0-2.929 2.929-2.929 7.678 0 10.606l6.641 6.641c7.473 7.473 17.408 11.588 27.977 11.588h27.315v0.516c0 4.142 3.358 7.5 7.5 7.5s7.5-3.358 7.5-7.5v-0.516h16.548c9.125 0 16.548 7.423 16.548 16.548 0 0.285-0.231 0.516-0.516 0.516h-32.064c-12.976 0-23.532 10.557-23.532 23.532v0.516h-0.516c-9.125 0-16.548-7.423-16.548-16.548 0-4.142-3.358-7.5-7.5-7.5s-7.5 3.358-7.5 7.5c0 17.396 14.152 31.548 31.548 31.548h48.097c0.285 0 0.516 0.231 0.516 0.516 0 4.142 3.358 7.5 7.5 7.5s7.5-3.358 7.5-7.5c0-8.556-6.96-15.516-15.516-15.516h-32.581v-0.515c0-4.705 3.828-8.532 8.532-8.532z"/>
		<path d="m408.3 119.21h32.064c8.556 0 15.516-6.96 15.516-15.516 0-17.396-14.152-31.548-31.548-31.548h-58.864c-6.562 0-12.73-2.555-17.37-7.194l-6.641-6.641c-2.929-2.929-7.678-2.929-10.606 0-2.929 2.929-2.929 7.678 0 10.606l6.643 6.641c7.473 7.473 17.408 11.588 27.976 11.588h27.315v0.516c0 4.142 3.358 7.5 7.5 7.5s7.5-3.358 7.5-7.5v-0.516h16.548c9.125 0 16.548 7.423 16.548 16.548 0 0.285-0.231 0.516-0.516 0.516h-32.064c-12.976 0-23.532 10.557-23.532 23.532v0.517h-0.517c-9.125 0-16.548-7.424-16.548-16.549 0-4.142-3.358-7.5-7.5-7.5s-7.5 3.358-7.5 7.5c0 17.396 14.152 31.549 31.548 31.549h48.097c0.285 0 0.516 0.231 0.516 0.516 0 4.142 3.358 7.5 7.5 7.5s7.5-3.358 7.5-7.5c0-8.556-6.96-15.516-15.516-15.516h-32.581v-0.517c0-4.705 3.828-8.532 8.532-8.532z"/>
		<path d="m464.42 215.4h32.064c8.556 0 15.516-6.96 15.516-15.516 0-17.396-14.152-31.548-31.548-31.548h-58.864c-6.561 0-12.73-2.555-17.37-7.195l-6.641-6.641c-2.929-2.929-7.678-2.929-10.606 0-2.929 2.929-2.929 7.678 0 10.606l6.641 6.641c7.473 7.473 17.408 11.588 27.976 11.588h27.315v0.516c0 4.142 3.358 7.5 7.5 7.5s7.5-3.358 7.5-7.5v-0.516h16.548c9.125 0 16.548 7.423 16.548 16.548 0 0.285-0.231 0.516-0.516 0.516h-32.063c-12.976 0-23.532 10.557-23.532 23.532v0.516h-0.516c-9.125 0-16.548-7.423-16.548-16.548 0-4.142-3.358-7.5-7.5-7.5s-7.5 3.358-7.5 7.5c0 17.396 14.152 31.548 31.548 31.548h48.097c0.285 0 0.516 0.231 0.516 0.516 0 4.142 3.358 7.5 7.5 7.5s7.5-3.358 7.5-7.5c0-8.556-6.96-15.516-15.516-15.516h-32.581v-0.516c-1e-3 -4.704 3.827-8.531 8.532-8.531z"/>
		<path d="m464.42 256.52h-24.048c-26.805 0-48.613-21.808-48.613-48.613v-16.032c0-4.142-3.358-7.5-7.5-7.5s-7.5 3.358-7.5 7.5v16.032c0 35.076 28.537 63.613 63.613 63.613h24.048c4.705 0 8.532 3.828 8.532 8.532s-3.828 8.532-8.532 8.532h-123.6c-5.107-5.051-9.395-10.806-12.745-17.064h44.276c2.904 0 5.547-1.676 6.785-4.304 1.238-2.627 0.848-5.732-1.001-7.972-11.89-14.399-18.438-32.631-18.438-51.337v-14.087c0-8.426-3.281-16.349-9.24-22.308l-9.961-9.961c-3.126-3.125-4.847-7.281-4.847-11.701v-54.168c0-4.142-3.358-7.5-7.5-7.5s-7.5 3.358-7.5 7.5v54.168c0 8.427 3.282 16.35 9.241 22.308l9.96 9.961c3.126 3.126 4.847 7.282 4.847 11.702v14.087c0 17.152 4.645 33.971 13.271 48.613h-35.843c-1.642-6.052-2.509-12.366-2.509-18.806 0-24.407-12.375-46.652-32.064-59.7v-18.204c0-21.816-17.749-39.564-39.564-39.564-26.805 0-48.613-21.808-48.613-48.613v-16.033c0-4.142-3.358-7.5-7.5-7.5s-7.5 3.358-7.5 7.5v16.032c0 35.076 28.537 63.613 63.613 63.613 13.545 0 24.564 11.02 24.564 24.564v10.633c-0.459-0.168-0.915-0.344-1.379-0.502l-261.24-89.372c-3.042-1.04-6.409-0.027-8.37 2.521-1.961 2.547-2.081 6.061-0.298 8.736l30.496 45.744c12.234 18.352 30.401 32.574 51.155 40.045l1.187 0.427 27.214 39.59c12.697 18.481 31.404 32.564 52.676 39.655l113.69 37.896c0.787 0.262 1.586 0.387 2.373 0.387 3.14 0 6.066-1.988 7.114-5.13 1.31-3.93-0.814-8.177-4.744-9.487l-113.69-37.896c-18.195-6.065-34.196-18.111-45.056-33.918l-15.379-22.385 97.059 34.941c3.898 1.403 8.194-0.619 9.597-4.516s-0.619-8.194-4.516-9.597l-122.44-44.08c-17.751-6.391-33.291-18.555-43.755-34.252l-18.213-27.32 240.29 82.205c22.908 7.837 38.299 29.37 38.299 53.581 0 29.024 14.418 55.964 38.567 72.063l32.41 21.606c15.79 10.527 25.217 28.141 25.217 47.118v51.783l-9.87-9.87c-4.64-4.64-7.195-10.809-7.195-17.37v-18.783c0-4.142-3.358-7.5-7.5-7.5s-7.5 3.358-7.5 7.5v16.548h-1.96c-19.262 0-37.954-3.967-55.556-11.79l-40.294-17.909c1.507-3.608-0.011-7.816-3.561-9.59-3.705-1.853-8.209-0.351-10.062 3.354l-16.741 33.482c-4.142 8.283-10.529 15.18-18.47 19.945l-10.542 6.326 19.657-78.628c1.005-4.018-1.438-8.09-5.457-9.095-4.014-1.005-8.09 1.438-9.095 5.457l-2.6 10.398c-25.376 0.981-45.721 21.921-45.721 47.534 0 35.646-29 64.645-64.646 64.645-21.374 0-40.359-10.429-52.135-26.462 9.27 5.946 20.288 9.398 32.095 9.398 32.866 0 59.605-26.739 59.605-59.605v-12.024c0-40.065 32.596-72.661 72.661-72.661h8.016c4.142 0 7.5-3.358 7.5-7.5s-3.358-7.5-7.5-7.5h-8.016c-48.336 0-87.661 39.325-87.661 87.661v12.024c0 24.595-20.01 44.605-44.605 44.605s-44.605-20.01-44.605-44.605v-97.812l14.177 4.726c0.777 0.259 1.578 0.385 2.371 0.385 2.004 0 3.964-0.804 5.401-2.296 2.006-2.082 2.637-5.131 1.622-7.837l-24.048-64.129c-1.098-2.927-3.896-4.867-7.022-4.867s-5.925 1.939-7.022 4.867l-24.051 64.127c-1.015 2.707-0.384 5.756 1.622 7.837 2.006 2.082 5.03 2.824 7.772 1.911l14.177-4.726v109.84c0 43.917 35.729 79.645 79.646 79.645s79.645-35.729 79.645-79.646c0-16.01 11.612-29.351 26.854-32.066l-17.582 70.329c-0.435 1.737-0.233 3.572 0.568 5.173l18.621 37.243h-7.906c-4.142 0-7.5 3.358-7.5 7.5s3.358 7.5 7.5 7.5h20.025c7e-3 0 0.014 1e-3 0.021 1e-3 9e-3 0 0.017-1e-3 0.026-1e-3h3.976c1.876 0 3.684-0.703 5.067-1.97 3.01-2.758 8.051-6.046 14.974-6.046s11.964 3.288 14.974 6.046c1.44 1.319 3.255 1.97 5.065 1.97 2.029 0 4.053-0.819 5.532-2.433 2.798-3.054 2.591-7.798-0.463-10.597-7.028-6.44-15.945-9.986-25.107-9.986-7.185 0-14.217 2.182-20.307 6.228l-17.975-35.951 20.114-12.068c10.392-6.235 18.749-15.26 24.168-26.099l10.256-20.513 40.894 18.175c19.532 8.681 40.274 13.083 61.648 13.083h4.065c1.925 5.664 5.129 10.857 9.483 15.21l13.282 13.282c4.64 4.64 7.195 10.809 7.195 17.37v19.299h-12.541c-4.142 0-7.5 3.358-7.5 7.5s3.358 7.5 7.5 7.5h24.048c1.876 0 3.684-0.703 5.067-1.971 3.01-2.758 8.051-6.045 14.974-6.045s11.963 3.288 14.973 6.045c1.439 1.319 3.255 1.971 5.065 1.971 2.029 0 4.052-0.819 5.531-2.433 2.799-3.054 2.592-7.798-0.462-10.596-7.027-6.44-15.944-9.987-25.107-9.987-5.749 0-11.399 1.401-16.548 4.032v-98.486c0-24.004-11.924-46.284-31.896-59.599l-22.978-15.319h103.49c12.976 0 23.532-10.557 23.532-23.532s-10.557-23.533-23.532-23.533zm-432.87 16.033c-0.801 0-1.602 0.128-2.372 0.385l-9.134 3.045 11.506-30.683 11.506 30.683-9.134-3.045c-0.77-0.257-1.572-0.385-2.372-0.385z"/>
</svg>
