<?xml version="1.0" encoding="UTF-8"?>
<?xml-stylesheet type="text/css" href="../../css/style.css" ?>
<svg enable-background="new 0 0 512 512" version="1.1" viewBox="0 0 512 512" xml:space="preserve" xmlns="http://www.w3.org/2000/svg">
		<path d="m412.32 40.081h-20.942l-12.46-12.46c-7.473-7.473-17.408-11.588-27.977-11.588h-39.725l-4.444-4.444c-7.472-7.474-17.407-11.589-27.975-11.589h-42.832c-4.142 0-7.5 3.358-7.5 7.5s3.358 7.5 7.5 7.5h2.751c6.561 0 12.73 2.555 17.37 7.195l9.87 9.87h-70.071c-4.329 0-8.671 0.309-12.941 0.886-8.027-5.776-17.625-8.902-27.71-8.902h-31.48-0.029-16.018c-4.142 0-7.5 3.358-7.5 7.5s3.358 7.5 7.5 7.5h12.926l14.656 14.656c-12.87 10.542-22.645 24.137-28.565 39.349l-14.739 11.054c-9.91 7.432-15.826 19.265-15.826 31.652v40.081c0 4.142 3.358 7.5 7.5 7.5s7.5-3.358 7.5-7.5v-12.266l12.739-9.485c11.469 39.986 48.365 69.331 91.987 69.331h48.098c4.142 0 7.5-3.358 7.5-7.5s-3.358-7.5-7.5-7.5h-48.098c-44.485 0-80.677-36.192-80.677-80.678 0-25.191 11.757-48.825 31.649-64.067 7.565 4.836 16.355 7.438 25.55 7.438h31.495c3.034 0 5.768-1.827 6.929-4.63s0.519-6.028-1.626-8.173l-11.245-11.245h86.104c4.142 0 7.5-3.358 7.5-7.5 0-2.072-0.84-3.947-2.198-5.304l-19.262-19.262h8.693c6.561 0 12.73 2.555 17.37 7.195l22.673 22.673c1.464 1.464 3.384 2.197 5.303 2.197s3.839-0.732 5.303-2.197c2.929-2.929 2.929-7.678 0-10.606l-3.229-3.229h24.725c6.562 0 12.73 2.555 17.37 7.195l14.657 14.657c1.406 1.407 3.314 2.197 5.303 2.197h24.048c4.705 0 8.532 3.828 8.532 8.532v8.532h-48.613c-12.976 0-23.532 10.557-23.532 23.532v8.532h-5.871c-9.952 0-19.225-4.457-25.441-12.228l-7.997-9.996c-9.079-11.349-22.621-17.857-37.154-17.857h-12.231c-4.142 0-7.5 3.358-7.5 7.5s3.358 7.5 7.5 7.5h12.231c9.952 0 19.225 4.457 25.441 12.228l7.997 9.996c9.079 11.349 22.621 17.857 37.154 17.857h69.483c4.142 0 7.5-3.358 7.5-7.5s-3.358-7.5-7.5-7.5h-48.613v-8.532c0-4.705 3.828-8.532 8.532-8.532h40.597v0.516c0 4.142 3.358 7.5 7.5 7.5s7.5-3.358 7.5-7.5v-0.516h0.516c4.142 0 7.5-3.358 7.5-7.5v-16.033c2e-3 -12.976-10.555-23.532-23.531-23.532zm-311.59 97.665l-9.57 7.126v-9.114c0-7.659 3.645-14.976 9.752-19.593-0.465 3.816-0.704 7.681-0.704 11.577 0 3.378 0.179 6.716 0.522 10.004zm71.677-81.633c-8.703 0-16.884-3.389-23.038-9.542l-7.522-7.522h13.388c8.703 0 16.884 3.389 23.038 9.542l7.522 7.522h-13.388z"/>
		<path d="m356.28 48.097h-0.08c-4.142 0-7.46 3.358-7.46 7.5s3.398 7.5 7.54 7.5 7.5-3.358 7.5-7.5-3.358-7.5-7.5-7.5z"/>
		<path d="m276.04 160.32h-80.162c-13.545 0-24.564-11.02-24.564-24.565s11.02-24.564 24.564-24.564h80.162c4.142 0 7.5-3.358 7.5-7.5s-3.358-7.5-7.5-7.5h-80.162c-21.816 0-39.564 17.749-39.564 39.565s17.749 39.564 39.564 39.564h80.162c40.065 0 72.661 32.596 72.661 72.661s-32.596 72.661-72.661 72.661h-56.113c-22.024 0-41.756 9.99-54.907 25.678 6.208-24.534 28.471-42.742 54.907-42.742h56.113c26.236 0 47.581-21.345 47.581-47.581s-21.345-47.581-47.581-47.581c-4.142 0-7.5 3.358-7.5 7.5s3.358 7.5 7.5 7.5c17.965 0 32.581 14.616 32.581 32.581s-14.616 32.581-32.581 32.581h-56.113c-39.496 0-71.629 32.133-71.629 71.629v56.734c0 7.503-3.36 14.495-9.219 19.182l-18.146 14.516c-7.488 5.991-13.328 13.863-16.889 22.765l-11.323 28.308c-1.127 2.817-0.446 6.035 1.725 8.153 1.43 1.395 3.32 2.132 5.24 2.132 0.996 0 2-0.198 2.953-0.606l41.538-17.802c4.583-1.964 8.526-4.926 11.621-8.567 3.095 3.642 7.038 6.604 11.621 8.567l41.538 17.802c2.788 1.194 6.022 0.593 8.193-1.526s2.852-5.336 1.725-8.153l-11.323-28.308c-3.561-8.902-9.401-16.774-16.889-22.765l-18.145-14.516c-5.859-4.687-9.219-11.679-9.219-19.182v-24.669c0-31.226 25.404-56.629 56.629-56.629h56.113c48.336 0 87.661-39.325 87.661-87.661s-39.326-87.662-87.662-87.662zm-94.749 302.03c5.468 4.375 9.733 10.123 12.333 16.623l4.598 11.497-24.895-10.669c-6.093-2.611-10.03-8.582-10.03-15.21 0-4.142-3.358-7.5-7.5-7.5s-7.5 3.358-7.5 7.5c0 6.628-3.937 12.599-10.03 15.21l-24.895 10.669 4.599-11.496c2.6-6.5 6.864-12.249 12.332-16.623l18.145-14.516c2.822-2.257 5.284-4.847 7.349-7.69 2.065 2.844 4.527 5.433 7.349 7.69l18.145 14.515z"/>
</svg>
