<?xml version="1.0" encoding="iso-8859-1"?>
<!-- Generator: Adobe Illustrator 19.0.0, SVG Export Plug-In . SVG Version: 6.00 Build 0)  -->
<svg version="1.1" id="Capa_1" xmlns="http://www.w3.org/2000/svg" xmlns:xlink="http://www.w3.org/1999/xlink" x="0px" y="0px"
	 viewBox="0 0 512.002 512.002" style="enable-background:new 0 0 512.002 512.002;" xml:space="preserve">
<g>
	<g>
		<path d="M443.777,35.243l-90.685-17.297c-7.238-6.417-16.449-9.93-26.203-9.93h-66.565c-4.107,0-7.688,3.164-7.811,7.269
			c-0.128,4.247,3.278,7.731,7.497,7.731h28.958l17.064,17.064h-21.66c-4.107,0-7.688,3.164-7.811,7.269
			c-0.128,4.247,3.278,7.731,7.497,7.731h87.96c2.453,0,4.839-1.082,6.275-3.071c2.223-3.08,1.803-7.174-0.755-9.732l-5.435-5.435
			l68.863,13.135c11.567,2.206,19.962,12.354,19.962,24.13v6.054h-40.597c-17.424,0-31.548,14.125-31.548,31.548v0.516h-15.979
			c-8.641,0-16.929-3.433-23.039-9.543l-20.324-20.324c-2.983-2.984-7.854-2.929-10.767,0.165c-2.815,2.99-2.521,7.761,0.384,10.665
			l11.022,11.022h-93.377c-21.605,0-39.784,17.011-40.296,38.61c-0.527,22.25,17.42,40.519,39.553,40.519h79.235
			c40.003,0,73.196,31.943,73.584,71.944c0.392,40.393-32.353,73.378-72.658,73.378h-56.113c-22.024,0-41.757,9.99-54.907,25.678
			c6.208-24.534,28.471-42.742,54.907-42.742h56.113c26.122,0,47.396-21.16,47.579-47.24c0.027-3.885-2.77-7.358-6.63-7.791
			c-4.531-0.509-8.369,3.023-8.369,7.451c0,17.965-14.616,32.581-32.581,32.581h-56.113c-39.56,0-71.629,32.07-71.629,71.629v42.271
			c0,3.2-0.427,6.385-1.268,9.472l-22.516,82.558c-0.975,3.578,0.802,7.428,4.405,8.923c2.352,0.976,5.054,0.583,7.172-0.83
			l19.707-13.138l19.888,13.259c1.261,0.841,2.711,1.26,4.16,1.26c1.54,0,3.079-0.473,4.386-1.416
			c2.538-1.829,3.673-5.04,2.851-8.058l-22.516-82.558c-0.842-3.087-1.269-6.272-1.269-9.472V400.29
			c0-31.275,25.354-56.629,56.629-56.629h54.996c48.262,0,88.307-38.538,88.775-86.797c0.472-48.731-39.033-88.525-87.657-88.525
			h-79.603c-13.742,0-25.352-11.245-25.119-24.986c0.226-13.351,11.157-24.143,24.561-24.143h110.391
			c7.763,5.213,16.892,8.016,26.453,8.016h79.277c4.106,0,7.687-3.164,7.811-7.268c0.128-4.247-3.277-7.732-7.496-7.732h-48.613
			v-0.516c0-9.14,7.409-16.549,16.549-16.549h32.58v0.202c0,4.107,3.164,7.688,7.269,7.811c4.247,0.127,7.731-3.278,7.731-7.497
			V95.16h0.516c4.142,0,7.5-3.358,7.5-7.5V74.107C475.929,55.142,462.407,38.797,443.777,35.243z M340.741,40.082L340.741,40.082
			c-8.703-0.001-16.884-3.39-23.038-9.543l-7.522-7.522h16.708c6.562,0,12.73,2.555,17.37,7.195l9.87,9.87H340.741z
			 M207.422,487.148l-7.382-4.921c-1.26-0.84-2.71-1.26-4.16-1.26c-1.45,0-2.9,0.42-4.16,1.26l-7.382,4.921l11.542-42.322
			L207.422,487.148z"/>
	</g>
</g>
<g>
	<g>
		<path d="M396.364,56.113h-0.08c-4.142,0-7.46,3.358-7.46,7.5c0,4.142,3.398,7.5,7.54,7.5c4.142,0,7.5-3.358,7.5-7.5
			C403.864,59.471,400.506,56.113,396.364,56.113z"/>
	</g>
</g>
<g>
	<g>
		<path d="M348.344,229.006c-8.804-8.105-20.247-12.569-32.22-12.569h-80.163c-44.485,0-80.677-36.192-80.677-80.678
			c0-19.562,6.975-38.176,19.72-52.849c7.732,2.786,15.917,4.236,24.261,4.236h36.696c4.142,0,7.5-3.358,7.5-7.5
			c0-4.143-3.358-7.5-7.5-7.5h-36.696c-11.217,0-22.079-3.289-31.413-9.511l-11.33-7.554h31.342c4.142,0,7.5-3.358,7.5-7.5
			c0-4.142-3.358-7.5-7.5-7.5h-64.068c-9.121,0-18.03-2.555-25.765-7.389L69.725,15h98.471c15.997,0,31.355,5.894,43.246,16.595
			l59.583,53.625c1.433,1.29,3.227,1.926,5.015,1.926c2.052,0,4.096-0.838,5.577-2.483c2.771-3.079,2.521-7.821-0.558-10.592
			l-59.583-53.625C206.827,7.261,187.905,0,168.196,0H43.574c-3.346,0-6.287,2.216-7.209,5.433
			c-0.922,3.216,0.397,6.654,3.234,8.428l50.482,31.55c10.122,6.326,21.78,9.669,33.715,9.669h5.685l30.051,20.035
			c0.235,0.157,0.476,0.303,0.713,0.457l-58.352,71.475c-2.002,2.453-2.249,5.898-0.616,8.611c1.374,2.283,3.83,3.633,6.424,3.633
			c0.488,0,0.981-0.048,1.472-0.146l31.11-6.222v79.029c0,3.189,2.016,6.029,5.026,7.081c0.811,0.283,1.646,0.42,2.472,0.42
			c2.242,0,4.419-1.007,5.87-2.83l21.518-27.035c4.272,3.523,8.856,6.68,13.7,9.43l49.779,50.275
			c1.437,1.451,3.367,2.224,5.331,2.224c0.96,0,1.929-0.185,2.852-0.564c2.812-1.156,4.647-3.896,4.647-6.936v-32.581h14.278
			l46.207,30.805c1.255,0.837,2.706,1.26,4.161,1.26c1.213,0,2.43-0.294,3.539-0.888c2.438-1.305,3.961-3.847,3.961-6.612v-23.694
			c5.397,1.272,10.408,3.911,14.56,7.734c1.441,1.327,3.262,1.982,5.078,1.982c2.023,0,4.041-0.814,5.52-2.42
			C351.588,236.556,351.392,231.811,348.344,229.006z M140.308,137.62l-13.57,2.714l14.452-17.702
			c-0.592,4.319-0.906,8.7-0.906,13.125C140.284,136.38,140.296,137,140.308,137.62z M155.284,210.486V187.14
			c2.704,4.23,5.734,8.231,9.05,11.975L155.284,210.486z M236.477,231.436v14.346l-15.343-15.497
			c4.834,0.755,9.785,1.15,14.827,1.15L236.477,231.436L236.477,231.436z M308.622,241.987l-15.826-10.551h15.826V241.987z"/>
	</g>
</g>
<g>
</g>
<g>
</g>
<g>
</g>
<g>
</g>
<g>
</g>
<g>
</g>
<g>
</g>
<g>
</g>
<g>
</g>
<g>
</g>
<g>
</g>
<g>
</g>
<g>
</g>
<g>
</g>
<g>
</g>
</svg>
