<?xml version="1.0" encoding="UTF-8"?>
<?xml-stylesheet type="text/css" href="../../css/style.css" ?>
<svg enable-background="new 0 0 512 512" version="1.1" viewBox="0 0 512 512" xml:space="preserve" xmlns="http://www.w3.org/2000/svg">
		<path d="m440.04 107.05h-0.08c-4.142 0-7.46 3.358-7.46 7.5s3.398 7.5 7.54 7.5 7.5-3.358 7.5-7.5-3.358-7.5-7.5-7.5z"/>
		<path d="m301.56 352.76c-12.741-10.376-28.796-16.088-45.231-16.088h-0.326c-4.142 0-7.5 3.358-7.5 7.5v34.815c0 6.515-2.588 12.763-7.195 17.37l-17.886 17.886v-85.788c0-4.107-3.164-7.688-7.269-7.811-4.247-0.128-7.731 3.278-7.731 7.497v8.532h-0.516c-26.219 0-47.544 21.453-47.581 47.672-0.05 35.603-29.03 64.554-64.645 64.554-21.374 0-40.359-10.429-52.134-26.462 9.124 5.852 19.94 9.288 31.536 9.395 33.089 0.305 60.163-27.447 60.163-60.537v-11.09c0-40.13 32.532-72.661 72.661-72.661h15.718c4.107 0 7.688-3.164 7.811-7.269 0.128-4.247-3.278-7.731-7.497-7.731h-16.032c-48.414 0-87.662 39.247-87.662 87.662v11.234c0 24.959-20.425 45.816-45.38 45.389-24.239-0.415-43.829-20.262-43.829-44.598v-36.976c0-3.159 0.935-6.247 2.687-8.875l12.085-18.128c1.284-1.926 1.607-4.336 0.875-6.532l-15.942-47.826c-0.923-2.768-3.267-4.927-6.158-5.327-3.641-0.504-7.033 1.665-8.163 5.056l-16.031 48.097c-0.732 2.196-0.409 4.606 0.875 6.532l12.085 18.128c1.752 2.628 2.687 5.716 2.687 8.875v47.968c0 44.297 35.715 80.875 80.012 80.674 43.683-0.198 79.172-35.743 79.278-79.448 0.044-18.027 14.554-32.777 32.581-32.777h0.516v129.29h-12.226c-4.107 0-7.688 3.164-7.811 7.269-0.128 4.247 3.278 7.731 7.497 7.731h24.048c1.896 0 3.705-0.727 5.105-2.005 3.014-2.751 8.042-6.011 14.935-6.011 6.922 0 11.964 3.288 14.974 6.046 1.44 1.319 3.255 1.97 5.065 1.97 2.112 0 4.217-0.887 5.709-2.634 2.667-3.122 2.154-7.883-0.898-10.63-6.988-6.292-15.799-9.753-24.85-9.753-5.749 0-11.399 1.401-16.548 4.032v-31.348c0-6.515 2.588-12.763 7.195-17.369l21.298-21.298c7.42-7.42 11.588-17.483 11.588-27.976v-26.856c10.484 1.346 20.478 5.618 28.709 12.36 3.434 2.813 8.616 2.071 11.087-1.783 2.062-3.214 1.224-7.534-1.739-9.947zm-285.78-49.777l7.757-23.271 7.757 23.271-7.757 11.636-7.757-11.636z"/>
		<path d="m511.78 133.94l-3.291-13.162c-3.596-14.387-14.792-25.458-29.219-28.893l-149.38-35.567c-3.024-0.719-6.177 0.5-7.929 3.064-1.753 2.565-1.743 5.946 0.025 8.501l46.763 67.547v117.92l-40.29-33.575c-5.617-4.681-8.839-11.559-8.839-18.871v-27.32c0-30.625-19.468-57.86-48.443-67.773l-261.24-89.372c-3.041-1.04-6.408-0.027-8.37 2.52-1.961 2.547-2.081 6.061-0.298 8.736l30.496 45.744c12.234 18.352 30.402 32.574 51.155 40.045l1.207 0.434 27.194 39.583c12.697 18.481 31.404 32.564 52.676 39.655l4.651 1.55 22.997 32.185c12.822 17.95 30.661 31.126 51.588 38.102l114.62 38.205c0.787 0.262 1.586 0.387 2.373 0.387 3.14 0 6.066-1.988 7.114-5.13 1.31-3.929-0.814-8.177-4.744-9.487l-114.62-38.205c-17.9-5.967-33.159-17.236-44.125-32.59l-10.998-15.398 84.834 28.278c0.787 0.262 1.586 0.387 2.373 0.387 3.14 0 6.066-1.988 7.114-5.13 1.31-3.93-0.814-8.177-4.744-9.487l-113.69-37.896c-18.195-6.065-34.196-18.111-45.056-33.918l-15.379-22.385 145.16 52.259c3.899 1.403 8.194-0.619 9.597-4.516s-0.619-8.194-4.516-9.597l-170.55-61.398c-17.752-6.391-33.291-18.555-43.755-34.253l-18.214-27.32 240.29 82.205c22.908 7.837 38.299 29.369 38.299 53.581v27.32c0 11.777 5.189 22.855 14.236 30.394l84.656 70.547c1.402 1.168 3.104 1.739 4.797 1.739 2.149 0 4.282-0.919 5.766-2.699 2.652-3.182 2.222-7.911-0.96-10.563l-29.366-24.472v-109.42c10.471 11.911 25.625 18.875 41.684 18.894-5.368 6.755-8.586 15.292-8.586 24.573 0 11.443 1.834 22.748 5.453 33.602l27.179 81.538c3.928 11.783 0.912 24.558-7.871 33.341l-9.761 9.761v-13.958c0-4.142-3.358-7.5-7.5-7.5s-7.5 3.358-7.5 7.5v32.062 5e-3 2.748c0 6.561-2.555 12.73-7.195 17.37l-17.886 17.885v-46.022c0-4.142-3.358-7.5-7.5-7.5s-7.5 3.358-7.5 7.5v16.548h-16.874c-12.689 0-25.16-4.333-35.114-12.201-3.25-2.569-7.966-2.016-10.535 1.233-2.569 3.25-2.017 7.966 1.233 10.535 12.591 9.952 28.365 15.433 44.416 15.433h16.874v81.194h-12.541c-4.142 0-7.5 3.358-7.5 7.5s3.358 7.5 7.5 7.5h24.048c1.876 0 3.684-0.703 5.067-1.971 3.01-2.758 8.051-6.045 14.974-6.045s11.963 3.288 14.973 6.045c1.439 1.319 3.255 1.971 5.065 1.971 2.029 0 4.052-0.819 5.531-2.433 2.799-3.054 2.592-7.798-0.462-10.596-7.027-6.44-15.944-9.987-25.107-9.987-5.749 0-11.399 1.401-16.548 4.032v-31.348c0-6.562 2.555-12.73 7.194-17.37l21.298-21.298c7.387-7.387 11.486-17.181 11.58-27.612l20.377-20.377c12.826-12.826 17.23-31.483 11.495-48.691l-27.179-81.538c-3.107-9.322-4.683-19.031-4.683-28.864 0-13.545 11.02-24.565 24.564-24.565h32.064c4.142 0 7.5-3.358 7.5-7.5s-3.358-7.5-7.5-7.5h-40.597v-8.532c0-4.705 3.828-8.532 8.532-8.532h32.581v0.516c0 4.142 3.358 7.5 7.5 7.5s7.5-3.358 7.5-7.5v-0.516h0.516c2.31 0 4.49-1.064 5.912-2.885 1.42-1.82 1.924-4.193 1.363-6.434zm-55.373-5.681c-12.975 0-23.532 10.557-23.532 23.532v8.532h-7.38c-13.319 0-25.797-6.538-33.378-17.489l-14.39-20.785h34.926c4.142 0 7.5-3.358 7.5-7.5s-3.358-7.5-7.5-7.5h-45.311l-21.88-31.604 130.33 31.032c8.957 2.133 15.908 9.007 18.142 17.939l0.96 3.843h-38.491z"/>
</svg>
