<?xml version="1.0" encoding="iso-8859-1"?>
<!-- Generator: Adobe Illustrator 19.0.0, SVG Export Plug-In . SVG Version: 6.00 Build 0)  -->
<svg version="1.1" id="Capa_1" xmlns="http://www.w3.org/2000/svg" xmlns:xlink="http://www.w3.org/1999/xlink" x="0px" y="0px"
	 viewBox="0 0 512 512" style="enable-background:new 0 0 512 512;" xml:space="preserve">
<g>
	<g>
		<path d="M384.592,48.097h-0.08c-4.142,0-7.46,3.358-7.46,7.5c0,4.142,3.398,7.5,7.54,7.5c4.142,0,7.5-3.358,7.5-7.5
			C392.092,51.455,388.734,48.097,384.592,48.097z"/>
	</g>
</g>
<g>
	<g>
		<path d="M256.257,224.452H220.18c-46.695,0-84.685-37.99-84.685-84.686s37.99-84.686,84.685-84.686h36.073
			c4.142,0,7.5-3.358,7.5-7.5c0-4.142-3.358-7.5-7.5-7.5H220.18c-39.351,0-73.446,22.922-89.644,56.113H95.424
			c-7.004,0-13.593,3.086-18.078,8.468L46.6,141.556c-5.732-3.438-12.204-5.281-18.807-5.281c-9.163,0-18.079,3.546-25.107,9.986
			c-3.054,2.798-3.261,7.542-0.463,10.597c1.479,1.614,3.502,2.433,5.532,2.433c1.81,0,3.625-0.651,5.065-1.97
			c3.01-2.758,8.051-6.045,14.974-6.045c6.923,0,11.963,3.287,14.973,6.045c1.383,1.268,3.191,1.971,5.067,1.971h24.048
			c4.142,0,7.5-3.357,7.5-7.5c0-4.142-3.358-7.5-7.5-7.5h-8.035l14.265-17.118l42.443,9.337c-0.035,1.082-0.059,2.166-0.059,3.256
			c0,54.967,44.719,99.686,99.685,99.686h36.076v-0.001c4.142,0,7.5-3.358,7.5-7.5C263.757,227.81,260.399,224.452,256.257,224.452z
			 M122.178,121.507l-33.245-7.313c1.625-1.906,3.983-3.001,6.491-3.001h29.252C123.667,114.561,122.83,118.002,122.178,121.507z"/>
	</g>
</g>
<g>
	<g>
		<path d="M509.313,322.616c-7.028-6.44-15.944-9.987-25.107-9.987c-6.602,0-13.075,1.843-18.807,5.281l-30.746-36.895
			c-4.484-5.381-11.074-8.467-18.078-8.467h-18.204c-9.307-54.542-56.908-96.194-114.062-96.194h-60.121
			c-17.965,0-32.581-14.615-32.581-32.58c0-2.613,0.318-5.151,0.901-7.587l40.975-9.015l14.265,17.118h-8.035
			c-4.142,0-7.5,3.358-7.5,7.5c0,4.143,3.358,7.5,7.5,7.5h24.048c1.876,0,3.684-0.703,5.067-1.971
			c3.01-2.758,8.05-6.045,14.973-6.045c6.923,0,11.964,3.287,14.974,6.045c1.439,1.319,3.255,1.971,5.065,1.971
			c2.029,0,4.052-0.818,5.531-2.433c2.799-3.054,2.592-7.798-0.462-10.597c-7.027-6.44-15.944-9.986-25.107-9.986
			c-6.602,0-13.075,1.843-18.807,5.281l-25.301-30.362h102.332c7.763,5.214,16.892,8.017,26.453,8.017h72.145
			c4.142,0,7.5-3.358,7.5-7.5c0-4.143-3.358-7.5-7.5-7.5h-48.613v-8.532c0-4.705,3.828-8.532,8.532-8.532h40.597v0.516
			c0,4.143,3.358,7.5,7.5,7.5c4.142,0,7.5-3.357,7.5-7.5v-0.516h0.516c4.142,0,7.5-3.358,7.5-7.5V57.848
			c0-4.812-2.175-9.269-5.967-12.23c-3.792-2.961-8.646-3.99-13.312-2.823l-17.701,4.425c-0.175,0.044-0.363-0.008-0.491-0.136
			L407.223,27.62c-7.473-7.473-17.409-11.588-27.977-11.588h-47.753C321.022,5.695,307.172,0,292.444,0h-76.271
			c-4.142,0-7.5,3.358-7.5,7.5s3.358,7.5,7.5,7.5h36.974l23.797,23.797c10.5,10.5,24.461,16.284,39.312,16.284h36.191
			c3.034,0,5.768-1.828,6.929-4.63s0.519-6.029-1.626-8.173l-11.245-11.245h32.741c6.562,0,12.73,2.555,17.37,7.195l19.464,19.464
			c3.831,3.831,9.476,5.395,14.734,4.081l17.701-4.426c0.073-0.018,0.244-0.061,0.443,0.094c0.198,0.155,0.198,0.332,0.198,0.407
			v14.298h-48.613c-12.976,0-23.532,10.556-23.532,23.532v8.532h-8.532c-8.703,0-16.884-3.389-23.038-9.543l-21.298-21.298
			c-5.958-5.958-13.881-9.24-22.308-9.24h-5.501c-4.142,0-7.5,3.358-7.5,7.5c0,4.143,3.358,7.5,7.5,7.5h5.501
			c4.42,0,8.576,1.722,11.702,4.847l12.218,12.218h-50.979V82.15c0-4.143-3.358-7.5-7.5-7.5c-4.142,0-7.5,3.357-7.5,7.5v14.043
			h-35.587c-4.963,0-9.75,0.767-14.251,2.183l-5.86-10.921c-1.958-3.649-6.504-5.021-10.155-3.062
			c-3.65,1.959-5.021,6.505-3.062,10.155l5.663,10.553c-12.045,8.642-19.914,22.751-19.914,38.674c0,0.638,0.023,1.271,0.048,1.903
			l-11.774,2.444c-4.056,0.842-6.661,4.812-5.82,8.867c0.735,3.542,3.856,5.978,7.336,5.978c0.505,0,1.018-0.051,1.532-0.158
			l11.676-2.423c5.243,14.025,16.924,24.926,31.429,29.106l-1.511,9.178c-0.673,4.087,2.095,7.946,6.182,8.619
			c0.413,0.068,0.822,0.101,1.228,0.101c3.606,0,6.786-2.608,7.391-6.283l1.605-9.751h56.558v8.533c0,4.142,3.358,7.5,7.5,7.5
			c4.142,0,7.5-3.358,7.5-7.5v-7.67c21.874,2.871,41.557,12.788,56.696,27.391l-3.033,3.033c-2.929,2.929-2.928,7.678,0,10.606
			c1.465,1.464,3.384,2.196,5.303,2.196s3.839-0.732,5.304-2.197l2.436-2.437c12.394,16.124,20.023,36.086,20.766,57.771h-3.455
			c-4.142,0-7.5,3.358-7.5,7.5c0,4.142,3.358,7.5,7.5,7.5h2.861c-2.123,18.581-9.321,35.639-20.171,49.754l-0.266-0.266
			c-2.93-2.929-7.677-2.929-10.607,0c-2.929,2.929-2.928,7.678,0,10.606l0.861,0.862c-15.524,14.974-35.83,25.018-58.374,27.592
			c-0.078-4.075-3.399-7.355-7.493-7.355c-4.142,0-7.5,3.357-7.5,7.5v0.516h-0.516c-39.496,0-71.629,32.133-71.629,71.629v8.016
			c0,10.931-7.176,20.217-17.064,23.394v-31.41c0-53.325,43.384-96.709,96.709-96.709c39.497,0,71.629-32.133,71.629-71.629
			c0-39.496-32.133-71.629-71.629-71.629c-4.142,0-7.5,3.358-7.5,7.5c0,4.142,3.358,7.5,7.5,7.5
			c22.831,0,42.536,13.589,51.488,33.097h-51.995c-7.005,0-13.594,3.086-18.078,8.467l-30.745,36.895
			c-5.732-3.438-12.204-5.281-18.806-5.281c-9.164,0-18.081,3.547-25.108,9.987c-3.054,2.798-3.26,7.542-0.462,10.596
			c1.479,1.614,3.502,2.433,5.531,2.433c1.81,0,3.625-0.651,5.065-1.971c3.009-2.758,8.05-6.046,14.973-6.046
			c6.923,0,11.963,3.288,14.973,6.046c1.383,1.268,3.191,1.971,5.067,1.971h24.048c4.142,0,7.5-3.358,7.5-7.5
			c0-4.143-3.358-7.5-7.5-7.5h-8.036l14.265-17.119l69.652,15.324c-8.784,19.916-28.705,33.859-51.833,33.859
			c-61.597,0-111.709,50.112-111.709,111.709v40.08c0,4.142,3.358,7.5,7.5,7.5c21.816,0,39.564-17.749,39.564-39.564v-8.016
			c0-31.225,25.404-56.629,56.629-56.629h4.008c57.246,0,104.909-41.787,114.106-96.459l35.472-7.804l14.265,17.119h-8.036
			c-4.142,0-7.5,3.357-7.5,7.5c0,4.142,3.358,7.5,7.5,7.5h24.048c1.876,0,3.684-0.703,5.067-1.971
			c3.009-2.758,8.05-6.046,14.973-6.046c6.923,0,11.964,3.288,14.974,6.046c1.439,1.319,3.255,1.971,5.065,1.971
			c2.029,0,4.052-0.819,5.531-2.434C512.575,330.158,512.368,325.414,509.313,322.616z M316.256,40.081
			c-10.844,0-21.039-4.223-28.706-11.89L274.36,15h18.083c10.844,0,21.039,4.223,28.707,11.891l13.19,13.19H316.256z
			 M220.363,111.426l2.306,2.768l-18.791,4.133C208.512,114.621,214.174,112.154,220.363,111.426z M281.32,290.549
			c1.624-1.907,3.983-3.001,6.49-3.001h56.493c0.422,2.784,0.643,5.633,0.643,8.533c0,2.83-0.215,5.61-0.618,8.331L281.32,290.549z
			 M400.005,295.623c-0.007-0.119-0.01-0.239-0.023-0.356c0.029-1.062,0.046-2.126,0.046-3.194c0-1.516-0.039-3.022-0.097-4.524
			h16.645v-0.001c2.508,0,4.866,1.095,6.491,3.001L400.005,295.623z"/>
	</g>
</g>
<g>
</g>
<g>
</g>
<g>
</g>
<g>
</g>
<g>
</g>
<g>
</g>
<g>
</g>
<g>
</g>
<g>
</g>
<g>
</g>
<g>
</g>
<g>
</g>
<g>
</g>
<g>
</g>
<g>
</g>
</svg>
