<?xml version="1.0" encoding="UTF-8"?>
<?xml-stylesheet type="text/css" href="../../css/style.css" ?>
<svg enable-background="new 0 0 512 512" version="1.1" viewBox="0 0 512 512" xml:space="preserve" xmlns="http://www.w3.org/2000/svg">
		<path d="m405.59 443.08l-22.671-22.672c-7.472-7.473-17.408-11.589-27.976-11.589h-35.332v-52.81l61.04-44.393c3.35-2.436 4.091-7.127 1.654-10.477-2.436-3.349-7.125-4.09-10.477-1.654l-52.218 37.977v-9.32c0-4.143-3.358-7.5-7.5-7.5s-7.5 3.357-7.5 7.5v73.733l-7.581-5.896c-6.027-4.688-9.483-11.754-9.483-19.39v-8.488-0.014-31.929c0-4.142-3.358-7.5-7.5-7.5s-7.5 3.358-7.5 7.5v23.028l-63.264-11.862c-4.071-0.764-7.991 1.918-8.754 5.989s1.918 7.99 5.989 8.754l66.028 12.38v2.142c0 12.298 5.567 23.681 15.274 31.23l51.082 39.73c6.91 5.375 15.537 8.334 24.291 8.334h37.095c3.034 0 5.768-1.827 6.929-4.63 1.161-2.802 0.519-6.029-1.626-8.173zm-42.396-2.196c-5.435 0-10.792-1.837-15.082-5.174l-15.287-11.891h22.118c6.562 0 12.73 2.556 17.37 7.195l9.87 9.87h-18.989z"/>
		<path d="m488.47 216.44h-20.942l-12.46-12.46c-7.473-7.473-17.408-11.588-27.976-11.588h-14.32c-16.006 0-31.468 4.75-44.714 13.736-0.043 0.029-0.085 0.059-0.127 0.089l-68.341 48.456-29.257-32.914c-12.061-13.568-29.39-21.351-47.544-21.351h-143.14c-3.034 0-5.768 1.827-6.929 4.63s-0.519 6.028 1.626 8.174l22.673 22.672c7.473 7.473 17.408 11.588 27.976 11.588h0.12l11.311 9.048h-44.753c-20.175 0-36.589-16.414-36.589-36.588 0-20.175 16.414-36.589 36.589-36.589h12.024c35.076 0 63.613-28.537 63.613-63.613s-28.537-63.613-63.613-63.613h-48.096c-4.142 0-7.5 3.358-7.5 7.5s3.358 7.5 7.5 7.5h40.081c17.965 0 32.581 14.616 32.581 32.581s-14.616 32.581-32.581 32.581h-8.016c-48.337-1e-3 -87.662 39.324-87.662 87.661 0 44.677 33.596 81.651 76.851 86.994l-26.331 65.828h-2.939c-12.976 0-23.532 10.557-23.532 23.532v32.064c0 12.976 10.557 23.533 23.532 23.533h40.081c2.841 0 5.438-1.605 6.708-4.146 1.271-2.541 0.997-5.581-0.708-7.854l-19.238-25.651c-4.42-5.895-11.458-9.414-18.826-9.414h-16.55v-8.532c0-4.704 3.828-8.532 8.532-8.532h49.58c11.409 0 22.262-4.924 29.776-13.511l23.374-26.713 24.147 4.524c0.467 0.087 0.932 0.129 1.391 0.129 3.538 0 6.688-2.515 7.363-6.119 0.763-4.071-1.918-7.99-5.989-8.753l-15.438-2.895 11.684-13.353c2.728-3.117 2.412-7.855-0.706-10.583-3.117-2.727-7.855-2.412-10.583 0.706l-46.531 53.179c-4.665 5.331-11.403 8.389-18.487 8.389h-30.487l25.842-64.605c9.875-24.686 33.434-40.636 60.021-40.636h3.415c8.631 5.202 18.607 8.016 28.741 8.016h4.547l24.851 19.882c9.82 7.856 22.155 12.183 34.731 12.183h39.241c4.142 0 7.5-3.358 7.5-7.5s-3.358-7.5-7.5-7.5h-39.241c-9.184 0-18.19-3.159-25.361-8.896l-10.211-8.169h42.75c4.142 0 7.5-3.358 7.5-7.5s-3.358-7.5-7.5-7.5h-71.306c-9.183 0-18.189-3.159-25.36-8.896l-10.211-8.168h82.829c4.142 0 7.5-3.358 7.5-7.5s-3.358-7.5-7.5-7.5h-106.96c-6.562 0-12.73-2.555-17.37-7.195l-9.87-9.87h125.03c13.874 0 27.116 5.947 36.333 16.316l47.388 53.312c1.482 1.667 3.54 2.517 5.608 2.517 1.772 0 3.551-0.625 4.98-1.895 3.096-2.751 3.375-7.493 0.623-10.588l-8.105-9.118 51.73-36.678c2.424 10.414 11.774 18.199 22.916 18.199 4.142 0 7.5-3.358 7.5-7.5s-3.358-7.5-7.5-7.5c-4.705 0-8.533-3.828-8.533-8.532s3.828-8.532 8.533-8.532c3.025 0 5.853 1.627 7.38 4.246 2.087 3.579 6.68 4.787 10.257 2.701 3.578-2.086 4.788-6.679 2.701-10.257-0.793-1.359-1.714-2.621-2.741-3.775 3.583-0.611 7.23-0.932 10.914-0.932h14.319c6.562 0 12.73 2.555 17.37 7.195l14.657 14.657c1.407 1.407 3.314 2.197 5.303 2.197h24.048c4.705 0 8.532 3.828 8.532 8.532v8.532h-48.613c-12.976 0-23.532 10.557-23.532 23.532v8.532h-7.963c-8.703 0-16.884-3.389-23.038-9.542l-12.309-12.309c-2.929-2.929-7.678-2.929-10.606 0-2.929 2.929-2.929 7.678 0 10.606l12.309 12.309c8.987 8.987 20.935 13.936 33.645 13.936h71.576c4.142 0 7.5-3.358 7.5-7.5s-3.358-7.5-7.5-7.5h-48.613v-8.532c0-4.705 3.828-8.532 8.532-8.532h40.597v0.516c0 4.142 3.358 7.5 7.5 7.5s7.5-3.358 7.5-7.5v-0.517h0.516c4.142 0 7.5-3.358 7.5-7.5v-16.032c0-12.976-10.557-23.532-23.532-23.532zm-449.42 207.39h16.548c2.671 0 5.223 1.276 6.826 3.413l10.239 13.652h-25.081c-4.705 0-8.532-3.828-8.532-8.533v-8.532zm44.435-127.35c-38.128-2.173-68.484-33.87-68.484-72.532 0-40.065 32.596-72.661 72.661-72.661h8.016c26.236 0 47.581-21.345 47.581-47.581 0-5.424-0.912-10.637-2.591-15.497 7.255 8.494 11.64 19.509 11.64 31.529 0 26.806-21.808 48.613-48.613 48.613h-12.025c-28.446 0-51.589 23.143-51.589 51.589s23.143 51.588 51.589 51.588h14.224c-9.04 6.527-16.708 14.982-22.409 24.952z"/>
		<path d="m432.44 224.45h-0.08c-4.142 0-7.46 3.358-7.46 7.5s3.398 7.5 7.54 7.5 7.5-3.358 7.5-7.5-3.358-7.5-7.5-7.5z"/>
</svg>
