<?xml version="1.0" encoding="iso-8859-1"?>
<!-- Generator: Adobe Illustrator 19.0.0, SVG Export Plug-In . SVG Version: 6.00 Build 0)  -->
<svg version="1.1" id="Capa_1" xmlns="http://www.w3.org/2000/svg" xmlns:xlink="http://www.w3.org/1999/xlink" x="0px" y="0px"
	 viewBox="0 0 512 512" style="enable-background:new 0 0 512 512;" xml:space="preserve">
<g>
	<g>
		<path d="M356.286,136.274h-0.08c-4.142,0-7.46,3.357-7.46,7.5c0,4.142,3.398,7.5,7.54,7.5c4.142,0,7.5-3.358,7.5-7.5
			C363.786,139.632,360.428,136.274,356.286,136.274z"/>
	</g>
</g>
<g>
	<g>
		<path d="M419.818,129.491V63.613c0-4.142-3.358-7.5-7.5-7.5c-4.142,0-7.5,3.358-7.5,7.5c0,22.385-18.211,40.597-40.597,40.597
			h-88.693v-0.517c0-4.705,3.828-8.532,8.532-8.532h32.064c8.556,0,15.516-6.96,15.516-15.516V7.5c0-4.142-3.358-7.5-7.5-7.5
			c-4.142,0-7.5,3.358-7.5,7.5c0,21.419-16.677,39.006-37.728,40.484c2.935-4.79,4.631-10.418,4.631-16.436
			c0-4.142-3.358-7.5-7.5-7.5c-4.142,0-7.5,3.358-7.5,7.5c0,9.125-7.423,16.548-16.548,16.548h-8.017
			c-91.575,0-166.242,73.73-167.786,164.944c-0.008,0.326-0.037,2.244-0.037,2.878c0,61.597,50.113,111.709,111.709,111.709h84.169
			c24.595,0,44.605,20.01,44.605,44.605c0,24.595-20.01,44.605-44.605,44.605h-92.186c-35.076,0-63.613,28.536-63.613,63.613v24.05
			c0,4.142,3.358,7.5,7.5,7.5h8.016c17.396,0,31.548-14.153,31.548-31.548c0-9.125,7.423-16.548,16.548-16.548h92.186
			c54.967,0,99.686-44.719,99.686-99.686c0-54.967-44.719-99.686-99.686-99.686h-64.129c-6.915,0-12.541-5.625-12.541-12.54
			c0-6.915,5.625-12.541,12.541-12.541h31.122c5.58,4.981,12.932,8.016,20.983,8.016h48.097c0.285,0,0.516,0.231,0.516,0.516
			c0,4.142,3.358,7.5,7.5,7.5c4.142,0,7.5-3.358,7.5-7.5c0-8.556-6.96-15.516-15.516-15.516H283.54v-8.532
			c0-0.285,0.231-0.516,0.516-0.516h32.064c8.556,0,15.516-6.96,15.516-15.516v-0.517h70.044c1.674,0,2.545,1.034,2.916,1.65
			c0.103,0.171,0.154,0.643,0.127,1.286c-0.155,3.796,2.609,7.095,6.342,7.803c4.603,0.874,9.016-2.574,9.038-7.26
			c0.016-3.386-0.918-6.766-2.792-9.786c-3.426-5.521-9.638-8.692-16.136-8.692H363.7v-8.532c0-4.704,3.828-8.532,8.532-8.532
			h40.597v0.517c0,4.142,3.358,7.5,7.5,7.5c4.142,0,7.5-3.358,7.5-7.5v-0.517h0.516c4.142,0,7.5-3.357,7.5-7.5V151.79
			C435.85,141.437,429.126,132.63,419.818,129.491z M404.818,101.561v26.697h-6.587c-4.42,0-8.576-1.721-11.702-4.847l-6.508-6.507
			C389.62,114.053,398.149,108.691,404.818,101.561z M91.527,224.34l56.846,6.316c0.752,14.44,7.477,27.317,17.736,36.228
			l-21.308,35.609C115.412,287.814,94.498,258.607,91.527,224.34z M91.392,209.232c2.391-34.83,23.302-64.646,52.936-79.651
			l27.541,55.082c-10.876,7.066-18.932,18.108-22.092,31.058L91.392,209.232z M196.4,448.903L196.4,448.903H179.85
			c-17.396,0-31.548,14.153-31.548,31.548c0,9.125-7.423,16.548-16.548,16.548h-0.516v-16.548c0-26.805,21.808-48.613,48.613-48.613
			H196.4V448.903z M252.512,448.903h-41.113v-17.064h41.113V448.903z M272.036,448.903h-4.524v-17.064h4.524
			c12.837,0,24.729-4.093,34.468-11.023l13.29,13.29C306.189,443.433,289.742,448.903,272.036,448.903z M331.421,424.519
			l-13.865-13.865c8.074-9.551,13.204-21.662,13.975-34.928h24.388C353.328,394.702,344.441,411.694,331.421,424.519z
			 M356.633,360.726h-26.117c-2.201-11.203-7.552-21.284-15.088-29.293l21.523-21.523
			C348.581,323.788,355.846,341.433,356.633,360.726z M259.496,279.532h12.541c20.653,0,39.595,7.441,54.308,19.771l-22.537,22.537
			c-9.204-5.824-20.096-9.211-31.771-9.211h-12.541V279.532z M199.891,279.532h44.604v33.097h-56.629
			c-10.096,0-19.835-1.558-28.991-4.441l19.87-33.207C185.204,277.896,192.358,279.532,199.891,279.532z M316.642,207.903
			L316.642,207.903c-0.001,0.284-0.232,0.516-0.517,0.516h-32.064c-8.556,0-15.516,6.96-15.516,15.516v8.532h-8.533
			c-9.125,0-16.548-7.424-16.548-16.548c0-4.142-3.358-7.5-7.5-7.5c-4.142,0-7.5,3.358-7.5,7.5c0,2.957,0.418,5.816,1.182,8.532
			h-21.738c-15.186,0-27.541,12.354-27.541,27.541c0,2.605,0.372,5.124,1.051,7.515c-10.827-6.362-18.115-18.124-18.115-31.563
			c0-20.175,16.414-36.589,36.589-36.589h60.637v0.517c0,4.142,3.358,7.5,7.5,7.5c4.142,0,7.5-3.358,7.5-7.5v-0.517h0.516
			c16,0,30.444-6.794,40.597-17.648V207.903z M420.853,160.322h-0.002h-48.613c-12.976,0-23.532,10.557-23.532,23.532v8.532h-17.064
			v-56.629c0-4.142-3.358-7.5-7.5-7.5c-4.142,0-7.5,3.358-7.5,7.5c0,21.42-16.677,39.006-37.728,40.484
			c2.935-4.79,4.631-10.418,4.631-16.436c0-4.143-3.358-7.5-7.5-7.5c-4.142,0-7.5,3.357-7.5,7.5c0,9.125-7.423,16.548-16.548,16.548
			h-52.105c-4.99,0-9.811,0.727-14.378,2.054l-27.275-54.55c9.342-3.014,19.298-4.648,29.629-4.648h32.064
			c4.142,0,7.5-3.358,7.5-7.5c0-4.143-3.358-7.5-7.5-7.5h-32.064c-15.116,0-29.538,3.024-42.7,8.489l-0.125,0.051
			c-9.364,3.901-18.088,9.038-25.964,15.211c27.693-39.209,73.356-64.865,124.902-64.865h16.549v0.516c0,4.142,3.358,7.5,7.5,7.5
			c4.142,0,7.5-3.358,7.5-7.5v-0.516h0.516c16,0,30.444-6.795,40.597-17.649v34.197c0,0.285-0.231,0.516-0.516,0.516h-32.064
			c-12.976,0-23.532,10.557-23.532,23.532v0.517h-8.53c-4.142,0-7.5,3.357-7.5,7.5c0,4.142,3.358,7.5,7.5,7.5h102.262
			c4.42,0,8.576,1.721,11.702,4.847l9.961,9.961c5.958,5.959,13.881,9.24,22.308,9.24h14.087c4.705,0,8.532,3.828,8.532,8.532
			V160.322z"/>
	</g>
</g>
<g>
</g>
<g>
</g>
<g>
</g>
<g>
</g>
<g>
</g>
<g>
</g>
<g>
</g>
<g>
</g>
<g>
</g>
<g>
</g>
<g>
</g>
<g>
</g>
<g>
</g>
<g>
</g>
<g>
</g>
</svg>
