<?xml version="1.0" encoding="iso-8859-1"?>
<!-- Generator: Adobe Illustrator 19.0.0, SVG Export Plug-In . SVG Version: 6.00 Build 0)  -->
<svg version="1.1" id="Capa_1" xmlns="http://www.w3.org/2000/svg" xmlns:xlink="http://www.w3.org/1999/xlink" x="0px" y="0px"
	 viewBox="0 0 512 512" style="enable-background:new 0 0 512 512;" xml:space="preserve">
<g>
	<g>
		<path d="M488.468,152.306h-12.926l-4.444-4.444c-7.473-7.473-17.409-11.588-27.977-11.588h-91.085l-3.515-4.077
			c-2.705-3.137-7.44-3.488-10.578-0.784c-3.137,2.705-3.488,7.44-0.784,10.578l23.807,27.617c2.299,2.667,4.919,4.982,7.774,6.917
			v79.474c0,4.142,3.358,7.5,7.5,7.5c4.142,0,7.5-3.358,7.5-7.5v-73.333c2.354,0.435,4.759,0.671,7.193,0.671h9.356
			c4.142,0,7.5-3.358,7.5-7.5c0-4.142-3.358-7.5-7.5-7.5h-9.356c-7.153,0-13.935-3.107-18.605-8.525l-7.361-8.539h78.154
			c6.562,0,12.73,2.555,17.37,7.195l6.641,6.641c1.406,1.406,3.314,2.197,5.303,2.197h16.032c4.705,0,8.532,3.828,8.532,8.532v8.532
			h-40.597c-12.976,0-23.532,10.557-23.532,23.532v8.532h-0.516c-9.125,0-16.548-7.424-16.548-16.548c0-4.142-3.358-7.5-7.5-7.5
			c-4.142,0-7.5,3.358-7.5,7.5c0,12.776,7.638,23.794,18.583,28.75c-3.379,6.14-3.869,13.49-1.236,20.07l20.606,51.515
			c9.72,24.302,1.634,51.899-19.664,67.113l-3.289,2.349v-17.49c0-4.142-3.358-7.5-7.5-7.5c-4.142,0-7.5,3.358-7.5,7.5v54.039
			l-9.87-9.87c-4.64-4.64-7.195-10.809-7.195-17.37v-26.799c0-4.142-3.358-7.5-7.5-7.5c-4.142,0-7.5,3.358-7.5,7.5v24.564h-15.569
			c-10.232,0-20.161-2.107-29.511-6.262l-8.548-3.799c-3.784-1.682-8.217,0.022-9.899,3.807c-1.682,3.785,0.022,8.218,3.808,9.9
			l8.548,3.799c11.28,5.013,23.258,7.555,35.603,7.555h17.674c1.925,5.664,5.129,10.857,9.483,15.211l13.282,13.281
			c4.64,4.64,7.195,10.809,7.195,17.37v19.299h-12.541c-4.142,0-7.5,3.358-7.5,7.5c0,4.142,3.358,7.5,7.5,7.5h24.048
			c1.876,0,3.684-0.703,5.067-1.971c3.01-2.758,8.051-6.045,14.974-6.045c6.923,0,11.963,3.288,14.973,6.045
			c1.439,1.319,3.255,1.971,5.065,1.971c2.029,0,4.052-0.819,5.531-2.433c2.799-3.054,2.592-7.798-0.462-10.596
			c-7.027-6.44-15.944-9.987-25.107-9.987c-5.749,0-11.399,1.401-16.548,4.032v-64.818l12.008-8.577
			c26.94-19.243,37.167-54.151,24.872-84.889l-20.606-51.515c-1.068-2.671-0.756-5.57,0.857-7.952
			c1.613-2.383,4.188-3.749,7.065-3.749h48.465c4.142,0,7.5-3.358,7.5-7.5c0-4.142-3.358-7.5-7.5-7.5h-40.597v-8.532
			c0-4.705,3.828-8.532,8.532-8.532h32.581v0.516c0,4.142,3.358,7.5,7.5,7.5c4.142,0,7.5-3.358,7.5-7.5v-0.516h0.516
			c4.142,0,7.5-3.358,7.5-7.5v-16.032C512,162.862,501.444,152.306,488.468,152.306z"/>
	</g>
</g>
<g>
	<g>
		<path d="M448.468,160.322h-0.08c-4.142,0-7.46,3.358-7.46,7.5c0,4.142,3.398,7.5,7.54,7.5c4.142,0,7.5-3.358,7.5-7.5
			C455.968,163.68,452.61,160.322,448.468,160.322z"/>
	</g>
</g>
<g>
	<g>
		<path d="M413.108,314.367l-84.656-70.547c-5.617-4.681-8.839-11.559-8.839-18.871v-27.32c0-30.625-19.468-57.86-48.443-67.773
			L9.928,40.484c-3.04-1.04-6.408-0.027-8.37,2.52c-1.961,2.547-2.081,6.061-0.298,8.736l30.496,45.744
			c12.234,18.353,30.402,32.574,51.155,40.045l1.171,0.422l27.229,39.596c12.697,18.481,31.404,32.564,52.676,39.655l4.953,1.651
			c0.21,0.493,0.472,0.971,0.796,1.425l21.899,30.658c3.729,5.22,7.893,10.023,12.423,14.4c-42.746,5.808-75.8,42.542-75.8,86.856
			v12.024c0,24.595-20.01,44.605-44.605,44.605c-24.595,0-44.605-20.01-44.605-44.605v-57.731l14.177,4.726
			c0.777,0.259,1.578,0.385,2.371,0.385c2.004,0,3.964-0.804,5.401-2.296c2.006-2.082,2.637-5.131,1.622-7.838l-24.048-64.129
			c-1.098-2.927-3.896-4.867-7.022-4.867c-3.126,0-5.925,1.939-7.022,4.867L0.478,301.462c-1.015,2.707-0.384,5.756,1.622,7.838
			c2.005,2.082,5.03,2.825,7.772,1.911l14.177-4.726v69.756c0,43.917,35.729,79.645,79.646,79.645s79.645-35.729,79.645-79.645
			c0-16.011,11.612-29.351,26.854-32.066l-17.582,70.328c-0.435,1.737-0.233,3.572,0.568,5.173l18.621,37.243h-7.906
			c-4.142,0-7.5,3.358-7.5,7.5c0,4.142,3.358,7.5,7.5,7.5h24.048c1.876,0,3.684-0.703,5.067-1.97
			c3.01-2.758,8.051-6.046,14.974-6.046c6.923,0,11.964,3.288,14.974,6.046c1.44,1.319,3.255,1.97,5.065,1.97
			c2.029,0,4.053-0.819,5.532-2.433c2.798-3.054,2.591-7.798-0.463-10.597c-7.028-6.44-15.945-9.986-25.107-9.986
			c-7.185,0-14.217,2.182-20.307,6.228l-17.975-35.951l20.114-12.068c10.392-6.235,18.75-15.26,24.168-26.099l10.255-20.514
			l14.756,6.558c0.99,0.44,2.024,0.648,3.042,0.648c2.873,0,5.615-1.661,6.857-4.456c1.682-3.784-0.022-8.216-3.807-9.898
			l-14.156-6.292c1.507-3.608-0.011-7.815-3.561-9.59c-3.705-1.852-8.21-0.351-10.062,3.354l-16.741,33.482
			c-4.142,8.283-10.528,15.18-18.47,19.945l-10.543,6.326l19.657-78.627c1.005-4.019-1.438-8.091-5.457-9.095
			c-4.014-1.002-8.09,1.438-9.095,5.457l-2.6,10.398c-25.376,0.981-45.721,21.921-45.721,47.533c0,35.646-29,64.645-64.646,64.645
			c-21.374,0-40.359-10.429-52.134-26.462c9.27,5.946,20.287,9.397,32.094,9.397c32.866,0,59.605-26.739,59.605-59.605v-12.024
			c0-40.066,32.596-72.661,72.661-72.661h6.644c6.461,3.876,13.368,7.076,20.66,9.507l114.615,38.205
			c0.787,0.262,1.586,0.387,2.373,0.387c3.14,0,6.066-1.988,7.114-5.13c1.31-3.93-0.814-8.177-4.744-9.487l-114.615-38.205
			c-17.9-5.967-33.159-17.236-44.125-32.59l-10.998-15.398l84.834,28.278c0.787,0.262,1.586,0.387,2.373,0.387
			c3.14,0,6.066-1.988,7.114-5.13c1.31-3.929-0.814-8.177-4.744-9.487l-113.689-37.896c-18.195-6.065-34.196-18.111-45.056-33.918
			l-15.379-22.385l145.164,52.259c3.898,1.404,8.194-0.619,9.597-4.516c1.403-3.897-0.619-8.194-4.516-9.597l-170.549-61.4
			c-17.751-6.39-33.291-18.555-43.755-34.252L26.023,61.843l240.291,82.205c22.908,7.837,38.299,29.369,38.299,53.58v27.32
			c0,11.776,5.189,22.855,14.236,30.395l84.656,70.547c1.402,1.168,3.104,1.739,4.797,1.739c2.149,0,4.282-0.919,5.766-2.699
			C416.72,321.748,416.29,317.019,413.108,314.367z M31.549,288.58c-0.801,0-1.602,0.128-2.372,0.385l-9.134,3.045l11.506-30.682
			l11.506,30.682l-9.134-3.045C33.151,288.708,32.349,288.58,31.549,288.58z"/>
	</g>
</g>
<g>
</g>
<g>
</g>
<g>
</g>
<g>
</g>
<g>
</g>
<g>
</g>
<g>
</g>
<g>
</g>
<g>
</g>
<g>
</g>
<g>
</g>
<g>
</g>
<g>
</g>
<g>
</g>
<g>
</g>
</svg>
