<?xml version="1.0" encoding="UTF-8"?>
<?xml-stylesheet type="text/css" href="../../css/style.css" ?>
<svg enable-background="new 0 0 512 512" version="1.1" viewBox="0 0 512 512" xml:space="preserve" xmlns="http://www.w3.org/2000/svg">
		<path d="m340.25 120.24h-0.08c-4.142 0-7.46 3.357-7.46 7.5 0 4.142 3.398 7.5 7.54 7.5s7.5-3.358 7.5-7.5-3.358-7.5-7.5-7.5z"/>
		<path d="m415.18 0.571c-2.803-1.16-6.028-0.519-8.173 1.626l-22.674 22.673c-7.473 7.473-11.588 17.408-11.588 27.976 0 19.482-15.85 35.332-35.331 35.332h-6.349c5.366-6.754 8.584-15.288 8.584-24.565 0-4.142-3.358-7.5-7.5-7.5s-7.5 3.358-7.5 7.5c0 13.545-11.02 24.564-24.564 24.564h-10.14c1.034-2.647 1.608-5.523 1.608-8.532 0-4.143-3.358-7.5-7.5-7.5s-7.5 3.357-7.5 7.5c0 4.704-3.828 8.532-8.532 8.532h-84.17c-50.546 0-91.669 41.123-91.669 91.669 0 50.547 41.123 91.669 91.669 91.669h44.092c4.142 0 7.5-3.358 7.5-7.5 0-1.919-0.721-3.671-1.908-4.998-0.749-0.849-19.054-21.645-31.338-35.599h53.798c46.696 0 84.686 37.99 84.686 84.686s-37.99 84.686-84.686 84.686h-20.041c-39.496 0-71.629 32.133-71.629 71.629v8.016c0 10.931-7.176 20.217-17.064 23.394v-31.41c0-53.325 43.384-96.709 96.709-96.709h16.033c30.656 0 55.597-24.941 55.597-55.597s-24.94-55.597-55.597-55.597c-4.142 0-7.5 3.358-7.5 7.5s3.358 7.5 7.5 7.5c22.385 0 40.597 18.211 40.597 40.597 0 22.385-18.211 40.597-40.597 40.597h-16.033c-61.597 0-111.71 50.112-111.71 111.71v40.081c0 4.142 3.358 7.5 7.5 7.5 21.816 0 39.564-17.749 39.564-39.564v-8.016c0-31.225 25.404-56.629 56.629-56.629h20.041c54.967 0 99.686-44.719 99.686-99.686 0-54.966-44.719-99.685-99.686-99.685h-68.137c-13.545 0-24.564-11.02-24.564-24.565s11.02-24.564 24.564-24.564h40.081c4.142 0 7.5-3.357 7.5-7.5 0-4.142-3.358-7.5-7.5-7.5h-40.081c-21.013 0-38.245 16.469-39.486 37.176l-27.769 41.654c-8.459-12.325-13.422-27.229-13.422-43.273 0-42.275 34.394-76.669 76.669-76.669h67.209c-4.132 5.809-6.572 12.9-6.572 20.556 0 19.606 15.951 35.556 35.557 35.556h4.524v0.517c0 17.396 14.152 31.548 31.548 31.548h41.164c-5.366 6.754-8.584 15.288-8.584 24.564 0 4.143 3.358 7.5 7.5 7.5s7.5-3.357 7.5-7.5c0-13.545 11.02-24.564 24.564-24.564h8.016c4.142 0 7.5-3.357 7.5-7.5 0-4.142-3.358-7.5-7.5-7.5h-48.613v-8.532c0-4.704 3.828-8.532 8.532-8.532h40.597v0.517c0 4.142 3.358 7.5 7.5 7.5s7.5-3.358 7.5-7.5v-2.459c4.774-2.648 8.016-7.737 8.016-13.573v-136.28c1e-3 -3.033-1.826-5.769-4.628-6.929zm-233.37 222.38l29.541 33.56h-27.498c-1.038 0-2.066-0.038-3.094-0.079l-7.225-35.714c2.636 1.028 5.403 1.791 8.276 2.233zm-29.092-20.962c0.777 1.498 1.642 2.941 2.597 4.319l9.68 47.85c-13.099-3.326-24.852-10.042-34.295-19.142l22.018-33.027zm252.1-58.221c0 0.284-0.231 0.516-0.516 0.516h-48.097c-12.976 1e-3 -23.533 10.558-23.533 23.533v8.532h-16.548c-9.125 0-16.548-7.423-16.548-16.548v-0.517h8.532c4.142 0 7.5-3.357 7.5-7.5 0-4.142-3.358-7.5-7.5-7.5h-28.057c-11.335 0-20.557-9.222-20.557-20.556 0-11.335 9.222-20.556 20.557-20.556h54.855c6.562 0 12.73 2.555 17.37 7.194l7.613 7.613c5.958 5.959 13.881 9.24 22.308 9.24 4.142 0 7.5-3.357 7.5-7.5 0-4.142-3.358-7.5-7.5-7.5-4.42 0-8.576-1.721-11.701-4.847l-7.613-7.613c-0.774-0.774-1.58-1.502-2.404-2.203 16.182-8.378 27.274-25.271 27.274-44.716 0-6.561 2.555-12.73 7.195-17.37l9.87-9.87v118.17z"/>
</svg>
