<?xml version="1.0" encoding="UTF-8"?>
<?xml-stylesheet type="text/css" href="../../css/style.css" ?>
<svg enable-background="new 0 0 511.998 511.998" version="1.1" viewBox="0 0 511.998 511.998" xml:space="preserve" xmlns="http://www.w3.org/2000/svg">
		<path d="m424.34 64.128h-64.128c-4.705 0-8.532-3.828-8.532-8.532s3.828-8.532 8.532-8.532h16.032c4.142 0 7.5-3.358 7.5-7.5s-3.358-7.5-7.5-7.5h-16.032c-12.976 0-23.532 10.557-23.532 23.532s10.556 23.532 23.532 23.532h32.581v0.516c0 4.142 3.358 7.5 7.5 7.5s7.5-3.358 7.5-7.5v-0.516h16.548c9.125 0 16.548 7.423 16.548 16.548 0 0.285-0.231 0.516-0.516 0.516h-32.064c-12.976 0-23.532 10.557-23.532 23.532v0.516h-0.517c-9.125 0-16.548-7.423-16.548-16.548 0-4.142-3.358-7.5-7.5-7.5s-7.5 3.358-7.5 7.5c0 17.396 14.152 31.548 31.548 31.548h48.097c4.142 0 7.5-3.358 7.5-7.5s-3.358-7.5-7.5-7.5h-32.581v-0.516c0-4.705 3.828-8.532 8.532-8.532h32.064c8.556 0 15.516-6.96 15.516-15.516 0-17.396-14.152-31.548-31.548-31.548z"/>
		<path d="m480.45 184.37h-64.129c-4.705 0-8.532-3.828-8.532-8.532s3.828-8.532 8.532-8.532h16.032c4.142 0 7.5-3.358 7.5-7.5s-3.358-7.5-7.5-7.5h-16.032c-12.976 0-23.532 10.557-23.532 23.532s10.557 23.532 23.532 23.532h32.581v0.516c0 4.142 3.358 7.5 7.5 7.5s7.5-3.358 7.5-7.5v-0.516h16.548c9.125 0 16.548 7.423 16.548 16.548 0 0.285-0.231 0.516-0.516 0.516h-32.064c-12.976 0-23.532 10.557-23.532 23.532v0.516h-0.516c-9.125 0-16.548-7.423-16.548-16.548 0-4.142-3.358-7.5-7.5-7.5s-7.5 3.358-7.5 7.5c0 2.957 0.418 5.816 1.182 8.532h-25.747c-21.816 0-39.564 17.749-39.564 39.564v166.26l-9.87-9.87c-4.64-4.64-7.195-10.809-7.195-17.37v-42.832c0-4.142-3.358-7.5-7.5-7.5s-7.5 3.358-7.5 7.5v21.495c-12.051 15.516-26.973 28.568-43.836 38.417l2.499-9.997c1.005-4.019-1.438-8.09-5.457-9.095-4.016-1.004-8.09 1.438-9.095 5.457l-4.04 16.158c-1.908 7.63-7.406 13.93-14.708 16.851l-14.573 5.829v-22.488c0-12.095 5.332-23.468 14.628-31.205 0 0 11.006-9.242 11.332-9.662 26.541-23.353 43.92-56.879 45.975-94.422h8.743c4.142 0 7.5-3.358 7.5-7.5s-3.358-7.5-7.5-7.5h-8.146c3.766-36.555 34.742-65.161 72.275-65.161h16.033c4.142 0 7.5-3.358 7.5-7.5s-3.358-7.5-7.5-7.5h-16.033c-0.173 0-0.344 6e-3 -0.516 7e-3v-0.523c0-24.879-12.756-46.827-32.064-59.672v-36.522c0-4.142-3.358-7.5-7.5-7.5s-7.5 3.358-7.5 7.5v28.905c-7.665-2.807-15.939-4.34-24.564-4.34h-48.097c-26.805 0-48.613-21.808-48.613-48.613 0-4.142-3.358-7.5-7.5-7.5s-7.5 3.358-7.5 7.5c0 35.077 28.537 63.613 63.613 63.613h8.014c35.646 0 64.645 29 64.645 64.645v6.571c-22.126 14.355-37.399 38.408-39.756 66.09h-8.857c-31.225 0-56.629-25.404-56.629-56.629v-24.048c0-1.731-0.599-3.409-1.695-4.749-38.342-46.863-92.121-73.431-130.48-87.466-41.407-15.146-73.45-19.266-74.793-19.433-3.222-0.405-6.34 1.315-7.72 4.257s-0.709 6.437 1.662 8.658c42.693 40.004 66.308 81.164 78.6 108.65 9.284 20.757 13.687 37.052 15.52 45.116l-4.536 2.592c-3.596 2.055-4.846 6.636-2.791 10.233 1.384 2.422 3.915 3.78 6.519 3.78 1.262 0 2.541-0.319 3.714-0.99l5.472-3.127c12.342 5.309 65.962 30.073 95.532 71.148v5.628c0 4.142 3.358 7.5 7.5 7.5s7.5-3.358 7.5-7.5v-8.016c0-9.125 7.423-16.548 16.548-16.548h44.423c-13.908 51.335-60.894 89.21-116.57 89.21-66.586 0-120.76-54.172-120.76-120.76v-4.91l13.835-13.835c2.122-2.122 2.774-5.303 1.66-8.089l-16.03-40.082c-1.139-2.847-3.896-4.714-6.963-4.714s-5.825 1.867-6.963 4.714l-16.033 40.081c-1.114 2.786-0.461 5.967 1.66 8.089l13.835 13.835v12.926c0 89.587 70.033 163.21 159.44 167.62 0.126 6e-3 0.251 9e-3 0.375 9e-3 3.972 0 7.287-3.12 7.484-7.131 0.204-4.137-2.985-7.656-7.122-7.86-44.922-2.212-84.466-23.626-110.9-56.079 23.502 19.469 53.647 31.186 86.479 31.186 18.15 0 35.476-3.589 51.316-10.081-1.763 5.461-2.703 11.221-2.703 17.112v58.13h-16.548c-4.142 0-7.5 3.358-7.5 7.5s3.358 7.5 7.5 7.5h24.048c1.876 0 3.684-0.703 5.067-1.971 3.01-2.758 8.05-6.045 14.973-6.045s11.964 3.288 14.974 6.045c1.439 1.319 3.255 1.971 5.065 1.971 2.029 0 4.052-0.819 5.531-2.433 2.799-3.054 2.592-7.798-0.462-10.596-7.027-6.44-15.944-9.987-25.107-9.987-4.291 0-8.526 0.785-12.54 2.273v-13.744l20.144-8.058c6.291-2.516 11.738-6.6 15.926-11.726 19.963-8.799 38.044-21.468 53.176-37.151 0.372 10.003 4.435 19.354 11.552 26.47l13.282 13.282c4.639 4.64 7.194 10.808 7.194 17.37v19.299h-12.54c-4.142 0-7.5 3.358-7.5 7.5s3.358 7.5 7.5 7.5h24.048c1.876 0 3.684-0.703 5.067-1.971 3.01-2.758 8.05-6.045 14.973-6.045s11.964 3.288 14.974 6.045c1.439 1.319 3.255 1.971 5.065 1.971 2.029 0 4.052-0.819 5.531-2.433 2.799-3.054 2.592-7.798-0.462-10.596-7.027-6.44-15.944-9.987-25.107-9.987-5.749 0-11.399 1.401-16.548 4.032v-212.97c0-13.545 11.02-24.564 24.564-24.564h35.13c5.58 4.981 12.932 8.016 20.983 8.016h48.097c4.142 0 7.5-3.358 7.5-7.5s-3.358-7.5-7.5-7.5h-32.581v-0.516c0-4.705 3.828-8.532 8.532-8.532h32.064c8.556 0 15.516-6.96 15.516-15.516 1e-3 -17.396-14.151-31.549-31.547-31.549zm-177.39-40.666c27.94 3.454 49.645 27.324 49.645 56.183v1.891c-5.925 1.063-11.644 2.727-17.095 4.92-0.387-25.827-13.115-48.708-32.55-62.994zm-208.13 60.566c-11.079-24.91-30.966-60.479-64.901-96.673 38.274 8.781 114.99 32.68 166.28 90.274l-86.245 49.282c-2.396-9.469-6.945-24.462-15.137-42.883zm105.47 110.61c-26.308-28.731-60.835-47.749-79.453-56.671l79.453-45.402v102.07zm31.549-10.271c-6.068 0-11.733 1.735-16.548 4.716v-41.608c13.113 16.921 33.614 27.844 56.629 27.844h8.292c-0.188 3.048-0.488 6.065-0.899 9.048h-47.474zm-200.4-35.171l-7.232-7.232 7.232-18.08 7.232 18.08-7.232 7.232z"/>
		<path d="m288.06 40.08h-64.129c-4.705 0-8.532-3.828-8.532-8.532s3.828-8.532 8.532-8.532h16.032c4.142 0 7.5-3.358 7.5-7.5s-3.358-7.5-7.5-7.5h-16.032c-12.976 0-23.532 10.557-23.532 23.532s10.557 23.532 23.533 23.532h32.581v0.516c0 4.142 3.358 7.5 7.5 7.5s7.5-3.358 7.5-7.5v-0.516h16.548c9.125 0 16.548 7.423 16.548 16.548 0 0.285-0.231 0.516-0.516 0.516h-32.064c-12.976 0-23.532 10.557-23.532 23.532v0.516h-0.516c-9.125 0-16.548-7.423-16.548-16.548 0-4.142-3.358-7.5-7.5-7.5s-7.5 3.358-7.5 7.5c0 17.396 14.152 31.548 31.548 31.548h48.097c4.142 0 7.5-3.358 7.5-7.5s-3.358-7.5-7.5-7.5h-32.582v-0.516c0-4.705 3.828-8.532 8.532-8.532h32.064c8.556 0 15.516-6.96 15.516-15.516 0-17.396-14.152-31.548-31.548-31.548z"/>
</svg>
